<?xml version="1.0" encoding="UTF-8"?>
<svg id="Layer_1" xmlns="http://www.w3.org/2000/svg" version="1.1" viewBox="0 0 1366 768">
  <!-- Generator: Adobe Illustrator 30.0.0, SVG Export Plug-In . SVG Version: 2.1.1 Build 123)  -->
  <defs>
    <style>
      .st0 {
        stroke: #29abe2;
      }

      .st0, .st1, .st2, .st3, .st4, .st5, .st6, .st7, .st8, .st9, .st10, .st11, .st12, .st13, .st14, .st15, .st16 {
        stroke-miterlimit: 30;
      }

      .st0, .st1, .st2, .st4, .st5, .st7, .st8, .st9, .st10, .st11, .st12, .st13, .st15, .st16 {
        stroke-linecap: square;
      }

      .st17, .st18, .st19, .st20, .st21, .st22 {
        stroke-miterlimit: 10;
      }

      .st17, .st19 {
        stroke-width: 2px;
      }

      .st17, .st19, .st7, .st9, .st20, .st12 {
        stroke: #c69c6d;
      }

      .st17, .st7 {
        fill: none;
      }

      .st1, .st4 {
        stroke: #4d4d4d;
      }

      .st1, .st8 {
        fill: #4d4d4d;
      }

      .st2, .st13 {
        fill: #fff;
        stroke: #fff;
      }

      .st3, .st10 {
        fill: #e05a24;
        stroke: #e05a24;
      }

      .st18 {
        stroke: #000075;
      }

      .st4 {
        fill: #666;
      }

      .st5, .st14 {
        fill: #97272d;
      }

      .st5, .st14, .st15 {
        stroke: #97272d;
      }

      .st6 {
        fill: #af8c6d;
        stroke: #ae6c37;
      }

      .st19, .st9, .st20 {
        fill: #c69c6d;
      }

      .st8 {
        stroke: #666;
      }

      .st11 {
        fill: #f15a24;
        stroke: #f7851e;
      }

      .st12 {
        fill: #ba865b;
      }

      .st21 {
        fill: #c68c6d;
        stroke: #c68c6d;
      }

      .st22 {
        fill: #86d3ff;
        stroke: #000;
      }

      .st13 {
        stroke-width: .75px;
      }

      .st15 {
        fill: #ca1e2d;
        stroke-width: 6px;
      }

      .st16 {
        fill: #f2f2f2;
        stroke: #8c6239;
      }
    </style>
  </defs>
  <rect class="st22" x=".74" y=".25" width="1362.81" height="767.05"/>
  <g id="_x3C_mand_x5F_i_x5F_badering_x3E_">
    <path class="st5" d="M515.02,440.95c-52.82,0-112.02,2.63-148.25,41.11-11.38,12.09-19.48,26.89-26.42,41.98-17.33,37.65-27.72,83.25-7.63,119.5,19.23,34.71,60.18,50.24,98.21,61.44,31.14,9.18,62.93,17.32,95.38,18.23,19.59.54,39.19-1.56,58.78-.81,27.78,1.07,55.12,7.88,82.91,8.48,22.47.49,44.81-3.09,67-6.65,66.34-10.65,132.67-21.31,199.01-31.96,12.33-1.98,24.79-4,36.28-8.89,17.87-7.6,32.13-21.58,45.93-35.25,15.93-15.77,32.03-31.76,43.49-51.03,11.45-19.27,17.93-42.5,12.92-64.36-4.03-17.57-15.18-33.39-16.1-51.39-.28-5.37.35-10.97-1.7-15.94-1.99-4.82-6.19-8.31-10.24-11.59-14.23-11.54-28.75-23.25-45.76-30.05-19.56-7.82-41.1-8.65-62.15-9.38-34.47-1.19-68.94-2.38-103.41-3.57-14.5-.5-31.19-.07-40.41,11.14,8.69,14.34,16.71,29.22,19.32,45.78,2.62,16.56.14,34.39-9.36,48.19-7.73,11.23-19.5,19.08-31.82,24.92-28.26,13.4-60.22,17.36-91.47,16.3-31.25-1.05-62.11-6.9-92.91-12.29-14.88-2.6-29.92-5.14-43.9-10.87-12.19-4.99-23.94-13-29.42-24.99-3.2-7.01-4.03-14.86-4.25-22.56-.41-14.77,2.19-31.22,5.98-45.51Z"/>
    <path class="st5" d="M522.49,473.57c-5.59-2.17-7.16-9.25-7.51-15.24-.3-5.23-.06-10.45-.06-15.67-3.63,6.06-2.6,23.79,2.48,29.09,4.83,5.03,18.18,7.83,24.69,10.2,18.37,6.69,37.39,11.54,56.67,14.69,38.26,6.26,77.52,5.87,115.81.03,26.78-4.08,53.9-11.1,75.8-27.07,3.89-2.83,7.71-6.1,9.66-10.49,4.55-10.24-2.46-21.65-3.71-32.79,8.69,4.18,17.39,8.36,26.08,12.54,5.85,2.81,11.89,5.77,16.03,10.78,3.96,4.79,5.77,10.95,7.48,16.93,2.54,8.87,5.08,17.75,7.62,26.62,1.74,6.08,3.5,12.36,2.81,18.65-.84,7.66-5.22,14.46-10.06,20.45-15.96,19.75-38.47,34.11-63.1,40.24-11.94,2.97-24.26,4.05-36.52,5.12-23.75,2.07-47.49,4.15-71.24,6.22-22.39,1.95-44.92,3.91-67.31,1.86-12.01-1.1-23.88-3.34-35.73-5.59-26.99-5.11-56.05-4.71-81.2-17.06-14.76-7.25-28.9-25.53-29.16-42.47-.14-9.36,1.16-21.24,4.89-29.85,4.93-11.39,12.77-21.07,22.09-29.32,7.21-6.38,15.32-11.9,23.64-16.68.05.23.09.47.13.72"/>
    <path class="st13" d="M877.97,490c8.61,4.21,16.89,9.26,25.06,14.25,10.01,6.12,20.01,12.24,30.02,18.37,12.03,7.36,24.07,14.73,35.73,22.69,10.62,7.26,20.92,15,30.86,23.16,12.46,10.22,24.43,21.14,37.9,29.99,3.33,2.19,6.98,4.32,10.96,4.27,7.52-.08,12.64-13.9,15.44-19.67,4.45-9.15,6.72-19.27,7.71-29.35.72-7.29.78-14.71-.79-21.86-1.26-5.73-3.56-11.17-5.59-16.68-4.08-11.06-7.16-22.66-7.25-34.45-.03-3.85.25-7.78-.72-11.51-1.93-7.4-8.34-12.63-14.37-17.31-13.08-10.15-26.42-20.44-41.89-26.33-13.52-5.14-28.1-6.69-42.51-7.96-52.8-4.66-105.86-6.24-158.84-4.72-2.38.07-5.24.45-6.22,2.62-.56,1.25-.28,2.69.01,4.03,1.81,8.27,3.84,17.07,5.3,25.31,1.1,6.23-.59,13.41,3.6,18.75,5.17,6.59,14.71,5.96,21.85,8.92,9.57,3.97,17.8,6.48,28.06,8.46,8.97,1.73,17.47,4.99,25.68,9Z"/>
    <path class="st18" d="M406.8,316.34c-7.46-1.84-16.01-5.17-17.86-12.63,5.85-7.59,16.46-9.73,26.03-9.23,9.57.5,19.02,3.07,28.58,2.61,5.94-.28,12.64-2.4,14.94-7.89,3.41-8.12-5.05-16.2-13-19.97-30.98-14.69-67.28-9.92-101.08-15.65-6.27-1.06-14.06-4.5-13.44-10.84.53-5.39,6.86-7.88,12.18-8.86,23.67-4.36,48.27-1.64,71.36,5.17,20.95,6.18,40.91,15.72,58.89,28.14,6.09-7.56-.24-18.66-7.15-25.47-12.73-12.53-28.03-22.43-44.67-28.9-25.36-9.85-54.1-12-76.44-27.53-2.36-1.64-4.73-3.56-5.69-6.27-2.41-6.78,5.4-13,12.51-14.07,24.58-3.67,44.39,22,69.09,24.76.34-21.19-17.69-38.1-36.19-48.41-18.49-10.31-39.48-17.53-53.74-33.19-1.81-1.99-3.58-4.31-3.69-7.01-.1-2.54,1.31-4.91,2.99-6.82,7.56-8.55,20.8-10.16,31.64-6.61,10.84,3.55,19.74,11.34,27.82,19.4,20.22,20.2,37.39,43.46,50.72,68.76,7.08,13.44,15.63,29.35,30.72,30.94,2.32.24,4.85.05,6.67-1.42,2.42-1.96,2.8-5.47,2.72-8.58-.56-20.52-13.1-38.79-27.27-53.63-14.17-14.84-30.57-27.78-42.12-44.74-3.8-5.58-6.82-13.73-2.05-18.51,1.54-1.55,3.66-2.39,5.78-2.92,16.32-4.09,32.06,7.97,43.53,20.3,14.29,15.36,26.72,32.46,36.93,50.8,13.35.26,26.17,17.31,37.03,9.52,3.41-2.44,4.99-6.74,5.6-10.89,3.17-21.44-14.32-40.36-32.54-52.07-18.22-11.71-39.38-20.77-51.45-38.76,15.98-8.8,38.11-4,49.02,10.64,4.8,6.44,7.52,14.33,12.79,20.39,5.27,6.06,14.83,9.82,21.3,5.06,6.92-5.09,5.64-15.61,3.64-23.97-3.13-13.09-6.26-26.18-9.4-39.26,16.46-7.96,39.01,4.54,41.01,22.74,1.19,10.88-3.8,21.33-7.02,31.79-3.09,10.05-4.5,21.33.08,30.8,4.57,9.47,16.87,15.66,26.08,10.61,6.44-3.53,9.54-11.31,9.78-18.65.25-7.35-1.83-14.54-3.29-21.75-2.23-11-3.05-22.28-2.42-33.49.43-7.77,2.3-16.64,9.15-20.33,7.99-4.3,18.39,1.64,22.11,9.92,3.71,8.28,2.59,17.84,1.24,26.81-2.27,15.1-5.01,30.13-8.2,45.06,7.85,7.16,19.41,14.67,28.07,8.52,3.23-2.3,5.09-6.07,6.28-9.85,6.62-21.1-4.16-43.33-14.61-62.82,9.03-.91,17.49,5.67,21.65,13.75,4.16,8.08,4.94,17.42,5.64,26.49,8.09-2.47,11.65-11.61,15.55-19.13,3.9-7.52,11.95-15.22,19.71-11.85,7.09,3.08,7.71,13.61,3.45,20.07-4.26,6.46-11.52,10.12-17.93,14.45-6.41,4.33-12.67,10.52-12.82,18.26-.17,8.67,8.13,15.91,16.77,16.57,8.63.66,16.97-3.98,22.95-10.25,9.32-9.78,13.93-23.87,12.2-37.28-1-7.77-3.99-15.19-4.93-22.97-.95-7.78.69-16.64,6.98-21.31,7.25-5.39,17.72-3.11,25.48,1.51,10.26,6.11,18.65,17.22,17.43,29.11-2.09,20.46-30.17,32.86-27.81,53.29,12.74,3.24,24.57-7.31,32.91-17.48,8.34-10.17,17.94-21.89,31.08-22.05,4.81-.06,10.01,1.94,12.18,6.24,3.27,6.5-2.05,14.36-8.48,17.76-6.43,3.4-13.99,4.25-20.34,7.79-6.36,3.54-11.34,11.74-7.64,18.01,1.1,1.87,2.85,3.3,4.79,4.29,10.97,5.59,24.18-3.68,29.8-14.64,5.62-10.96,7.09-23.82,13.56-34.3,6.48-10.48,21.68-17.57,31.01-9.53-7.05,2.53-12.66,8.73-14.48,16-1.97,7.9.36,16.19.12,24.33-.58,19.99-19.11,37.7-39.08,37.35-2.2,4.31,1.17,9.86,5.73,11.43,4.57,1.57,9.63.17,14-1.91,27.04-12.87,35.37-46.31,47.04-73.92,2.76-6.54,6.21-13.32,12.35-16.86,10.83-6.25,26.84,3.09,26.77,15.6-.14,23.01-39.66,28.85-41.32,51.79-.97,13.52,12.24,23.55,16.76,36.32.86,2.44,1.37,5.28.06,7.52-1.27,2.17-3.87,3.12-6.29,3.85-12.04,3.62-24.57,5.6-37.14,5.88-4.16,5.85.76,14.33,7.21,17.47,6.45,3.14,13.97,3.16,20.74,5.55,12.93,4.57,21.81,18.63,20.4,32.28-23.66,2.17-48.09-6.35-65.28-22.77-7.92,9.41-1.39,24.92,9.34,30.93,10.73,6.01,23.71,5.59,36,6.08,12.29.49,25.73,2.66,33.77,11.98,8.03,9.32,5.29,27.53-6.83,29.65-7.74,1.35-15-4.2-19.96-10.3-4.97-6.1-9.05-13.27-15.78-17.33-6.73-4.06-17.4-3.09-20.22,4.26-2.51,6.53,2.71,13.68,8.84,17.03,6.13,3.35,13.31,4.49,19.31,8.06,6,3.57,10.72,11.25,7.51,17.47-3.69,7.58-14.95,7.42-22.27,3.24-7.32-4.17-13.05-11.03-20.91-14.07-6.51-2.52-13.73-2.12-20.69-1.69-91.87,5.72-183.73,11.43-275.6,17.15-12.8.8-25.98,2.21-38.81,1.42-7.98-.49-15.05-3.87-22.9-4.8-25.16-2.99-49.45-1.35-74.5-7.52Z"/>
    <path class="st9" d="M921.49,454.14c5.08.22,20.32,2.54,21.94,3.1,7.18,2.49,15.37,11.34,22.75,9.87,2.97-.59,6.31-1.39,8.68-3.4.71-.6,5-7.47,4.36-7.39-13.38,1.76-27.32-1.2-38.83-8.26,11.46-5.19,25.01-5.53,36.71-.92,4.21-1.1,4.41-7.69,1.19-10.62-3.23-2.93-7.99-3.17-12.35-3.26-9.61-.19-19.23-.38-28.84-.57-.52-6.97,8.45-9.93,15.28-11.37s15.18-7.45,11.68-13.49c-12.15-9.13-32.6-2.17-36.68,12.48-5.04,0-10.08.01-15.12.02,1.36-7.17,4.86-13.92,9.93-19.16-6.92-4.98-17-5.03-23.96-.1-6.96,4.93-10.28,14.47-7.88,22.66-11.03-9.07-24.56-15.05-38.68-17.1-6.55-.95-13.79-1.32-18.6-5.87-2.86-2.71-4.38-6.5-6.44-9.85-12.11-19.76-39.6-21.56-62.75-21.12,31.51-17.99,53.43-51.84,56.97-87.98,1.3-13.25.28-26.62-1.46-39.82-1.41-10.69-3.36-21.52-8.4-31.05-8.78-16.58-25.72-27.08-42.54-35.35-50.99-25.07-121.9-38.27-175.42-14.03-39.93,18.08-65.89,58.24-79.96,99.8-7.07,20.89-11.55,44.49-2.28,64.51,4.22,9.12,11.03,16.83,15.43,25.86,4.4,9.04,5.94,20.67-.26,28.58-5.79,7.39-16.04,9.01-25.01,11.72-30.52,9.22-52.46,35.27-72.56,60.04-18.42,22.69-37.38,45.85-49.14,72.88-4.19,9.64-10.8,18.2-14.07,28.17-3.99,12.18-3.95,25.46-1.95,38.01.25,1.55.54,3.14,1.45,4.42.9,1.28,2.58,2.15,4.06,1.63,1.32-.47,2.07-1.83,2.69-3.09,2.26-4.57,13.59-33.82,17.12-32.78,3.67,1.08,4.76,13.34,5.09,16.42.28,2.6-1.87,16.04-.86,17.22,4.91,5.74,13.46-2.43,15.73-9.63,4.15-13.14,5.81-27.07,4.88-40.82,11.03,11.26,12.86,30.41,4.15,43.56,7.81,5.03,18.81-1.99,21.29-10.95,2.49-8.96-.76-18.4-3.97-27.12,3.68-4.27,10.86-.34,13.63,4.57,2.77,4.91,4.35,11.19,9.41,13.66,9.59,4.69,14.28-8.04,15-15.12.33-3.28-.64-6.89-3.26-8.9-1.43-1.1-3.21-1.64-4.92-2.21-3.71-1.24-7.33-2.78-10.81-4.58-5.49-2.84-10.77-6.42-16.72-8.26-4.74-1.46-10.07-.24-12.77-5.41-4.23-8.11,7.8-14.51,12.47-19.29,9.73-9.97,19.47-19.94,29.2-29.91,3.23-3.31,6.81-4.11,9.94-7.63,3.28-3.69,6.8-7.19,10.49-10.47,7.15-6.37,15.01-11.94,23.41-16.54,3.21-1.76,6.78-3.44,10.4-2.88,6.31.98,9.75,8.6,8.58,14.89-1.17,6.29-5.53,11.43-9.73,16.24,75.76,35.35,165.08,40.51,244.39,14.11,16.18-5.38,34.84-16.4,33.5-33.41-1.04-13.21-14.43-23.29-14.42-36.54,3.1-6.11,12.68-4.89,17.67-.21,5,4.68,7.6,11.47,12.51,16.23,6.34,6.15,15.52,8.07,24.13,10.03,12.07,2.75,24.02,7.95,36.07,10.24,13.64,2.59,13.94,5.66,21.32,17.47,6.13,9.81,13.71,19.7,24.67,23.38,3.78,1.27,7.97,1.71,11.75.46,3.79-1.25,7.08-4.42,7.77-8.35.98-5.64-3.29-10.78-7.66-14.46-3.16-2.67-13.24-8.93-8.16-13.36,4.21-3.67,15.23,4.09,19.27,5.69,10.41,4.14,21.89,4.44,33.09,4.7.37-1.4.74-2.8,1.11-4.2,1.04-.23,2.08-.46,3.11-.69,1.45,2.78.19,6.4-2.22,8.39-2.42,1.99-5.69,2.61-8.82,2.62-4.98.02-9.95-1.36-14.21-3.94-2.35-1.42-4.47-3.19-6.76-4.7-8.4-5.53-18.64-7.29-28.56-8.93"/>
    <path class="st11" d="M493.01,400.67c.37-3.52,2.1-6.76,4.07-9.7,7.74-11.58,21.61-20.57,35.16-17.41,5.18,1.21,9.86,4.07,15,5.41,5.29,1.39,10.85,1.13,16.29,1.7,7.73.81,15.18,3.3,22.84,4.57,17.69,2.93,35.8-.69,53.71.15,17.91.84,37.64,7.97,44.79,24.44,5.29,12.19,2.36,26.37,5.32,39.33,2.17,9.5,7.46,18.15,8.91,27.79.96,6.37.16,12.99-2.29,18.95-.5,1.23-1.11,2.47-2.16,3.3-1.48,1.16-3.51,1.25-5.39,1.27-51.73.63-103.56-7.48-152.64-23.89-6.64-2.22-14.87-5.41-17.88-12.33-3.44-7.91,2.07-15.4,1.31-23.32-1.65-17.38-29-21.63-27.06-40.26Z"/>
    <path class="st11" d="M723.41,388.74c-9.71,1.09-19.9,4.06-26.15,11.58-8.28,9.95-7.22,24.43-5.71,37.3,2.36,20.15,4.71,40.29,7.07,60.44,5.27,2.65,11.59.92,17.22-.85,16.6-5.22,33.21-10.43,49.81-15.65,6.98-2.19,14.03-4.41,20.35-8.1,8.93-5.2,16.61-14.6,15.49-24.89-.35-3.2-1.52-6.25-2.68-9.25-3.28-8.49-6.56-16.97-9.83-25.46-2.2-5.69,6.46-13.79,8.33-18.53,2.08-5.29.87-11.24-.37-16.79-.44-1.95-.88-3.93-1.76-5.73-1.22-2.51-3.22-4.55-5.3-6.41-7.21-6.46-13.3,1.09-18.42,6.75-13.11,14.47-29.91,13.54-48.03,15.58Z"/>
    <path class="st7" d="M367.52,573.48c1.92-3.97,3.83-8.06,4.23-12.45,0,.05.02.1.03.15.66,3.9.09,17.33-3.24,20.18-5.72,4.88-2.1-5.63-1.01-7.88Z"/>
    <path class="st2" d="M733.44,725.7c-6.89,1.23-13.44,3.87-20.22,5.6-10.01,2.55-20.4,3.08-30.71,3.6-4.78.24-9.58.48-14.36.21-7.55-.44-14.95-2.15-22.33-3.79-25.39-5.64-50.76-8.46-76.66-8.71-4.09-.04-8.97-.55-10.87-4.18-.97-1.85-.86-4.07-.71-6.15,1.44-20.16,4-40.24,7.65-60.12,3.9-21.21,9.04-42.16,14.17-63.1,3.39-13.84,6.79-27.67,10.39-41.46,1.66-6.35,4.06-12.77,4.29-19.27.25-7.16,2.89-15.59,6.65-21.66,6.36-10.28,16.45-5.56,27-4.86,30.27,2.03,60.77.57,90.71-4.34,4.89,9.4,9.78,18.79,14.67,28.19,5.06,9.71,10.11,19.43,14.92,29.27,4.17,8.54,8.16,17.16,12.15,25.79,4.32,9.34,8.63,18.68,12.81,28.08,5.7,12.84,11.14,25.82,15.33,39.22,3.1,9.91,5.51,20.03,7.92,30.14,1.78,7.47,3.56,14.94,5.34,22.41.71,3,1.29,6.57-.81,8.82-1.25,1.33-3.13,1.82-4.91,2.24-10.71,2.54-22.45,4.11-32.42,8.7-8.94,4.11-20.03,5.38-30.02,5.38Z"/>
    <path class="st2" d="M495.4,475.86c-6.59,2.25-13.21,4.51-19.49,7.53-5.83,2.81-11.52,6.31-17.93,7.21,2.72-2.62,5.44-5.23,8.16-7.85,8.84-8.51,17.69-17.02,26.89-25.14,4.4-3.88,8.88-7.68,13.78-10.9,3.58-2.35,7.54-4.57,9.57-8.34.59,5.56-.95,11.11-1.44,16.68-.27,3.14-.15,6.41.81,9.43.57,1.79,3.49,5.17,1.49,6.58-.84.59-4,.2-5.13.34-1.87.23-3.72.6-5.55,1.04-3.79.91-7.48,2.16-11.16,3.42Z"/>
    <path class="st2" d="M387.34,495.03c6.23-5.16,9.84-12.78,15.16-18.88,2.84-3.26,6.17-6.06,9.07-9.26,2.39-2.63,4.48-5.52,6.57-8.39,1.16-1.6,6.6-7.11,6.35-9.01-.32-2.42-6.24,1.11-7.5,1.79-9.29,4.96-18.59,9.92-27.82,15-7.28,4-14.6,8.15-20.58,13.92-6.22,6.01-10.73,13.54-14.98,21.07-5.14,9.12-10,18.39-14.59,27.79,4.23-3.12,8.46-6.24,12.69-9.37,3.8-2.8,7.6-5.61,11.62-8.08,7.63-4.7,15.98-8.14,24.49-10.94,3.36-7.05,7-13.81,11.93-19.86,1.6-1.97,3.27-3.87,4.95-5.77,8.02-9.11,16.03-18.23,24.05-27.34-4.25,1.78-8.39,3.83-12.39,6.13"/>
    <path class="st2" d="M796.31,422.72c1.02,3.4,1.92,6.84,2.74,10.31.88,3.68,1.41,8.83,4.53,11.45,3.63,3.05,8.23,1.1,12.41.63,3.11-.35,6.14-.14,9.25-.19,2.24-.04,5.91-1.55,7.76-1.34-9.1-1.03-17.89-4.66-25.09-10.34-1.35-1.07-2.65-2.21-3.72-3.56-1.24-1.57-2.13-3.38-3.13-5.12-1.93-3.35-4.29-6.67-7.15-9.27,1.52,4.27,1.07,7.68,1.54,12.01.65,5.95,3.08,12.21,5.27,17.73.52,1.31,1.12,2.68,2.25,3.51,1.06.78,2.43.97,3.74,1.01,10.62.3,20.42-8.21,30.89-6.41-10.44-1.13-20.6-4.71-29.45-10.36-2.31-1.48-4.63-3.2-5.82-5.68-1.1-2.29-1.11-5.01-2.34-7.24-.84-1.53-2.25-2.74-3.88-3.35,7.74,10.42,17.09,20.45,29.38,24.6"/>
    <ellipse class="st15" cx="677.54" cy="646.56" rx="41.16" ry="40.38"/>
    <ellipse class="st15" cx="1021.75" cy="510.55" rx="21.46" ry="26.09" transform="translate(-48.6 909.26) rotate(-46.98)"/>
    <path class="st17" d="M917.95,407.13c17.64,5.4,35.66-5.28,53.56-9.76,10.88-2.72,22.18-3.15,33.39-3.27,20.92-.22,42.58.75,61.35,9.98,18.77,9.23,33.96,28.76,32.01,49.61-1.67,17.83-15.38,32.7-31.36,40.74-15.98,8.03-31.67,13.25-49.4,15.54,21.7-1.01,43.62,2.89,63.65,11.31,11.46,4.82,22.7,11.47,29.58,21.84,14.11,21.28,4.52,51.84-14.83,68.48-19.35,16.64-45.58,22.44-70.83,26.05-12.77,1.83-25.59,3.24-38.45,4.24-40.56,3.16-82.47,2.4-120.19,17.65-19.74,7.98-38.05,20.27-59.03,23.94-15.15,2.65-30.71.6-45.84-2.18-29.29-5.38-68.69-14.04-86.12-38.22-13.34-3.5-26.34,7.4-33.18,19.39-6.84,11.99-10.52,25.98-19.77,36.22-13.07,14.48-34.08,18.16-53.49,19.99-26.68,2.52-54.96,2.85-78.64-9.72-14.04-7.45-25.44-18.92-37.91-28.76-23.52-18.55-51.39-31.52-80.71-37.57-18.72-3.86-39.15-5.43-53.87-17.64-7.93-6.58-13.39-15.71-17.26-25.27-13.87-34.27-7.35-75.95,16.33-104.33,23.67-28.37,63.48-42.22,99.62-34.64-4.27-3.34-8.67-6.01-10.98-10.93-2.31-4.91-1.77-11.63,2.68-14.74,2.04-1.43,4.59-1.91,7.06-2.24,8.6-1.13,17.38-.76,25.85,1.09"/>
    <ellipse class="st19" cx="502.63" cy="260.75" rx="21.69" ry="46.41"/>
    <ellipse class="st21" cx="502.19" cy="262.07" rx="14.82" ry="35.04"/>
    <ellipse class="st20" cx="512.22" cy="264.11" rx="8.49" ry="8.5"/>
    <ellipse class="st12" cx="686.19" cy="282.57" rx="42.88" ry="23.99"/>
    <path class="st4" d="M574.68,174.53c10.46-.75,20.31-5.94,30.68-7.7,4.96-.84,9.98-.88,14.99-.93,9.21-.08,19.6.39,25.83,8.19,1.69,2.12,3.03,4.74,5.24,6.09,1.72,1.05,3.75,1.18,5.7,1.28,4.18.22,8.36.45,12.53.67,5.25.28,11.12.31,14.94-3.83,4.21-4.57,4.35-12.65,8.68-17.07,3.22-3.29,7.9-3.68,12.21-3.9,17.12-.89,34.25-1.79,51.37-2.68,7.62-.4,15.39-.78,22.72,1.65.84.28,1.71.62,2.33,1.33.97,1.12,1.09,2.85,1.72,4.25s2.47,2.39,3.29,1.13c2.36,6.32,3.34,13.32,2.82,20.17-11.86-2.34-22.99,6.06-34.01,11.6-11.41,5.75-23.92,8.63-36.38,8.39-14.64-.28-28.95-4.79-43.48-6.91-14.53-2.12-30.16-1.58-42.6,7.28-3.58,2.55-6.82,5.74-10.58,7.93-5.29,3.08-11.33,4.03-17.26,4.16-15.43.34-30.55-4.48-45.41-9.27-8.76-2.82-24.13-20.25-18.68-32,2.84-6.12,7.01-5.26,11.95-3.71,7.31,2.29,13.8,3.88,21.42,3.88Z"/>
    <path class="st8" d="M560.87,197.4c13.6,2.94,27.28,5.55,41,7.83,2.42.4,4.91.79,7.3.28,4.73-1.01,8.01-5.18,12.02-7.88,3.24-2.18,7.01-3.41,10.44-5.26,3.43-1.86,6.69-4.63,7.63-8.42.35-1.43.32-3.06-.58-4.24-.76-.99-1.99-1.49-3.17-1.87-12.59-4.1-26.27-.83-39.03,2.7-11.42,3.17-22.2,5.51-34.09,5.24-3.09-.07-7.06-.52-8.39,2.93-1.87,4.83,3.02,7.87,6.87,8.7Z"/>
    <path class="st1" d="M709.06,169.09c-2.35-1.03-5.22.08-6.88,2.04-1.66,1.96-2.32,4.57-2.63,7.12-.41,3.4-.22,7.11,1.83,9.86,2.75,3.69,7.87,4.51,12.47,4.73,16.34.78,32.85-2.4,47.74-9.19,5.08-2.32,10.5-5.73,11.58-11.22.14-.7.19-1.45-.14-2.09-.56-1.08-1.93-1.37-3.13-1.53-17.03-2.31-34.2-3.62-51.38-3.93-3.67-.07-7.48-.06-10.81,1.48-3.33,1.54-6.04,5.06-5.45,8.68"/>
    <ellipse class="st16" cx="585.07" cy="273.66" rx="34.79" ry="46.85"/>
    <ellipse class="st16" cx="771.02" cy="253.63" rx="34.79" ry="46.85"/>
    <ellipse class="st0" cx="596.33" cy="272.92" rx="14.32" ry="21.99"/>
    <ellipse class="st0" cx="783.77" cy="255.71" rx="14.32" ry="21.99"/>
    <path class="st6" d="M625.22,344.32c18.73-5.43,37.84-9.55,57.14-12.31,11.95-1.71,24.13-2.89,36.07-1.1,14.83,2.23,28.56,8.95,42.03,15.57,2.9,1.43,6.2,3.43,6.36,6.66-13.13,3.45-26.93-.18-40.47-1.26-13.53-1.08-27.12.41-40.62,1.9-14.5,1.6-28.99,3.21-43.49,4.81-12.21,1.35-24.46,2.71-36.35,5.76-10.17,2.61-22.45,8.63-33.13,7.5-8.6-.91-12-10.02-4.02-15.08,5.1-3.23,14.95-1.42,20.76-2.48,12.13-2.2,23.91-6.54,35.72-9.97Z"/>
    <path class="st5" d="M788.07,505.21c0,2.15-.01,4.3-.02,6.45,0,.58,0,1.18.29,1.68.57,1,2.03,1.12,3.09.66s1.87-1.33,2.82-2c2.02-1.41,4.57-1.8,6.79-2.87s4.27-3.37,3.64-5.75c-5.72-.34-11.46-.19-17.15.45"/>
    <path class="st10" d="M534.09,403.5c26.6,11.35,55.88,14.65,84.75,16.34,13.57.8,27.5,1.22,40.41-3.02.63-.21,1.27-.44,1.77-.88,2.04-1.82.08-5.15-2.06-6.85-12.64-9.99-30.24-9.42-46.28-10.88-22.74-2.07-44.71-9.08-67.47-10.98-4.8-.4-20.16-3.16-24.15.91-5.88,5.99,8.97,13.62,13.03,15.35Z"/>
    <path class="st3" d="M766.97,388.46c-3.66,2.21-7.86,3.32-11.99,4.41-11.23,2.96-22.47,5.91-33.7,8.87-3.33.87-6.72,1.78-9.59,3.66-2.88,1.88-5.2,4.96-5.28,8.39-.12,5.28,4.89,9.28,9.86,11.03,7.24,2.56,15.47,2.21,22.47-.95,8.55-3.86,14.81-11.42,22.64-16.6,5.51-3.64,11.78-6.1,16.95-10.21,5.17-4.11,9.22-10.65,7.76-17.09-7.93-2.32-12.88,4.73-19.12,8.49Z"/>
    <path class="st14" d="M644.69,345.64c8.51-1.25,17.22-.57,25.72-1.88,6.32-.97,12.43-3.03,18.74-4.1,3.99-.67,8.18-.93,11.99.43,3.81,1.36,7.14,4.65,7.54,8.67-5.64-.1-11.29-.06-16.93.12-3.9.12-7.8.31-11.69.69-4.47.43-8.92,1.1-13.36,1.77-12.67,1.91-25.34,3.81-38.01,5.72-2.54.38-5.61,1.54-3.61-1.76,1.18-1.95,3.63-3.58,5.51-4.77,4.23-2.68,9.18-4.17,14.11-4.9Z"/>
  </g>
</svg>