<?xml version="1.0" encoding="UTF-8"?>
<svg id="Layer_1" xmlns="http://www.w3.org/2000/svg" xmlns:xlink="http://www.w3.org/1999/xlink" version="1.1" viewBox="0 0 160 160">
  <!-- Generator: Adobe Illustrator 30.0.0, SVG Export Plug-In . SVG Version: 2.1.1 Build 123)  -->
  <defs>
    <style>
      .st0 {
        fill: #40272d;
      }

      .st1 {
        fill: #f2f2f2;
      }

      .st1, .st2 {
        stroke: #40272d;
        stroke-miterlimit: 10;
      }

      .st3 {
        fill: url(#radial-gradient);
      }

      .st4, .st2 {
        fill: #fff;
      }
    </style>
    <radialGradient id="radial-gradient" cx="79.38" cy="80" fx="79.38" fy="80" r="73.34" gradientUnits="userSpaceOnUse">
      <stop offset=".24" stop-color="#fff"/>
      <stop offset=".25" stop-color="#f9f4f5"/>
      <stop offset=".32" stop-color="#debbc4"/>
      <stop offset=".4" stop-color="#c68999"/>
      <stop offset=".48" stop-color="#b25f75"/>
      <stop offset=".56" stop-color="#a23c57"/>
      <stop offset=".64" stop-color="#952240"/>
      <stop offset=".72" stop-color="#8c0f30"/>
      <stop offset=".8" stop-color="#860326"/>
      <stop offset=".89" stop-color="#850023"/>
    </radialGradient>
  </defs>
  <path class="st2" d="M-4.07,41.6"/>
  <path class="st2" d="M-5.24,112.27"/>
  <g>
    <path class="st3" d="M79.14,153.33c-32.92,0-58.16-24.05-67.67-46.39-1.6-3.75-5.85-13.73-5.4-26.93.56-16.43,8.06-34.5,20.07-48.35,9.9-11.4,27.17-25,53.26-25,40.43,0,73.33,32.9,73.33,73.33,0,19.78-8.07,38.38-22.73,52.37-13.89,13.25-32.33,20.89-50.6,20.96h-.25Z"/>
    <path class="st0" d="M79.4,7.17c40.16,0,72.83,32.67,72.83,72.83,0,19.64-8.02,38.11-22.58,52.01-13.8,13.16-32.11,20.75-50.26,20.82h-.25c-14.59,0-28.93-4.85-41.46-14.03-11.34-8.31-20.49-19.69-25.76-32.05-1.59-3.73-5.81-13.63-5.36-26.71.55-16.32,8.01-34.28,19.95-48.04,9.83-11.33,26.98-24.83,52.88-24.83M79.4,6.17C33.75,6.17,6.63,48.69,5.57,80c-.44,13.04,3.67,22.99,5.44,27.14,10.36,24.33,36.49,46.69,68.13,46.69.08,0,.17,0,.25,0,37.41-.14,73.83-31.51,73.83-73.83S120.17,6.17,79.4,6.17h0Z"/>
  </g>
  <g>
    <path class="st4" d="M79.4,108.53c-14.69,0-26.65-12.8-26.65-28.53s11.95-28.53,26.65-28.53,26.65,12.8,26.65,28.53-11.95,28.53-26.65,28.53Z"/>
    <path class="st0" d="M79.4,52.47c14.14,0,25.65,12.35,25.65,27.53s-11.51,27.53-25.65,27.53-25.65-12.35-25.65-27.53,11.51-27.53,25.65-27.53M79.4,50.47c-15.27,0-27.65,13.22-27.65,29.53s12.38,29.53,27.65,29.53,27.65-13.22,27.65-29.53-12.38-29.53-27.65-29.53h0Z"/>
  </g>
  <path class="st1" d="M46.82,14.83c3.42,2.87,9.27,8.55,13.45,17.58,4.43,9.56,4.82,18.18,4.71,22.7,2.23-1.15,4.52-2.3,6.93-3,2.34-.68,2.17-.98,2.47-3.41.25-2,.44-4.02.57-6.03.28-4.03.33-8.08.18-12.11-.16-4.16-.56-8.35-1.75-12.34s-3.2-7.81-6.23-10.67c-2.24.76-4.64,1.05-6.93,1.65-.86.22-3.66.88-6.81,2.29-.55.24-.47.23-4.35,2.24-1.59.82-2.9,1.5-3.77,1.95"/>
  <path class="st1" d="M8.92,62.73c4.73-.69,12.27-1.18,21.13.92,11.07,2.62,18.74,7.99,22.72,11.23.42-2.68,1.22-5.3,2.39-7.76.63-1.33,1.21-2.77,1-4.23-.91-6.33-7.31-14.53-14.02-18.64-8.39-5.14-16.95-5.53-21.55-5.34-1.54,2.48-2.77,4.57-3.65,6.09,0,0-4.9,8.48-6.73,13.27-.08.2-.26.74-.54,1.39-.04.1-.12.27-.2.51-.06.15-.14.41-.24.82-.17.7-.26,1.4-.31,1.73Z"/>
  <path class="st1" d="M20.76,122.9c2.35-3.57,7.62-10.57,17.02-15.7,9.82-5.36,18.97-5.86,23.26-5.82-1.27-1.32-2.27-2.54-3.02-3.54-1.46-1.92-2.29-3.39-2.51-3.78-.36-.64-.58-1.1-.69-1.32-.5-1.06-.84-1.98-1.06-2.66-4.99-2.54-10.31-4.32-15.77-5.54-2.11-.47-5.44-1.12-8.88-1.12-9.57,0-17.39,5.25-21.98,9.19.35,1.81.68,3.35.94,4.54.57,2.57.98,4.09,1.46,5.55.24.73.44,1.26.63,1.72.31.77.58,1.33,1.23,2.63.7,1.4,1.05,2.1,1.4,2.76,1.26,2.41,2.98,5.69,5.58,9.63.56.85,1.37,2.04,2.39,3.45Z"/>
  <path class="st1" d="M81.96,153.52c4.81-14.27,4.55-30.45-1.04-44.43-3.82.14-7.75-.42-11.33-1.78-3.63.75-6.41,3.62-8.77,6.48-7.38,8.93-13.3,19.77-13.31,31.35,1.42,1.17,3.18,2.01,4.88,2.72,9.46,3.93,19.71,6.35,29.93,5.71.03-.3.06-.6.08-.91"/>
  <path class="st1" d="M122.62,138.6c-.25-3.16-.51-6.38-1.7-9.33-.83-2.05-2.07-3.9-3.31-5.74-2.97-4.4-5.99-8.85-9.94-12.4s-8.99-6.17-14.31-6.17c1.33-.81,2.52-1.82,3.73-2.81.27-.22.53-.43.78-.67.53-.49.98-1.06,1.43-1.62.92-1.16,1.84-2.32,2.58-3.59,6.52-.58,13.41.53,19.3,3.38,2.44,1.18,4.74,2.64,7.02,4.1,5.47,3.5,11.13,7.35,14.03,13.15-1.06,2.76-2.93,5.21-4.84,7.47-.75.89-1.51,1.78-2.26,2.68-1.19,1.41-2.38,2.81-3.71,4.09-.63.6-1.29,1.17-1.94,1.74-2.22,1.93-4.63,3.78-6.86,5.72Z"/>
  <path class="st1" d="M149.89,60.35c2.62,8.79,3.48,18.09,2.52,27.21-.15,1.46-.31,3.14-.89,4.48-2.22-2.99-5.12-5.48-8.42-7.21-1.89-.99-3.89-1.74-5.93-2.38-4.99-1.57-10.2-2.54-15.43-2.51s-10.5,1.09-15.19,3.41c.1-3.31.32-6.71-.37-9.94-.27-1.28-.67-2.54-1.24-3.72,8.93-6.37,19.54-10.47,30.39-12.04,4.6-.67,10.28.88,14.55,2.7Z"/>
  <path class="st1" d="M134.1,31.49c-5.07-.42-10.21.78-14.78,3.02s-8.59,5.51-12.05,9.24c-.62.67-1.23,1.35-1.81,2.06-3.21,3.91-5.65,8.45-7.12,13.29-2.22-3.24-5.92-5.83-9.75-6.71-.94-.22-1.28-.35-2.17-.71-.33-3.02.08-6.37.68-9.35,1.41-6.98,3.05-14.08,6.82-20.12,1.09-1.74,2.34-3.38,3.74-4.88.64-.69,1.32-1.35,2.07-1.92,2.39-1.8,5.45-2.54,8.44-2.6,1.9-.04,3.45,1.59,5.16,2.42,1.35.65,2.7,1.3,3.98,2.08.98.59,1.91,1.25,2.84,1.91,5,3.55,10.11,7.47,13.94,12.26Z"/>
</svg>