<?xml version="1.0" encoding="UTF-8"?>
<svg id="Layer_1" xmlns="http://www.w3.org/2000/svg" version="1.1" viewBox="0 0 1024 768">
  <!-- Generator: Adobe Illustrator 30.0.0, SVG Export Plug-In . SVG Version: 2.1.1 Build 123)  -->
  <defs>
    <style>
      .st0, .st1 {
        fill: none;
      }

      .st2, .st3, .st4, .st5 {
        fill: #adc2b7;
      }

      .st2, .st6, .st1, .st7, .st8, .st9, .st10 {
        stroke-miterlimit: 10;
      }

      .st2, .st1, .st9 {
        stroke: #a8b3b3;
      }

      .st11 {
        fill: #ccd4d5;
      }

      .st12, .st13 {
        fill: #8ec2b7;
      }

      .st12, .st14, .st10 {
        opacity: .1;
      }

      .st13, .st5, .st15 {
        opacity: .3;
      }

      .st3, .st8 {
        opacity: .7;
      }

      .st4 {
        opacity: .5;
      }

      .st6 {
        opacity: .2;
      }

      .st6, .st7, .st8, .st10 {
        stroke: #cbc5b0;
      }

      .st6, .st7, .st10 {
        fill: #fefbe3;
      }

      .st16 {
        fill: #a8b3b3;
      }

      .st17, .st9 {
        fill: #c6cfcb;
      }

      .st15 {
        fill: #e0ebe9;
      }

      .st8 {
        fill: #f5efd9;
      }

      .st14 {
        fill: #e0f9ff;
      }

      .st18 {
        fill: #f3f6f9;
      }
    </style>
  </defs>
  <rect class="st14" x=".47" y="2.62" width="1020.48" height="769.35"/>
  <g>
    <path class="st8" d="M162.88,84.6c1.43-.69,2.9-1.29,4.3-2.04,6.31-3.4,10.57-9.59,16.02-14.24,2.37-2.03,4.99-3.77,7.2-5.98s4.04-4.98,4.31-8.09c-2,.16-3.61,1.66-4.96,3.15-3.44,3.8-6.33,8.11-10.06,11.63-1.01.95-2.08,1.84-3.14,2.73-1.42,1.18-2.84,2.37-4.26,3.55-1.8,1.5-3.61,3.01-5.48,4.42-5.09,3.84-10.7,7-15.48,11.23-.4.35-.69.68-.79,1.19,1.22.36,4.83-3.08,5.98-3.84,2.04-1.36,4.14-2.63,6.35-3.69Z"/>
    <g>
      <path class="st17" d="M195.02,198.06c-2.05,0-4.02-.36-5.87-1.08-5.9-2.28-10.76-8.49-12.39-15.84-1.35-6.09-.13-11.65,3.35-15.26,2.45-2.54,6.78-4.33,10.97-6.07,3.14-1.3,6.38-2.64,8.74-4.28,6.82-4.74,12.88-10.66,18.73-16.39l32.08-31.37c2.3-2.25,4.91-4.8,8.18-5.74,1.02-.29,2.1-.43,3.31-.43,1.45,0,3.01.2,5.05.64,6.24,1.35,10.75,3.59,13.8,6.85,6.59,7.06,5.58,18.65,1.16,26.44-4.79,8.45-13.09,14.55-20.41,19.93l-44.48,32.67c-6.68,4.91-14.55,9.93-22.23,9.93h0Z"/>
      <path class="st16" d="M262.13,102.1c1.41,0,2.94.19,4.94.63,6.13,1.32,10.56,3.52,13.54,6.71,6.43,6.89,5.42,18.22,1.09,25.85-4.73,8.36-12.99,14.42-20.27,19.77l-22.24,16.33-22.24,16.33c-6.62,4.86-14.4,9.83-21.94,9.83-1.98,0-3.9-.35-5.69-1.04-5.75-2.22-10.49-8.29-12.08-15.48-1.31-5.92-.14-11.32,3.22-14.81,2.38-2.47,6.66-4.24,10.8-5.95,3.16-1.31,6.43-2.66,8.84-4.33,6.86-4.76,12.93-10.7,18.8-16.44l.33-.33,23.77-23.24,7.98-7.81c2.26-2.21,4.82-4.71,7.97-5.62.97-.28,2.01-.41,3.17-.41M262.13,101.1c-1.17,0-2.32.13-3.45.45-3.31.95-5.92,3.45-8.39,5.86-10.58,10.35-21.17,20.7-31.75,31.05-6,5.87-12.09,11.86-19,16.66-5.43,3.77-15.39,5.84-19.79,10.41-8.62,8.96-2.36,27.44,9.22,31.91,2,.77,4.02,1.11,6.05,1.11,7.88,0,15.84-5.11,22.53-10.03,14.83-10.89,29.65-21.78,44.48-32.67,7.78-5.72,15.79-11.68,20.55-20.09,4.76-8.4,5.36-19.97-1.23-27.03-3.63-3.89-8.86-5.88-14.06-7-1.69-.36-3.43-.65-5.15-.65h0Z"/>
    </g>
    <path class="st2" d="M256.18,102.3c-13.04,1.56-25.53,7.39-35.1,16.39-3.71,3.49-6.99,7.44-10.96,10.64-2.87,2.31-6.06,4.2-8.97,6.46-5.19,4.04-9.37,9.21-12.97,14.68-1.85,2.81-3.36,5.83-5.2,8.63s-3.74,5.29-4.81,8.45c1.57-1.55,3.3-2.94,5.16-4.13,4.73-3.03,10.18-5.11,15.19-7.72,1.07-.56,2.14-1.12,3.14-1.8,1.2-.82,2.28-1.8,3.36-2.77,4.57-4.14,9.14-8.28,13.4-12.72,11.83-12.32,25-23.12,37-35.34.25-.26.51-.52.76-.78Z"/>
    <path class="st9" d="M179.09,165.66c2.17-.8,4.15-2.1,5.75-3.76,1.62-1.69,2.83-3.71,4.08-5.69,2.76-4.36,5.77-8.55,9.02-12.55,1.3-1.61,2.66-3.2,4.33-4.43,1.27-.94,2.7-1.65,3.98-2.57,2.21-1.59,3.96-3.79,6.27-5.23,1.8-1.12,3.89-1.75,5.67-2.91,1.51-.98,2.74-2.32,4.02-3.59,6.44-6.36,14.29-11.07,22.06-15.72,3.69-2.21,7.59-3.44,10.99-6.07-6.37.68-12.61,2.56-18.3,5.5-6.83,3.53-12.77,8.52-18.65,13.48-5.45,4.59-10.91,9.19-16.36,13.78-4.14,3.49-8.31,7.01-11.72,11.22-4.33,5.36-7.28,11.67-10.2,17.91,1.35-1.61,3.17-2.82,5.19-3.42"/>
    <path class="st1" d="M204.6,159.08c2.72-1.86,5.46-3.73,7.89-5.97,2.6-2.39,4.82-5.15,7.17-7.79,2.88-3.24,5.95-6.3,9.02-9.36,3.96-3.95,7.92-7.9,11.88-11.84,5.24-5.22,10.48-10.45,15.89-15.49,1.96-1.83,3.99-3.69,5.21-6.09-2.04-.96-4.53-.41-6.43.82s-3.32,3.04-4.75,4.78c-8.12,9.86-17.55,18.54-26.95,27.18-4.35,4-8.7,8.01-13.06,12.01-3.18,2.92-6.38,5.86-10.04,8.15-5.93,3.71-12.9,5.63-18.43,10-2.64,2.09-5.14,5.38.14,4.52,3.82-.62,7.47-2.04,10.92-3.79,4.04-2.05,7.81-4.58,11.55-7.14Z"/>
    <path class="st2" d="M187.09,196.17c2.82,3.49,7.39,5.48,11.87,5.17,2.79-.19,5.45-1.21,8.02-2.3,27.93-11.81,50.8-32.84,72.5-54.02,4.15-4.05,8.69-8.18,10.3-13.75.75-2.6.5-5.43-.56-7.91-.54-1.27-1.29-2.45-2.23-3.46-1.71-1.84-1.49-.17-1.7,1.51-.8,6.23-3.46,12.21-7.58,16.94-2.22,2.55-4.83,4.73-7.08,7.25-1.13,1.26-2.17,2.61-3.25,3.92-1.47,1.78-3.02,3.49-4.64,5.12-1.46,1.47-2.95,2.18-4.55,3.36-3.88,2.85-7.31,6.2-11.42,8.75-5.58,3.46-10.57,8.13-15.96,11.89-4.53,3.16-8.45,7.06-13.02,10.18-1.84,1.26-3.68,2.52-5.53,3.78-.27.18-.67.35-.87.09-1.08.12-1.73.38-2.66.96-2.28,1.44-4.65,2.74-7.09,3.89-.95.45-1.95.88-3,.79-1.46.06-3.41.04-4.87.1-2.44.1-4.86-.66-6.69-2.27Z"/>
    <path class="st11" d="M229.42,153.17c4.88-4.38,9.77-8.77,13.98-13.79,8.31-9.89,14.05-22.23,24.51-29.81,1.04-.76,2.23-1.49,3.51-1.38,2,.17,3.22,2.23,4.09,4.04,1.05,2.18,2.13,4.64,1.39,6.94-.4,1.23-1.27,2.24-2.13,3.22-6.19,7.05-12.37,14.11-18.56,21.16-3.41,3.88-6.84,7.8-10.94,10.95-3.71,2.86-7.89,5.03-12.05,7.18-3.74,1.93-7.48,3.84-11.23,5.74-1.93.98-6.69,4.91-7.91,2.13-1.82-4.15,12.61-13.93,15.33-16.37Z"/>
    <path class="st3" d="M288.78,134.11c.47,9.78,5.45,18.75,11.04,26.79,9.64,13.85,21.52,26.15,35.03,36.26,7.63,5.71,15.75,10.72,23.86,15.71,22.15,13.65,44.47,27.38,68.83,36.51,34.54,12.94,74.92,3.11,109.88,14.88,36.12,12.16,67.66,34.75,98.59,57.02,25.18,18.13,50.36,36.25,75.54,54.38,33.34,24,66.67,48,100.01,72,36.75,26.45,74.31,48.41,56.76,100.14-5.51,16.23-14.7,30.11-22.13,45.37-5.8,11.9-8.6,22.27-18.58,32.11-9.69,9.55-19.45,19.03-29.28,28.43-13.24,12.66-26.77,25.29-42.62,34.49s-34.4,14.79-52.54,12.19c-16.75-2.4-31.7-11.45-46.11-20.31-25.75-15.82-51.5-31.63-76.77-48.21-72.11-47.32-140.16-100.8-203.17-159.69-15.07-14.08-24.28-24.95-28.71-44.8-4.41-19.76-5.88-41.27-12.92-60.3-3.82-10.33-9.73-19.73-15.28-29.23-15.45-26.43-28.51-54.33-46.05-79.42-17.54-25.09-40.4-47.73-69.14-58.26,31.79-16.87,60.5-38.6,83.79-66.03Z"/>
    <path class="st7" d="M134.32,103.37c-2.7-3.09-5.54-7.06-4.18-10.93.62-1.75,2.01-3.1,3.36-4.38,9.53-9.01,19.05-18.03,28.58-27.04,2.98-2.82,6.05-5.7,9.82-7.34,7.03-3.05,15.41-1.18,21.88,2.92s11.41,10.16,16.24,16.11c9.83,12.13,19.96,24.04,29.1,36.7.73,1.01,3.14,3.36,3.24,4.58.12,1.49-.9,1.85-2.11,2.89-2.95,2.54-5.77,5.27-8.58,7.96-5.64,5.39-11.12,10.96-16.41,16.69-1.65,1.79-3.29,3.6-5.08,5.25-5.07,4.68-11.2,8.01-17.27,11.29-.96.52-1.95,1.05-3.04,1.2-3.91.54-4.86-3.59-6.83-5.9-3-3.51-5.98-7.09-9.43-10.18-4.68-4.19-9.27-8.48-13.77-12.87-8.86-8.64-17.37-17.64-25.52-26.96Z"/>
    <path class="st0" d="M294.43,119.47l1.08,1.08"/>
    <path class="st6" d="M277.33,147.42c-16.44,17.34-34.95,32.73-55.01,45.72,15.33,10.21,27.4,24.48,39.55,38.32,45.36,51.63,94.77,99.69,147.63,143.61,107.95,89.69,203.32,194.92,325.5,263.96,3.94,2.23,8.14,4.49,12.66,4.44,4.94-.05,9.4-2.84,13.39-5.75,9.46-6.92,17.98-15.12,25.25-24.32,3.71-4.69,7.24-10.85,4.85-16.33-1.13-2.6-3.42-4.48-5.64-6.25-74.31-59.33-159.42-104.01-233.68-163.39-20.43-16.34-39.98-33.74-59.51-51.13-39.41-35.09-78.83-70.18-117.82-105.74-38.86-35.44-78.48-73.98-97.17-123.14Z"/>
    <path class="st4" d="M692.26,676.51c-.48,1.64-.9,3.44-.21,5,1.37,3.13,5.79,3.05,9.14,2.35,22.33-4.68,43.65-14.11,62.13-27.49,30.77-22.28,52.73-54.48,72.67-86.82,12.23-19.83,24.4-42.08,20.89-65.11-17.4,10.22-31,25.68-44.29,40.86-11.42,13.05-22.83,26.1-34.25,39.15,9.18,1.16,16.17,11.23,14.03,20.24-.92,3.89-3.21,7.31-5.5,10.59-10.1,14.42-22.66,29.02-39.9,32.56-.24-1.59-1.97-2.43-3.47-3-11.92-4.53-22.06-12.9-32.08-2.33-8.95,9.45-15.55,21.54-19.16,34Z"/>
    <path class="st8" d="M241.85,114.28c-6.54-3.8-12.44-8.68-17.4-14.39-2.9-3.34-5.19-7.44-8.37-10.5-2.65-2.55-6.37-3.49-9.22-5.76-3.15-2.51-4.87-6.41-7.79-9.18-5.27-4.99-13.27-5.38-20.52-5.49-2.46-.04-4.95-.07-7.35.48-6.35,1.46-11.02,6.69-16.48,10.24-4.04,2.63-8.57,4.35-13.1,5.91-4.29,1.48-7.53,4.88-11.74,6.71-.15,2.01.75,3.94,2.08,5.46,15.57,17.84,32.25,34.71,49.91,50.47,2.58,2.31,4.52,5.33,6.72,8.01.59.73,1.33,1.52,2.27,1.48.82-.03,1.45-.7,2.05-1.26,2.89-2.72,6.84-3.94,10.24-5.98,4.17-2.5,7.45-6.2,10.77-9.74,8.63-9.19,17.96-18.76,27.94-26.46Z"/>
    <path class="st5" d="M463.11,302.89c18.45,7.5,38.28,10.85,57.5,16.06,80.08,21.69,147.7,74.83,208.75,131.01,4.11,3.78,9.27,7.87,14.66,6.41,6.26-1.7,8.23-10.12,6-16.2-1.35-3.66-3.71-6.85-6.1-9.94-36.95-47.86-86.06-85.14-138.2-115.77-17.49-10.27-35.55-19.93-55.03-25.55-24.44-7.04-50.25-7.48-75.26-12.11-17.66-3.27-34.86-8.64-51.63-15.01-15.68-5.96-32.41-16.89-48.56-20.21,3.8,11.1,31.6,26.25,41.73,33.79,14.4,10.72,29.46,20.74,46.15,27.52Z"/>
    <path class="st13" d="M652.59,655.63c5.45,4.07,10.42,8.97,16.68,11.63,6.52,2.77,13.82,2.85,20.9,2.89,6.04.03,12.11.06,18.11-.61,29.29-3.28,54.32-22.89,73.49-45.27,6.37-7.44,12.3-15.28,17.49-23.58,6.51-9.76,11.38-20.56,17.73-30.43,5.66-8.79,12.6-15.66,18.08-24.77,2.21-3.67,4.48-7.52,4.82-11.79.23-2.82-.39-5.78.64-8.41.96-2.46,3.17-4.16,4.93-6.13s3.17-4.77,2.1-7.18c-3.12,1.26-6.33,2.58-8.69,4.97-1.46,1.48-2.53,3.29-3.73,4.99-3.41,4.81-8.43,7.82-12.08,12.23-4.23,5.09-8.31,9.97-13.13,14.6-7.39,7.11-14.81,14.25-23.08,20.31-5.73,4.2-11.99,8.03-16.03,13.87-4.18,6.05-6.07,14.28-12.54,17.76-2.32,1.25-4.98,1.71-7.39,2.78-7.06,3.15-11.31,11.23-18.75,13.31-4.46,1.25-9.61.16-13.5,2.68-2.11,1.37-3.51,3.62-5.54,5.1-6.76,4.93-16.18-.57-24.5.3-4.4.46-8.44,2.74-12.83,3.24-6.63.76-13.26-2.61-19.86-1.62-4.5.68-8.52,3.32-13.02,3.98-2.31.34-4.67.13-7-.12-7.98-.86-16.1-3.18-24.05-3.53,1.09,3.35,4.74,8.28,7.49,10.72,2.79,2.48,5.78,4.41,9.13,6.01,8.31,3.96,16.59,6.42,24.14,12.06Z"/>
    <path class="st8" d="M186.29,56.43c1.97,1.25,3.94,2.5,5.79,3.93,2.42,1.87,4.6,4.03,6.7,6.24,6.3,6.61,12.03,13.8,18.92,19.78,1.78,1.55,3.65,3.01,5.22,4.78,1.29,1.44,2.36,3.06,3.47,4.64,3.29,4.66,7.05,9.06,11.62,12.47-1.29-1.7-2.59-3.39-3.88-5.09-6.77-8.88-13.55-17.76-20.61-26.41-4.31-5.27-8.74-10.48-13.92-14.89-3.76-3.21-7.93-5.99-12.49-7.93-.78-.33-5.94-2.65-6.42-1.7s4.9,3.74,5.59,4.18Z"/>
    <path class="st15" d="M488.33,316.83c-.67,2.08-1.38,4.55-.07,6.3,1.04,1.41,2.96,1.76,4.63,2.29,7.09,2.26,11.81,9.3,18.86,11.69,1.86-11.35,3.54-23.1.62-34.23-.89-3.4-2.21-6.73-2.39-10.24-.16-3.2.63-6.37.66-9.57.02-2.96-.61-5.88-1.25-8.77-.24-1.08-.5-2.22-1.27-3.02-.98-1.03-2.53-1.24-3.95-1.37-3.8-.35-9.57-.92-12.89,1.48-4.11,2.97-.96,7.84-.29,12.36,1.64,11.04.75,22.45-2.65,33.08Z"/>
    <path class="st15" d="M485.7,341.49c.15-.36.31-.75.65-.96.45-.29,1.04-.14,1.55.02,5.52,1.78,10.57,4.98,14.55,9.19.79.83,1.54,1.73,1.96,2.79.6,1.52.44,3.22.24,4.84-.74,6.16-1.91,12.26-3.48,18.26-.56,2.15-1.43,4.57-3.5,5.36-1.85.71-3.96-.21-5.41-1.56s-2.49-3.08-3.88-4.49c-2.01-2.05-4.66-3.31-7.13-4.76-5.62-3.28-8.78-8.31-4.6-14.18,3.62-5.08,6.49-8.19,9.05-14.52Z"/>
    <path class="st10" d="M224.93,192.74c18.03-9,33.88-22.33,45.84-38.55,14.71,43.87,44.14,81.4,77.08,113.89,32.95,32.49,69.78,60.77,103.58,92.38,17.17,16.06,33.61,33.01,52.41,47.12,12.64,9.49,26.27,17.62,38.9,27.12,23.85,17.93,44.07,40.63,69.37,56.45,26.33,16.47,51.44,34.78,76.74,52.77,12.44,8.84,24.93,17.61,37.65,26.04,6.37,4.22,12.79,8.36,19.29,12.38,3.32,2.06,6.66,4.08,10.03,6.07,1.88,1.11,8.12,3.32,7.57,6.13-.19.96-.89,1.74-1.63,2.39-3.1,2.7-7.18,3.89-10.98,5.46-4.14,1.71-8.07,3.94-11.67,6.62-1.88,1.4-3.68,2.94-5.71,4.11-2.95,1.7-6.28,2.59-9.58,3.42-2.45.62-4.95,1.23-7.47,1.06-3.85-.26-6.47-3.06-9.46-5.18-65.73-46.52-128.99-96.55-189.41-149.79-21.98-19.37-43.22-41.46-64.58-61.53-13-12.21-26.12-24.29-39.24-36.36-33.34-30.69-66.69-61.38-100.03-92.07-29.34-27.01-59.36-52.93-88.7-79.94Z"/>
    <path class="st12" d="M760.7,603.04c-2.44,1.52-5.23,2.37-7.81,3.65-2.63,1.31-5.04,3.07-7.08,5.19-1.65,1.71-3.06,3.65-4.9,5.15-3.99,3.26-9.46,4.07-14.61,3.88-.85-.03-1.73-.09-2.54.2s-1.53,1-1.53,1.85c0,1.21,1.3,1.93,2.39,2.45,6.54,3.13,11.88,8.31,18.14,11.97,1.4.82,2.94,1.58,4.56,1.43.88-.08,1.7-.43,2.51-.79,9.69-4.37,18.18-11.35,24.36-20,1.1-1.55,2.14-3.15,3.37-4.59,1.31-1.53,2.82-2.87,4.33-4.2-.21.21-11.28-8.62-12.33-9.42-.86-.66-1.96-1.89-2.99-2.25-1.17-.41-1.13-.07-1.68.9-1.08,1.91-2.31,3.4-4.2,4.58Z"/>
  </g>
  <path class="st18" d="M659.53,691.15c4.06,2.34,8.45,5.09,9.8,9.57,3.13,10.35-11.15,16.63-21.91,17.77-59.52,6.32-119.49,6.8-179.35,7.28-25.1.2-50.38.39-75.1-4-41.55-7.36-79.43-27.23-115.32-48.62-16.71-9.96-34.12-14.33-51.28-23.24-16.94-8.8-32.28-20.32-48.29-30.64-21.01-13.55-43.32-25.1-66.52-34.43-9.09-3.66-18.58-7.13-25.77-13.8-27.82-25.83,11.84-61.69,33.69-72.5,2.83-1.4,5.83-2.7,8.98-2.62,5.71.15,10.21,4.66,14.34,8.6,26.72,25.45,63.22,37.85,99.25,45.82,35.09,7.76,70.21,13.19,104.57,23.98,33.99,10.67,73.42,8.09,108.85,14.02,36.15,6.05,71.85,17.13,100.76,40.19,31.02,24.74,68.74,42.71,103.27,62.62Z"/>
</svg>