<?xml version="1.0" encoding="UTF-8"?>
<svg id="Layer_1" xmlns="http://www.w3.org/2000/svg" version="1.1" viewBox="0 0 1366 768">
  <!-- Generator: Adobe Illustrator 30.0.0, SVG Export Plug-In . SVG Version: 2.1.1 Build 123)  -->
  <defs>
    <style>
      .st0, .st1, .st2, .st3, .st4, .st5, .st6, .st7, .st8 {
        fill: none;
      }

      .st1, .st9, .st10, .st3, .st4, .st11, .st5, .st12, .st6, .st7, .st13, .st14, .st8 {
        isolation: isolate;
      }

      .st1, .st15, .st16, .st17, .st2, .st3, .st4, .st5, .st6, .st7, .st18, .st8 {
        stroke-miterlimit: 10;
      }

      .st1, .st3, .st6, .st7, .st14 {
        opacity: .2;
      }

      .st1, .st8 {
        stroke: #42210b;
      }

      .st9 {
        fill: #2a1a1a;
        opacity: .7;
      }

      .st19, .st18 {
        fill: #5d443b;
      }

      .st15 {
        fill: #1d020d;
      }

      .st15, .st16, .st17, .st2, .st5, .st6, .st18 {
        stroke: #000;
      }

      .st10 {
        fill: #1d1a0d;
        opacity: .5;
      }

      .st20, .st16 {
        fill: #35210b;
      }

      .st17 {
        fill: #2a1a0d;
      }

      .st3, .st4 {
        stroke: #2a1a0d;
      }

      .st4 {
        opacity: .4;
      }

      .st11 {
        fill: #6f4831;
      }

      .st11, .st12, .st8 {
        opacity: .3;
      }

      .st5, .st13 {
        opacity: .1;
      }

      .st12 {
        fill: #42210b;
      }

      .st7 {
        stroke: #1d020d;
      }

      .st13, .st14 {
        fill: #3c2115;
      }
    </style>
  </defs>
  <rect class="st16" x="1.67" y="-2" width="1366.67" height="769.33"/>
  <path class="st18" d="M469.96-.67h897.04v764H4.33V-.67h364.7c45.66,0,145.53-17.9,165.13,41.66,2.79,8.47,3.46,18.85,10.92,23.73,2.65,1.73,5.98,2.58,7.99,5.03,4.74,5.78-1.41,14-2.06,21.45-.38,4.32,1.2,8.54,2.64,12.63,10.62,30.15,14.88,62.52,12.42,94.38,7.84,7.19,9.58,19.07,7.89,29.56s-6.25,20.29-9.2,30.51c-6.23,21.58-5.16,44.51-4.04,66.94.54,10.75,1.3,22.19,7.64,30.89,3.53,4.85,8.81,8.94,9.77,14.87,2.03,12.61-15.33,18.43-22.52,28.99-7.1,10.42-3.38,24.46.58,36.43,6.48,19.57,12.96,39.15,19.43,58.72,2.3,6.94,4.64,13.97,8.68,20.07,4.15,6.25,9.92,11.25,14.5,17.19,14.45,18.71,15.12,46.74,1.95,66.37,7.59,10.88,15.18,21.76,22.77,32.64,6.4,9.18,12.89,18.53,16.29,29.2,3.92,12.32,3.37,26.02-1.54,37.99-4.02,9.82-10.8,18.38-14.26,28.41-3.46,10.03-2.48,22.97,6.33,28.88,5.45,3.66,12.46,3.73,19.02,3.67,15.96-.14,31.92-.28,47.87-.41,1.81-18.11,3.61-36.59-.42-54.34-2.75-12.14-8.17-23.6-10.24-35.88-2.07-12.27.02-26.41,9.66-34.29-18.15-5.39-31.69-23.53-31.7-42.46,0-13.53,4.63-30.69-6.82-37.89-1.83-1.15-3.97-1.91-5.39-3.53-6.6-7.48,9.11-16.81,8.38-26.76-.51-6.86-8.26-10.22-14.19-13.7-12.48-7.35-20.64-21.51-20.75-35.99-.1-13.56,4.7-30.9-6.92-37.9,2.21-1.31,4.42-2.63,6.63-3.94-1.3-3.28-2.61-6.56-3.91-9.84,15.41-7.44,32.88-10.55,49.91-8.9-6.14-9.69,1.19-23.02,11.24-28.55s21.99-6.12,33-9.35c-7.46-14.5-8.08-32.34-1.65-47.33-11.92-8.63-28.89-.69-39.3,9.71s-19.2,23.79-33.22,28.28c-7.64-10.02-8.09-24.93-1.07-35.39-15.08-12.05-26.08-29.1-30.84-47.8-6.48-6.89-4.29-18.18.09-26.56s10.66-16.29,11.42-25.72c.52-6.44-1.64-12.78-2.19-19.23-2.38-27.93,25.24-53.33,18.76-80.6-10.92-4.97-17.23-17.06-18.48-29-1.24-11.93,1.75-23.87,4.98-35.42,4.42-15.85,9.94-32.52,22.71-42.89,19.7-15.99,49.39-11.52,71.62-23.74-83.41-.26-166.81-.52-250.22-.78"/>
  <path class="st11" d="M699.7,50.8c-4.23.49-8.85,1.23-11.66,4.43-2.65,3.03-2.93,7.4-3.07,11.42-1.34,38.13-2.67,76.25-4.01,114.38-.44,12.67-2.88,28.22-14.83,32.44,9.99,19.28,20.7,38.19,32.1,56.66,3.61,5.84,7.42,11.8,13.03,15.76,9.39,6.64,22.02,6.44,33.26,3.99,24.44-5.33,46.2-19.78,70.71-24.75,5.55-1.12,11.56-1.7,16.65.78,6.15,2.99,9.49,9.64,12.38,15.84,9.39,20.14,18.69,40.6,22.93,62.41s2.99,45.43-7.85,64.82c-12.08,21.6-34.13,35.28-53.95,50.1-21.77,16.28-41.76,34.94-59.5,55.54-9.86,11.45-19.56,25.34-17.44,40.3,3.01,21.21,26.61,31.42,44.13,43.74,13.99,9.84,25.52,23.14,33.28,38.38,1.27,2.49,2.65,5.24,5.23,6.32,3.79,1.59,7.88-1.23,11.03-3.88l126.72-106.5c-22.01-24.48-45.06-54.69-38.22-86.89,2.43-11.45,8.56-21.8,15.66-31.1,27.45-35.96,68.98-57.76,104.98-85.16,4.48-3.41,9.39-8.43,7.65-13.79-.92-2.85-3.52-4.76-5.33-7.15-4.03-5.31-3.94-12.54-4.84-19.15-2.59-19.04-14.51-35.47-27.49-49.64-31.5-34.38-71.71-60.71-115.82-75.84-4.37-1.5-8.83-2.92-12.71-5.43-4.08-2.64-7.33-6.38-10.28-10.25-9.99-13.09-17.25-28.25-21.18-44.24-3.41-13.88-3.17-31.07,8.41-39.47,6.4-4.64,14.76-5.36,22.66-5.62,49.53-1.63,99.42,8.87,144.09,30.32,32.31,15.51,62.56,36.87,97.68,44,3.16.64,6.79,1.05,9.28-.99,2.48-2.03,2.79-5.65,2.87-8.85.76-29.11-1.6-58.3-7.01-86.92-.28-1.46-.58-2.97-1.46-4.16-1.83-2.49-5.38-2.77-8.46-2.82-60.02-1.03-120.04-2.06-180.06-3.09-38.27-.66-78.53-1.48-114.93,12.19-35.95,13.51-76.15,7.36-114.62,11.84v.03Z"/>
  <path class="st12" d="M1340.45,215.56c.39-4.24.62-8.92-1.94-12.32-2.42-3.22-6.64-4.39-10.55-5.35-37.03-9.16-74.07-18.32-111.1-27.47-12.31-3.04-27.02-8.62-28.69-21.19-20.92,5.8-41.63,12.39-62.06,19.74-6.46,2.33-13.07,4.84-18.11,9.51-8.43,7.82-10.83,20.22-10.75,31.72.18,25.01,9.84,49.28,9.65,74.29-.04,5.66-.72,11.66-4.19,16.13-4.19,5.41-11.38,7.3-18.05,8.86-21.64,5.04-43.58,9.93-65.8,9.59-22.22-.35-45.07-6.43-61.82-21.03-18.65-16.27-27.5-40.66-37.92-63.11-11.45-24.66-25.59-48.06-42.1-69.66-9.17-12.01-20.77-24.36-35.84-25.36-21.37-1.42-36.22,19.58-51.89,34.18-12.51,11.66-27.9,20.21-44.41,24.66-2.7.73-5.67,1.51-7.26,3.81-2.33,3.39-.42,7.97,1.52,11.59,26.04,48.64,52.08,97.29,78.12,145.93,28.48-16.49,62.8-32.83,92.9-19.51,10.7,4.74,19.57,12.86,27.21,21.73,29.54,34.27,42.31,79.4,61.72,120.26,2.41,5.08,6.32,10.93,11.91,10.33,2.98-.32,5.39-2.46,8.09-3.74,6.03-2.85,13.08-1.27,19.74-.79,19.16,1.39,37.7-6.89,54.23-16.68,40.13-23.75,74.17-57.68,98.06-97.72,2.37-3.97,4.67-8.04,7.93-11.32,3.43-3.45,7.75-5.85,12.14-7.95,14.87-7.08,31.2-11.07,47.66-11.62,14.29-.48,31.06,3.3,36.89,16.35,3.22,7.22,2.21,15.55.84,23.33-8.61,48.8-29.15,95.46-59.34,134.76-21.83,28.42-48.96,53.63-63.17,86.53-1.28,2.96-2.43,6.43-.94,9.29,1.48,2.84,4.95,3.89,8.07,4.63,28.33,6.73,57.38,10.44,86.5,11.04,1.48.03,3.02.04,4.37-.57,2.81-1.28,3.81-4.69,4.5-7.7,13.37-58.52,26.74-117.05,40.1-175.57,8.52-37.31,17.62-76.54,11.74-114.98-5.82-37.96,8.48-76.03,12.02-114.6l.02-.02Z"/>
  <path class="st11" d="M459.44,484.01c3.52-2.39,7.28-5.18,8.29-9.32.95-3.91-.82-7.92-2.56-11.55-16.44-34.43-32.87-68.85-49.31-103.28-5.46-11.44-10.49-26.35-1.84-35.62-17.77-12.48-36-24.3-54.65-35.41-5.9-3.52-12.04-7.03-18.84-7.95-11.39-1.54-22.5,4.47-31.34,11.83-19.21,16.02-31.83,38.89-51.27,54.63-4.4,3.56-9.46,6.84-15.12,7.01-6.84.19-12.87-4.16-18.3-8.32-17.63-13.52-35.34-27.36-49.18-44.75-13.84-17.39-23.65-38.9-22.99-61.12.73-24.74,13.96-47.06,24.69-69.36,11.78-24.5,20.88-50.29,27.1-76.75,3.45-14.71,5.63-31.51-3.16-43.79-12.47-17.42-38.12-15.56-59.35-18.39-16.95-2.26-33.33-8.73-47.25-18.66-2.28-1.62-4.77-3.42-7.55-3.19-4.1.35-6.42,4.73-7.99,8.53-21.05,51-42.1,102-63.15,153,30.83,11.54,65.24,27.68,74.05,59.39,3.13,11.28,2.49,23.28.49,34.82-7.73,44.58-34.48,83.1-53.73,124.04-2.39,5.09-4.43,11.82-.42,15.76,2.13,2.1,5.32,2.6,8.03,3.88,6.03,2.85,9.29,9.3,13.14,14.75,11.09,15.69,29.26,24.75,47.32,31.31,43.82,15.93,91.65,20.69,137.76,13.73,4.57-.69,9.18-1.5,13.78-1.06,4.84.46,9.45,2.27,13.85,4.34,14.91,6.99,28.36,17.08,39.23,29.45,9.44,10.73,17.17,26.09,10.78,38.88-3.53,7.07-10.61,11.58-17.5,15.46-43.17,24.33-92.26,38.08-141.79,39.7-35.82,1.17-72.52-3.78-106.96,6.13-3.1.89-6.51,2.21-7.77,5.17-1.26,2.95.14,6.3,1.54,9.17,12.78,26.17,28.36,50.96,46.39,73.84.92,1.17,1.89,2.36,3.22,3.02,2.77,1.36,6.04-.03,8.81-1.41,53.7-26.83,107.41-53.65,161.11-80.48,34.24-17.1,70.33-34.98,96.28-63.93,25.64-28.6,64.13-41.72,96.17-63.47v-.03Z"/>
  <path class="st0" d="M328.29,454.73c2.9,1.45,6.16,2.89,9.3,2,2.96-.84,4.98-3.54,6.76-6.07,16.88-23.97,33.76-47.94,50.63-71.92,5.61-7.97,13.69-16.96,23.09-14.69,1.74-16.56,2.86-33.19,3.35-49.83.16-5.26.23-10.68-1.68-15.57-3.2-8.18-11.33-13.31-19.53-16.42-17.82-6.75-37.77-6.52-55.48-13.54-4.01-1.59-8.08-3.72-10.29-7.43-2.67-4.49-2-10.15-1.24-15.35,2.48-16.87,5.15-33.91,11.62-49.7s17.19-30.47,32.26-38.43c16.78-8.87,36.59-8.48,55.45-9.76,20.72-1.41,41.31-5.08,61.28-10.95,11.1-3.26,23.12-8.15,28.06-18.66,7-14.9-3.76-31.3-9.75-46.52-4.78-12.16-6.54-25.52-5.08-38.55.24-2.13.51-4.47-.68-6.24-1.75-2.6-5.54-2.49-8.66-2.1-41.85,5.24-83.7,10.49-125.55,15.73,3.74,24.91,5.74,53.96-12.16,71.82-6.36,6.35-14.62,10.46-23.05,13.49-32.62,11.7-68.25,8.42-102.72,11.06-4.29.33-9.53,1.52-10.67,5.68-.61,2.22.24,4.53.39,6.82.34,5.1-2.76,9.71-4.97,14.34-6.35,13.33-5.66,28.86-3.34,43.38,5.63,35.24,20.2,68.93,41.96,97.03,2.16,2.79,4.41,5.56,5.82,8.79,1.49,3.4,1.99,7.16,2.24,10.87.87,12.58-.88,25.36-5.09,37.29-3.66,10.35-11.04,21.31-21.95,21.89-6.03.32-11.67-2.7-16.81-5.82-32.26-19.59-59.65-47.12-79.12-79.53-14.08-23.44-24.39-49.78-43.78-68.99-1.74-1.73-3.89-3.51-6.33-3.23-2.43.28-4.15,2.47-5.55,4.5-12.72,18.41-23.49,38.18-32.07,58.84-.44,1.05-.88,2.15-.82,3.29.12,2.36,2.26,4.02,4.21,5.34,37.83,25.66,75.66,51.33,113.5,76.99,24.12,16.36,49.44,33.67,78.4,40.03,28.6,6.29,51.64,26.98,78.05,40.13h0Z"/>
  <path class="st14" d="M1115.32,120.51c-16.29,15.06-32.58,30.12-48.87,45.18-7.79,7.2-15.79,14.7-20,24.44-11.3,26.14,8.6,55.92,4.77,84.14-4.13,30.39-33.31,49.65-54.26,72.05-43.25,46.26-61.1,120.27-120.08,143.32-25.29,9.89-55.24,8.54-77.06,24.71-17.19,12.74-25.91,34.42-27.75,55.73s2.34,42.63,6.51,63.61c2.35,11.82,5.31,24.69,14.82,32.1,6.78,5.29,15.77,6.79,24.36,6.96,23,.45,45.3-7.36,68.11-10.38s48.8.02,63.85,17.42c7.26,8.39,11.14,19.23,18.07,27.9,20.06,25.12,58.22,24.81,89.58,17.76,33.53-7.53,71.16-26.51,74.86-60.67,3.65-33.64-27.66-59.82-56.43-77.63s-61.83-39.21-65-72.89c-1.76-18.68,6.54-36.67,14.63-53.6,19.95-41.74,42.74-86.44,84.28-106.81,17.92-8.79,38.09-12.24,58.05-12.49,22.72-.29,48.32,5.22,60.39,24.48,14.35,22.9,2.85,52.45-7.17,77.55-31.81,79.66-45.96,165.06-59.9,249.69-1.4,8.52-2.74,17.62.75,25.51,4.3,9.72,14.84,15.09,25.08,17.93,29.31,8.11,62.45.73,85.54-19.05,23.1-19.78,35.48-51.4,31.96-81.6-1.52-13.06-5.78-25.63-10.01-38.08-15.82-46.56-31.72-93.33-54.52-136.9-3.17-6.06-6.53-12.25-7.25-19.04-1.82-17.14,13.05-30.97,26.54-41.71,10.25-8.16,21-16.56,33.82-19.24,7.32-1.53,14.91-1.1,22.33-2.1,27.57-3.71,50.75-31.66,45.63-59s-41.28-44.69-64.12-28.82c-11.18,7.77-18.18,21.41-30.9,26.27-12.19,4.65-25.94-.28-37.17-6.92-23.39-13.84-41.86-34.98-65.53-48.32s-57.2-16.47-75.19,3.9c6.94-36.12,17.62-77.3,50.82-93.13,12.49-5.95,26.61-7.32,40.39-8.6,30.96-2.87,62.52-5.71,92.89,1,14.5,3.2,30.73,8.3,43.31.41,5.25-3.3,9.01-8.46,12.42-13.64,11.73-17.84,20.98-38.02,21.92-59.35.94-21.33-7.66-43.89-25.43-55.72-34.22-22.77-62.71,12.61-93.75,18.74-47.31,9.34-79.96,32.27-115.26,64.9h-.03Z"/>
  <path class="st14" d="M262.06,731.23c21.88-4.17,43.26-12.15,65.53-12.31,35.12-.25,67.75,18.93,102.76,21.6,31.73,2.42,62.72-8.82,92.55-19.88,22.29-8.26,47.3-19.28,54.39-41.97,9.66-30.92-20.08-60.04-24.25-92.17-2.57-19.75,3.6-43.38-10.8-57.14-6.01-5.74-14.48-8.18-22.74-9.08-36.23-3.92-73.36,21.83-82.39,57.14s11.17,75.72,44.83,89.68c6.61,2.74,15.04,6.56,14.55,13.69-.34,4.82-4.87,8.12-9.05,10.55-15.75,9.18-32.77,16.16-50.43,20.7-12.6,3.23-27.23,4.83-37.51-3.13-6.65-5.15-10.1-13.32-12.96-21.23-7.51-20.84-12.75-42.49-15.59-64.46-1.97-15.22-3.72-32.4-15.75-41.94-16.62-13.18-43.44-1.47-52.31,17.79-8.87,19.26-4.63,41.92,1.98,62.08,2.22,6.76,4.44,14.93-.15,20.35-2.49,2.93-6.38,4.19-10.08,5.23-25.77,7.23-52.69,10.32-79.43,9.12-14.23-.64-29.89-3.27-38.86-14.33-5.91-7.29-7.79-16.98-8.82-26.3-5.21-47.17,6.36-96.16-6.96-141.71-6.42-21.94-18.41-45.66-8.42-66.23,6.11-12.58,19.08-20.23,27.8-31.17,12.61-15.82,15.4-37.09,23.5-55.63,15.13-34.6,47.74-57.77,78.86-79.17,35.68-24.54,72.9-49.72,115.64-56.71,17.39-2.84,36.31-2.25,51.17,7.24,27.91,17.82,29.9,58.21,21.3,90.19s-24.69,63.19-21.94,96.18c.57,6.85,2.05,13.83,5.93,19.5,10.02,14.63,33.02,14.84,47.58,4.74,14.57-10.11,22.39-27.26,28.27-43.99,16.61-47.33,21.99-102.81-4.67-145.3-9.4-14.98-22.56-28.02-27.8-44.9-5.95-19.17-.61-39.97,6.75-58.64-47.54-6.77-95.61-9.77-143.63-8.98-37.08.62-81.69,8.71-95.24,43.23-6.01,15.3-4.14,32.65-9.04,48.33s-22.38,30.21-36.78,22.31c-9.19-5.04-12.26-16.52-14.46-26.77-10.53-49.14-20.89-101.36-3.91-148.66,1.69-4.71,3.67-9.72,2.41-14.56-2.03-7.77-11.88-11.21-19.64-9.13s-13.8,8.01-19.46,13.71c-20.54,20.67-42.78,46.67-36.69,75.16,3.8,17.78,17.87,31.17,28.5,45.93s17.92,35.62,7.46,50.48c-7.73,10.98-22.99,15.12-29.73,26.74-7.03,12.13-2.83,29.3-12.25,39.69-5.92,6.52-15.37,8.16-23.17,12.24-27.21,14.24-28.08,53.33-18.34,82.46,9.74,29.12,26.48,58.15,21.38,88.44-4.22,25.07-24.77,46.58-49.62,51.93-3.26,11.21,3.54,23.08,12.34,30.75,8.8,7.67,19.64,12.7,28.49,20.31,14.43,12.39,22.42,30.49,29.96,47.95,5.03,11.66,9.3,27.16-.32,35.45-3.84,3.31-9.05,4.46-14.04,5.37-31.2,5.69-61.53,4.4-92.9,3.11-3.78,42.92,53.44,34.51,80.05,37.04,55.23,5.26,110.58,19.69,166.14,9.11v-.03Z"/>
  <path class="st20" d="M1086.51,93.47c-6.81,10.86-13.17,23.06-11.89,35.81,1.62,16.23,15.13,29,18.64,44.94,4.17,18.93-6.44,37.81-18.06,53.33-31.05,41.48-72.59,75.04-119.66,96.7-6.12,2.82-12.59,5.62-16.82,10.87-4.02,5-5.47,11.53-6.79,17.81-10.09,47.77-20.19,97.2-10.19,144.98,3.76,17.96,10.32,35.33,12.83,53.51,1.13,8.15,1.45,16.51,4.18,24.27,2.69,7.67,7.57,14.33,11.97,21.16,24.17,37.53,34.85,83.55,29.67,127.89,19.66-3.87,37.37-16.7,47.18-34.17,2.93-5.22,5.22-11.05,4.96-17.03-.97-21.75-30.84-28.35-43.31-46.2-13.27-19-3.73-44.73-3.38-67.9.38-25.2-10.78-49.04-22.97-71.09-7.46-13.5-15.58-27.27-17.13-42.62-1.66-16.4,4.42-32.58,11.61-47.41,14.01-28.91,35.96-57.76,67.54-63.68,25.77-4.83,55.39,6.13,76.98-8.74,17.6-12.12,21.58-36.09,33.38-53.91,8.06-12.18,20.39-22.54,22.61-36.97,1.23-7.99-.9-16.08-3.02-23.88-8.39-30.94-16.78-61.87-25.17-92.81-.83-3.06-1.65-6.39-.42-9.31,1.27-3.04,4.4-4.81,7.38-6.23,36.92-17.58,88.24-10.06,108.59,25.41,8.17,14.23,10.56,30.95,12.8,47.21,14.34,104.11,28.72,208.7,27.21,313.79-.07,4.55.12,9.75,3.62,12.66,2.08,1.73,4.91,2.23,7.62,2.43,28.07,2.02,50.96-20.93,69.58-42.03-19.97-4.47-42.33,6.54-50.96,25.1-12.66-13.04-2.39-35.3-7.78-52.65-1.68-5.4-4.89-10.23-6.58-15.63-4.29-13.65,1.61-28.12,4.25-42.18,7.84-41.64-13.15-82.91-17.35-125.08-3.59-36,5.15-71.96,7.88-108.03.41-5.38.67-10.89-.84-16.06-1.78-6.12-5.86-11.27-9.85-16.24-5.67-7.06-11.33-14.11-17-21.17-2.47-3.07-5.04-6.23-8.55-8.03-3.01-1.54-6.46-1.94-9.84-2.02-9.8-.22-19.52,2.06-29.33,1.9s-20.45-3.45-25.58-11.8c-7.02-11.41-.87-26.06,5.3-37.94,6.18-11.9,13.33-23.82,18.34-36.17-26.18,4.16-46.42,5.05-67.01,22.63-25.12,21.44-47.09,46.64-64.63,74.62v-.04Z"/>
  <path class="st16" d="M-1.14,146.63c15.69,26.9,13.71,60.06,18.37,90.85s21.92,65.03,52.81,69c3.32,21.89,6.65,43.77,9.97,65.66,9.93,1.42,19.86,2.85,29.79,4.27,2.63.38,5.48.87,7.26,2.84,1.62,1.79,1.95,4.37,2.2,6.78,3.55,34.11,7.11,68.21,10.66,102.32,1.34,12.81,2.67,25.62,4.01,38.44.52,5.02,1.36,10.62,5.37,13.69,3.26,2.49,7.69,2.57,11.79,2.54,30.51-.22,61.02-.45,91.53-.67-6.36,21.52-7.09,44.69-2.08,66.57,19.73,10.71,46.62.78,58.03-18.55s8.75-44.88-2.95-64.04c-4.45-7.28-10.28-13.98-17.88-17.86-12.89-6.58-28.34-4.07-42.66-6.16-32.79-4.79-57.32-33.79-69.32-64.68s-14.53-64.53-22.25-96.75-22.36-65.2-50.58-82.57c-19.69-12.11-47.53-19.17-52.29-41.79-3.7-17.61,9.76-34.02,12.69-51.77,5.61-34.01-27.85-66.72-18.78-99.98,39.77,16.89,51.16,66.84,77.65,100.97,28.98,37.34,80.39,55.72,126.47,45.22,5.83-1.33,11.92-3.3,15.72-7.91,4.04-4.9,4.64-11.69,5.07-18.03,1.34-19.72,2.67-39.44,4.01-59.16,16.85,13.97-1.12,43.53,9.43,62.7,9.72,17.65,35.13,15.16,54.69,19.98,19.42,4.79,35.15,18.5,51.13,30.54s34.61,23.21,54.55,21.52c19.93-1.7,38.82-22.41,31.41-40.99-3.61-9.07-12.22-15.16-21.02-19.37-16.9-8.06-36.2-10.99-54.73-8.31-7.76,1.12-16.48,2.99-22.84-1.59-4.89-3.52-6.77-9.81-8.33-15.63-5.48-20.45-11.28-41.62-24.85-57.88-13.56-16.26-37.25-26.13-56.47-17.26-23.87,11.01-30.18,44.09-53.06,57.04-16.23,9.19-36.37,5.84-54.67,2.23-16.41-3.24-34.12-7.22-44.96-19.96-17.29-20.34-9.05-52.85-22.64-75.83C84.11,34.3,38.86,29.51,27.05-1.69,18.67-6.96,3.17-2.19,2.33,7.67c-.4,4.69,1.48,9.23,2.78,13.76,3.04,10.63,2.91,21.86,2.75,32.91-.53,37.97-1.06,75.93-1.58,113.9-2.71-5.18-4.92-10.62-6.59-16.23,6.57,5.37-.76-13.87-.83-5.39h0Z"/>
  <path class="st17" d="M531.19-2.2c14.1,3.88,26.98,12.03,36.53,23.1,3.63,4.21,6.84,8.94,8.33,14.29,1.3,4.66,1.25,9.58,1.21,14.42-.27,38.52,1.37,77.17,7.94,115.13,4.31,24.94,10.77,49.77,10.27,75.08-.64,32.71-12.9,64.88-9.56,97.43,2.01,19.54,9.61,38.46,9.2,58.1-.55,26.27-15.39,52.11-9.27,77.67,2.28,9.53,7.35,18.12,12.35,26.55,8.02,13.53,16.05,27.07,24.07,40.6,8.74,14.74,17.97,30.86,18.77,48.41.64,14.14-2.03,31.9,7.97,43.61,2.39,2.8,5.43,5.02,7.63,7.97,3.06,4.1,4.26,9.29,4.92,14.37,2.43,18.48-1.2,37.17-4.81,55.45-.69,3.48-1.38,6.99-2.75,10.27-1.24,2.97-3.02,5.7-4.12,8.72-3.99,10.92,2.98,24.5,14.18,27.63-11.74,1.11-23.16,2.59-33.99-2.07,3.21-3.9-1.94-8.99-3.71-13.71-1.22-3.26-.72-6.89.1-10.27,5.29-21.77,23.13-40.69,21.31-63.02-1.01-12.41-8.05-23.4-14.89-33.8-4.24-6.45-8.48-12.9-12.72-19.35-2.94-4.48-5.95-9.13-6.79-14.42-.51-3.2-.19-6.47.13-9.7,1.16-11.68,2.33-23.37,3.49-35.05.35-3.51.69-7.14-.4-10.49-.79-2.43-2.28-4.55-3.75-6.64-7.85-11.15-15.71-22.3-23.56-33.45-2.57-3.64-5.18-7.38-6.4-11.67-1.13-3.98-.99-8.19-1.32-12.31-1.22-15.33-8.81-29.31-13.36-44s-5.43-32.38,4.9-43.76c5.92-6.51,15.39-11.07,16.61-19.78,1.53-10.96-10.89-18.1-16.64-27.55-4.74-7.79-4.85-17.45-4.54-26.56,1.19-34.71,6.58-69.28,16.02-102.71,2.44-8.65-6.29-14.81-9.16-23.33-2.35-6.96-1.38-14.52-1.28-21.86.45-32.86-17.02-64.51-13.77-97.22.5-5.03.99-11.23-3.24-14-1.59-1.04-3.57-1.33-5.17-2.35-2.93-1.88-3.86-5.65-4.81-9-6.57-23.26-26.14-42.36-49.55-48.37,17.02-3.75,35.02-2.96,51.65,2.27"/>
  <path class="st15" d="M556.63-.9c19.46,11.09,27.09,35.48,28.22,57.85,1.13,22.37-2.48,45.1,2.01,67.04,2.01,9.81,5.6,19.24,7.82,29,4.74,20.8,3.19,42.58,7.28,63.51,1.7,8.71,4.36,17.81,1.61,26.24-.94,2.87-2.47,5.51-3.57,8.33-1.14,2.91-1.8,5.98-2.4,9.05-3.67,18.72-5.11,37.87-4.28,56.93.49,11.29,5.24,23.08,6.96,34.25,7.16,46.59-3.34,94.05-1.8,141.17.24,7.22,1.9,16.01,8.75,18.3,5.89,1.97,11.99,6.31,15.29,11.57s5.62,11.1,9.02,16.29c2.41,3.68,5.35,7.02,7.52,10.84,5.65,9.97,5.52,22.03,6.94,33.4.56,4.52,1.39,8.99,2.22,13.47,1.07,5.77,2.13,11.54,3.2,17.32,1.61,8.7,3.41,17.82,9.08,24.6,6.76,8.08,8.29,20.94,7.89,31.47-.4,10.53-2.56,20.91-3.35,31.42-.42,5.55-.46,11.2-2.03,16.54-.62,2.11-1.47,4.15-2.09,6.27-3.21,11.03.85,23.81,9.83,30.98,1.52-13.07-3.37-26.19-2.38-39.31.63-8.32,3.6-16.27,5.25-24.46,1.11-5.5,1.62-11.1,2.13-16.69,1.45-15.92,2.44-33.52-7.3-46.19-2.02-2.62-4.44-4.94-6.22-7.72-6.89-10.79-2.53-25.24-6.2-37.51-1.98-6.62-6.37-13.19-4.59-19.87,2.64-9.95-8.28-19.16-11.37-28.98-.64-2.04-1.05-4.2-2.21-6-1.87-2.9-5.32-4.33-7.71-6.81-3.36-3.48-4.38-8.72-7.73-12.21-1.86-1.94-4.33-3.23-6.1-5.24-1.93-2.19-2.87-5.06-3.61-7.88-7.01-26.76.44-55.03-.74-82.67-.56-13.14-3.03-26.73,1.32-39.15,9.75-27.85-6.15-58.91-9.55-88.22-.63-5.41-1.25-10.86-.84-16.29.97-12.53,7.45-24.39,6.86-36.95-.22-4.76-1.47-9.41-2.03-14.14-1.13-9.49.47-19.07,1.3-28.59.81-9.35.87-18.75.92-28.13.03-5.06.04-10.25-1.68-15.01-1.22-3.36-3.25-6.37-4.43-9.75-1.49-4.27-1.52-8.9-2.48-13.31s-3.24-8.99-7.42-10.71c.73-28.84,2.52-59.25,6.96-87.75.22-1.44.5-2.98,1.54-4.01.63-.63,1.48-.98,2.3-1.32,1.65-.68,3.31-1.37,4.96-2.05,4.58-1.89,9.21-3.81,13.12-6.84s7.07-7.37,7.6-12.29c-24.01,1.92-49.73,1.63-73.77.21h-.02Z"/>
  <path class="st17" d="M703.87,334.4c.38.12.82.29.94.67.09.28-.03.58-.13.86-1.74,4.44-1.86,9.33-1.96,14.1-.09,4.6-.12,9.46,2.17,13.46,1.38,2.4,3.63,5.02,2.5,7.55-.93,2.07-3.58,2.59-5.83,2.8-6.9.64-13.88.89-20.6,2.62-1.97.5-3.95,1.16-5.55,2.41-2.65,2.07-3.87,5.43-5.54,8.35-2.64,4.58-6.58,8.25-10.46,11.84-2.39,2.21-4.84,4.46-7.81,5.78-2.36,1.05-4.96,1.47-7.53,1.75-4.73.51-9.51.59-14.26.23-2.36-.18-5.34-.14-6.34,2-.68,1.44-.55,3.8-2.13,3.93-2.24-5.27-3.61-10.9-4.03-16.61,2.79-1.04,5.63,1.12,8.33,2.38,3.8,1.77,8.25,1.79,12.32.77s7.83-3.01,11.44-5.13c2.56-1.51,5.1-3.11,7.14-5.28,2.21-2.35,3.72-5.25,5.21-8.12,1.26-2.43,2.56-5.13,1.94-7.79-.35-1.52-1.32-2.93-1.2-4.48.08-1.11.72-2.1,1.33-3.04,1.33-2.03,2.67-4.06,4-6.09.86-1.3,1.76-2.65,3.12-3.42s3.3-.74,4.26.48c.9,1.15.63,2.79.31,4.21-.76,3.39-1.51,6.77-2.27,10.16,4.39,1.02,8.95-.29,13.27-1.6,1.62-.49,3.28-1,4.63-2.02s2.35-2.68,2.12-4.36c-.25-1.82-1.81-3.13-2.88-4.63-1.58-2.2-2.18-5.07-1.61-7.72-3.2-.24-6.39-.7-9.53-1.38-1.56-.34-3.51-1.29-3.22-2.86.11-.61.57-1.1,1-1.54,2.83-2.91,5.65-5.82,8.48-8.73.73-.75,1.49-1.52,2.48-1.87,1.04-.37,2.18-.22,3.27-.07,3.5.49,7.06,1.21,10.58,1.41-.69-.67-.61-1.26-.91-1.9,1.01.23,2,.56,3,.88h-.05Z"/>
  <path class="st15" d="M608.78,392.36c-.65-2.12,1.5-4.18,3.67-4.63,4.44-.93,8.64,2.15,13.07,3.14,3.19.71,6.52.32,9.75-.2,3.94-.64,7.91-1.5,11.38-3.46s6.43-5.16,7.23-9.07c.34-1.63.3-3.37,1.01-4.87.38-.8.95-1.5,1.32-2.3.68-1.47.61-3.26-.19-4.66-6.49,5.25-8.1,15.87-15.92,18.83-4.56,1.72-9.67.09-14.09-1.97s-8.84-4.6-13.71-4.73c-1.55,1.59-2.86,4.24-3.07,6.45s-.77,5.28-.48,7.48h.03Z"/>
  <path class="st17" d="M1214.85-.25c-14.33,6.96-23.45,21.91-27.25,37.39-2.74,11.18-3.1,22.79-3.44,34.3-.04,1.32-.06,2.7.58,3.85.61,1.1,1.74,1.8,2.86,2.37,8.53,4.3,18.93,3.24,27.65,7.16,3.84,1.73,7.28,4.4,11.35,5.49,4.11,1.1,8.46.48,12.67-.09s8.6-1.06,12.64.27,7.63,5.02,7.42,9.27c7.21,1.09,13.55,5.84,17.55,11.94s5.81,13.42,6.24,20.69c.16,2.79.13,5.6.31,8.39.72,11.56,4.92,23.15,2.46,34.46-3.82,17.59-7.48,36.75-5.6,54.64.49,4.63,1.24,9.25,1.32,13.91.08,4.76-.53,9.51-.72,14.27-.43,11.29,1.62,22.66,5.96,33.09,3.63,8.72,8.9,16.98,10.11,26.34,1.02,7.86-.91,16.04,1.25,23.67,2.87,2.53,3.71,7.59,3.6,11.41-.41,13.91-4.14,27.48-6.04,41.27-1.9,13.78-1.81,28.52,4.84,40.74,1.27,2.34,2.79,4.59,3.53,7.15.54,1.88.64,3.85.69,5.81.09,3.8-.02,7.61-.32,11.41-.65,8.12-2.11,16.78,1.59,24.04,2.16,4.23,6.03,7.56,10.53,9.08.72.24,1.49.44,2.23.26,1.31-.33,2.01-1.69,2.71-2.85,5.53-9.26,18.2-11.46,25.51-19.39,1.51-1.64,2.8-3.53,4.63-4.8s4.46-1.78,6.23-.43c-.94,2.95-3.6,4.97-6.11,6.8-5.88,4.26-11.75,8.53-17.63,12.79-1.3.94-2.6,1.89-3.9,2.83-4.78,3.47-9.59,6.96-14.92,9.5-2.77,1.32-6.18,2.34-8.76.69-1.63-1.04-2.5-2.91-3.22-4.71-4.25-10.63-6-22.25-5.05-33.66.31-3.74.91-7.49.62-11.23-.27-3.51-1.31-6.91-2.28-10.29-3.71-12.95-6.55-26.39-5.49-39.82.57-7.3,2.29-14.48,2.61-21.8.21-4.75-.18-9.5-.57-14.23-1.39-17.07-2.79-34.13-4.18-51.2-.19-2.32-.41-4.74-1.61-6.73-1.09-1.8-2.88-3.08-3.97-4.87-1.18-1.95-1.42-4.31-1.64-6.58-.53-5.67-1.07-11.33-1.6-17-.99-10.51-3.18-20.88-3.43-31.43-.27-11.25-.54-22.49-.81-33.74-.1-3.98-.19-7.97.02-11.95.64-11.73,3.96-23.13,7.26-34.41,2.93-10.02,2.4-21.23,3.82-31.57.5-3.61.98-7.39-.22-10.83-.84-2.39-2.42-4.43-3.98-6.42-2.19-2.8-4.53-5.7-7.79-7.11-2.46-1.06-5.21-1.15-7.84-1.61-8.58-1.48-16.05-6.78-24.5-8.87-4.4-1.09-8.96-1.28-13.44-1.89-7.64-1.03-15.06-3.26-22.44-5.48-5.92-1.78-11.84-3.56-17.76-5.34-3.93-1.18-7.97-2.42-11.2-4.96-6.59-5.18-8.1-15.72-3.24-22.54-4.36-2.56-10.15-.74-13.94,2.6s-6.22,7.92-9.21,11.99c-7.48,10.16-18.46,17.07-27.88,25.46s-17.84,19.68-17.2,32.29c.33,6.57,3.1,12.74,5.83,18.73,4.7,10.33,9.42,20.7,15.36,30.38,4.01,6.54,8.57,12.77,11.79,19.73,3.62,7.84,5.42,16.39,6.9,24.91.48,2.79.93,5.71.12,8.43-1.33,4.52-5.88,7.73-6.53,12.4-3.06,22.27-23.48,38.79-32.75,59.26-.94,2.08-1.94,4.26-3.77,5.62-1.89,1.41-4.36,1.71-6.71,1.96-7.11.74-14.24,1.35-21.37,1.85,1.19,2.48-.18,5.59-2.4,7.23s-5.05,2.13-7.78,2.5c-22.57,3.02-46.89.3-66.83,11.3-6.35,3.5-11.94,8.26-17.07,13.39-16.74,16.73-29.07,37.82-35.45,60.61-4.06,14.51-7.4,28.89-7.46,43.96-.02,4.14.16,8.35,1.48,12.27,1.55,4.59,4.56,8.52,7.34,12.49,19.25,27.44,29.53,61.06,28.91,94.58-.36,19.19-3.72,40.22,7.08,56.09,3.34,4.91,7.83,8.91,12.27,12.86,5.25,4.67,10.51,9.34,15.76,14.01,4.41,3.92,8.93,7.99,11.4,13.35,4.66,10.13.61,22.56-6.91,30.8s-17.88,13.2-27.96,17.95c-.38-4.31,1.62-8.76,5.1-11.34,2.12-1.57,4.66-2.44,6.9-3.83,9.03-5.62,10.81-17.79,11.68-28.4.26-3.17.46-6.59-1.24-9.27-1.16-1.83-3.05-3.05-4.85-4.27-19.52-13.32-33.92-35.39-34.12-59.02-.07-8.33,1.56-16.58,2.15-24.89.47-6.62.28-13.27.08-19.9-.15-5.13-.34-10.42-2.48-15.08-1.38-2.99-3.51-5.61-4.61-8.71-2.24-6.34.25-13.44-1.09-20.02-2.83-13.86-20.31-19.28-27.29-31.58-6.48-11.43-2.52-26.03-6.37-38.59-4.75-15.49,5.73-32.53,11.12-47.81,4.04-11.46,8.18-23.1,15.31-32.94,9.89-13.64,24.7-22.72,39.12-31.45,6.8-4.12,13.67-8.27,21.19-10.88,7.68-2.67,15.86-3.65,23.99-3.88,6.49-.18,13.6-.08,18.63-4.19,4.01-3.27,5.99-8.74,10.46-11.33,5.42-3.14,12.18-.93,18.34.19s14.22-.12,15.94-6.14c7.07-24.71,19.66-48.58,25.82-73.54,1.95-7.89,3.06-17.64-3.2-22.82-2.52-2.08-5.91-3.04-8.11-5.46-2.67-2.95-2.93-7.27-3.45-11.21-1.28-9.74-5.02-19.15-10.78-27.11-1.26-1.74-2.63-3.44-3.4-5.44-.84-2.18-.92-4.58-.99-6.92-.18-6.16-.35-12.32-.53-18.48-.17-5.82-.31-11.8,1.58-17.31,2.51-7.31,8.32-12.99,14.41-17.76,5.3-4.15,10.97-7.84,16.91-11.01,11.91-6.36,16.2-25.18,29.22-28.74,1.83-.5,3.75-.82,5.41-1.73,2.91-1.58,4.61-4.67,6.21-7.57,5.49-9.92,11.7-19.44,18.55-28.47,2.57-3.39,5.35-6.81,9.12-8.79s9.26-3.59,12.45-.76h-.04Z"/>
  <path class="st19" d="M996.45,93.76c-.16,14.56,1.48,29.39-2.08,43.51-7.71,30.59-37.46,50.15-66.6,62.24-8.38,3.48-17.12,6.73-23.84,12.82-14.25,12.92-15.55,34.5-15.72,53.74-.02,2.28-.11,4.75-1.55,6.5-1.64,1.99-4.47,2.41-7.04,2.7-8.18.9-16.37,1.81-24.55,2.71,1.51,37.84-.16,75.81-4.99,113.38-.82,6.41-1.91,13.2-6.12,18.1-4.95,5.76-13.13,7.57-20.72,7.66-26.96.3-51.29-16.81-68.95-37.18-3.42-3.94-6.76-8.2-8.07-13.25-4.99-19.12,19.74-33.01,24.12-52.28,3.47-15.27-7.25-30.91-21.06-38.28s-30.01-8.4-45.65-9.27c-12.03-.67-24.06-1.34-36.09-2.01-3.26-.18-6.72-.43-9.38-2.34-4.92-3.54-4.78-10.79-3.96-16.8,3.92-28.84,14.96-60.91,41.9-71.95,15.42-6.32,33.02-4.21,49.09.25,16.06,4.46,31.55,11.16,47.99,13.92,7.92,1.33,17.39,2.67,20.84,9.92,1.48,3.1,1.45,6.68,1.23,10.11-.81,12.94-3.9,25.73-9.07,37.61-1.8,4.12-3.88,8.31-3.92,12.8-.13,13.08,16.34,21.32,17.39,34.36,18.53-21.85,29-49.73,33.27-78.05s2.66-57.24-.81-85.68c-.6-4.94.56-12.01,5.52-11.77-3.51-3.4-8.47-4.76-13.23-5.83-39.22-8.81-79.97-5.69-120.16-6.34-7.24-.12-15.65-.98-19.58-7.06-1.84-2.86-2.3-6.36-2.71-9.73-2.24-18.4-4.16-38.4,5.48-54.24,6.49-10.65,17.52-17.9,29.23-22.2,18.59-6.82,38.95-6.86,58.7-5.46,15.73,1.11,31.75,3.2,45.85,10.24s26.13,19.9,28.46,35.49c2.8,18.68-8.28,36.32-18.87,51.96,13.78,2.29,27.74,3.51,41.71,3.65,16.96.17,37.13-3.34,44.14-18.78,10.74-23.64-19.33-52.82-6.18-75.22,7.5-12.77,24.79-14.98,39.6-15.14,32.74-.36,65.51,2.36,97.74,8.13,6.68,1.19,13.84,2.8,18.3,7.92,3.08,3.54,4.39,8.31,4.75,12.98,1.56,20.63-13.38,38.41-27.29,53.73-13.91,15.32-28.65,33.39-26.57,53.97,1.53,15.12,12.11,28.26,13.29,43.42,1.52,19.6-12.68,36.52-25.99,50.99-12.15,13.21-26.03,27.31-43.91,28.84-9.27.79-20.51-4.21-20.99-13.5-.27-5.4,3.21-10.19,6.49-14.48,21.54-28.18,42.21-58.07,51.6-92.27,1.93-7.02,3.37-14.36,2.2-21.54-2.31-14.15-14.41-28.06-8.36-41.05,1.77-3.81,4.91-6.79,7.19-10.31s3.62-8.26,1.45-11.85c-5.69-9.42-14.92,3.96-17.18,8.42-4.94,9.74-6.2,21.02-6.32,31.8h-.02Z"/>
  <path class="st19" d="M458.12,373.42c8.86,13.5,18.94,26.54,25.52,40.98,14.24,31.27,8.64,61.06-1.17,83.71-2.82,6.51-6,12.96-6.23,21.23-.49,17.55,12,37.98,23.73,55.8,1.39,2.11,2.86,4.42,3.08,6.61.25,2.48-1.16,3.99-2.51,5.26-4.29,4.06-8.58,8.12-12.87,12.18,24.16,34.33,46.51,70.04,66.74,106.61,3.45,6.24,6.98,12.93,7.5,19.12.61,7.27-3.12,12.17-7.56,15.24-15.78,10.91-40.7,4.71-63.68-7.13-4.45-2.29-9.04-4.9-12.93-9.05-14.71-15.68-8.6-38.25-17.86-57.76-7.33-15.46-23.29-25.67-36.01-27.02s-22.94,4.08-32.73,9.44c-7.54,4.12-15.07,8.25-22.61,12.37-2.04,1.12-4.25,2.25-6.99,1.54-5.09-1.33-9.46-8.08-12.67-13.94-15.41-28.17-28.58-62.12-19.42-82.93,5.25-11.92,16.97-16.91,29.22-19.13s25.54-2.14,36.97-6.08c5.51-1.89,11.94-4.39,18.44.94,2.78,2.28,4.97,5.6,6.95,8.85,7.47,12.26,13.51,25.28,17.75,38.29,1.47,4.51,2.81,9.2,5.55,13.36,7.97,12.13,22.78,13.23,31.42,24.86-2.46-27.47-13.4-57.33-28.28-85.16-14.88-27.83-33.61-53.88-53.15-78.76-3.39-4.32-7.05-11.31-3.96-13.04-4.17-1.75-7.94-1.06-11.42-.17-28.64,7.34-50.85,26.29-75.05,41.54-4.36,2.75-9.87,5.27-15.94,1.2-2.85-1.91-5.27-4.96-7.59-7.91-12.64-16.1-26.07-33.8-30.09-52.22-2.71-12.39-.63-23.44,3.66-32.01,6.82-13.63,18.84-21.69,31.4-28.19,10-5.17,20.76-9.57,33.45-8.63,12.68.94,27.7,8.06,38.67,21.53,13.14,16.14,17.42,36.79,20.77,55.4,9.57-3.32,18.58-7.7,26.94-13.08,10.15-6.53,19.93-17.72,14.6-34.74-8.17-26.06-43.92-41.13-49.9-66.99-3.41-14.75,5.47-23.6,14.14-29.6,19.16-13.24,40.24-23.65,62.87-31.04,4.69-1.53,9.92-2.87,15.7.09,4,2.05,7.71,5.93,10.79,10.11,13.61,18.42,15.69,40.73,16.87,60.35s3.56,42.12,17.45,60.29c10.2,13.35,24.55,21.31,34.56,34.83,12.95,17.49,14.94,38.71,15.95,57.31.93,16.98,1.38,35.47-8.27,43.93-5,4.39-14.73,4.2-20.72-4.18-3.48-4.88-4.36-10.67-5.06-15.93-4.57-34.5-10.7-70.25-26.17-105.52-3.17-7.24-6.84-14.58-11.94-20.75-10.06-12.15-25.78-20.21-30.19-34.59-1.29-4.21-1.26-8.2-2.08-12.35s-2.93-9.05-6.43-11.51c-9.16-6.45-6.4,9.54-5,14.55,3.06,10.94,9.25,21.85,15.81,31.84l-.02.05Z"/>
  <path class="st15" d="M1190.07,12.93c-12.2,5.78-23.19,14.11-32.05,24.29-7.93,9.11-14.21,19.71-23.29,27.67-8.57,7.52-19.29,12.38-27.44,20.36-11.13,10.9-16.4,26.95-16.01,42.53s6.03,30.69,14.11,44.01c2.07,3.41,4.35,6.88,4.85,10.83.34,2.73-.2,5.55.5,8.2.68,2.58,2.43,4.71,3.74,7.02,6.16,10.88,1.98,24.8-4.69,35.38-9.46,14.99-23.75,26.87-40.22,33.42-5.9,15.67-15.69,29.85-28.26,40.91-5.23,4.61-12.8,4.51-19.71,5.43-5.44.72-11.04.87-16.21,2.71-3.97,1.42-7.52,3.78-11.03,6.11-10.4,6.93-20.87,13.92-29.76,22.7-4.25,4.2-8.11,8.79-11.82,13.48-9.48,11.99-18.35,25.62-18.94,40.9-.06,1.67-.35,3.8-1.97,4.24-5.71,15.04-7.12,33.26-4.21,49.08,1.13,6.15,2.92,12.22,3.03,18.47.07,3.95-.53,7.93.14,11.82,1.37,8.01,7.72,14.1,13.77,19.53,1.67,1.5,3.37,3.02,4.62,4.89,1.53,2.28,2.33,4.97,3.39,7.5,2.68,6.38,7.18,12,8.88,18.71,1.69,6.63.47,13.61-.75,20.34-1.01,5.57-2.02,11.15-3.04,16.72-.33,1.8-.89,3.91-2.61,4.54,4.11,9.11,7.45,18.57,9.98,28.25,4.29,16.39,11.09,31.7,22.11,44.57,3.09,3.61,6.63,6.95,8.69,11.23,2.53,5.25,2.56,11.32,2.53,17.15-.02,5.12-.06,10.35-1.75,15.19s-5.36,9.28-10.33,10.5c3.42-16.1,6.61-33.93-1.6-48.2-1.75-3.05-3.97-5.8-5.89-8.74-3.6-5.5-6.15-11.61-8.68-17.67-4.92-11.79-9.84-23.58-14.76-35.36-2.88-6.9-5.81-13.99-6.13-21.46-.2-4.68.63-9.32,1.06-13.98.57-6.18.42-12.42-.42-18.57-.1-.73-.24-1.52-.76-2.04-.52-.52-1.3-.66-2.03-.78-3.29-.53-6.57-1.06-9.86-1.58.2-8.62-.25-17.25-1.37-25.8-.71-5.45-2.77-12.03-8.18-13.01-5.16-25.18-7.29-50.51-4.97-76.11,1.93-21.3,6.82-43.15,19.84-60.12,1.76-2.29,3.65-4.48,5.31-6.84,1.49-2.11,2.78-4.36,4.29-6.46,2.26-3.12,4.98-5.88,7.79-8.52,14.1-13.25,30.63-23.92,48.51-31.33,7.22-2.99,15.33-5.46,22.72-2.92,3.99,1.37,8.21-4.02,10.84-7.32s4.28-7.25,6.02-11.1c4.22-9.33,9.27-18.55,16.87-25.42,3.26-2.95,6.94-5.43,10.1-8.49,2.98-2.9,5.45-6.29,7.88-9.67,9.85-13.66,19.87-28.58,20.17-45.42.07-3.94-.43-7.97-2.17-11.5-1.48-3.01-3.87-6.42-2.26-9.36-.54-2.55-.66-5.95-1.2-8.5-.27-1.28-.57-2.63-1.44-3.61-.72-.81-1.75-1.28-2.62-1.93-5.18-3.91-2.81-12.1-4.64-18.33-.56-1.92-1.56-3.69-2.31-5.55-2.79-6.91-2.1-14.73-.46-22.01,4.52-20.11,16.1-38.56,32.24-51.38,5.43-4.31,11.4-8.05,15.94-13.29,3.93-4.54,6.62-10.01,10.18-14.85,3.86-5.23,8.76-9.69,14.32-13.05,8.4-5.06,15.58-10.09,24.64-13.85,1.8-.75,3.61-1.5,5.41-2.25,4.95-2.05,9.89-4.11,14.84-6.16-5.8,3.08-10.82,7.88-13.51,13.86h.04Z"/>
  <path class="st12" d="M52.51,404.8c10.93-2.04,24.42-.9,29.99,8.72,6.52,11.26-2.25,24.85-9.78,35.46-14.32,20.21-25.38,42.71-32.64,66.39-1.28,4.19-2.46,8.63-1.49,12.9,1.1,4.88,4.81,8.74,8.71,11.88,13.72,11.07,31.06,16.4,46.82,24.3s31.22,20.12,34.81,37.38c4.35,20.91-9.86,40.66-15.47,61.26-1.04,3.82-1.71,8.19.49,11.48,1.91,2.87,5.47,4.1,8.81,4.96,41.26,10.59,88.46-10.32,108.34-47.99,1.92-3.64,4.47-7.98,8.59-7.95,1.79.01,3.44.91,4.98,1.84,22.42,13.57,37.32,38.73,38.7,64.9,1.38,26.17-10.69,52.65-31.2,68.97-4.51,3.59-9.55,6.78-15.22,7.85-13.63,2.58-27.15-8.51-31.02-21.84-1.61-5.54-1.95-11.5-4.6-16.62-7.75-14.96-29.66-14.45-45.18-7.88-15.52,6.57-30.69,17.21-47.44,15.39-20.11-2.19-33.61-21.33-42.71-39.4s-17.92-38.37-36.02-47.42c-9.07-4.54-20.78-6.62-25.21-15.74-4.42-9.08,1.74-20.46,10.61-25.3,8.86-4.84,19.47-4.89,29.57-4.81,5.05.04,10.29.12,14.86,2.29,4.22,2.01,7.44,5.61,11.07,8.56,8,6.5,18.42,9.93,28.71,9.46-6.11,15.15-14.92,29.21-25.88,41.32,6.7,3.95,13.4,7.9,20.1,11.85,3.01-25.49,6.03-50.98,9.04-76.47.94-7.97,1.42-17.28-4.53-22.67-4.06-3.68-9.93-4.33-15.36-4.98-21.55-2.59-42.76-7.98-62.93-15.99-3.69-1.47-7.59-3.23-9.63-6.64-2.66-4.46-1.28-10.13.18-15.11,8.02-27.41,16.03-54.81,24.05-82.22-7.43,3.05-14.87,6.11-22.3,9.16-1.84.76-4.05,1.49-5.71.38-1.46-.97-1.81-2.93-2.03-4.67-2-15.73-4.6-22.86,7.15-34.04,10.57-10.07,26.76-16.36,40.82-18.98l-.05.02Z"/>
  <path class="st19" d="M75.22,631.55c10.78-2.14,22.24.04,32.73-3.23,27.8-8.66,34.11-48.99,60.96-60.25-27.24,7.11-52.54-20.64-57.43-48.37-6.37-36.1,7.15-79.13-17.64-106.15,6.68,23.84,6.82,49.47.41,73.38-5.42,20.17-15.37,39.07-19.02,59.63s.86,44.75,18.31,56.23c-11.62,12.45-32,15.61-46.84,7.25-2.71-1.53-5.4-3.44-8.51-3.63-2.88-.18-5.63,1.16-8.1,2.65-18.52,11.16-29.49,32.04-33.61,53.26s-2.24,43.1-.35,64.67c4.35,49.62,52.09,45.75,42.37-.83-7.05-33.78-8.51-85.66,36.71-94.62h0Z"/>
  <path class="st8" d="M858.33.7c27.4,8.69,55.15,5.86,82.58,14.34,18.8,5.81,36.28,16.56,53.36,27.13,29.75,18.41,59.86,37.09,85.13,60.58,14.83,13.79,27.92,29.17,44.38,41.36,11.34,8.4,24.23,15.24,33.93,25.14,15.49,15.81,20.11,36.53,33.69,53.48,13.99,17.47,35.72,28.93,56.41,39.55,11.02,5.66,22.03,11.32,33.05,16.98,5.78,2.97,11.63,5.97,17.74,7.71,6.23,1.77,12.49,2.17,18.66,2.54,10.79.66,21.85,1.29,31.27-1.56s16.95-10,16.25-19.56"/>
  <path class="st1" d="M.87,617.85c30.38-11.22,60.54,13.87,88.38,30.41,29.73,17.66,64.55,26.64,99.11,25.54,65.68-2.09,130.93-45.85,148.08-109.28,3.69-13.64,5.27-27.99,11.33-40.76,11.45-24.11,37.02-38.47,62.67-45.85s52.63-9.32,78.22-16.89c17.66-5.23,34.42-13.07,51.11-20.89,4.03-1.89,8.27-3.95,10.67-7.69,2.16-3.36,2.49-7.54,2.64-11.53,2.8-73.84-38.19-147.71-102.33-184.4-19.89-11.38-42.95-20.52-54.62-40.24-9.12-15.42-9.35-34.32-9.2-52.23.07-8.99.27-18.37,4.49-26.3,3.25-6.12,8.6-10.79,13.45-15.74,26.24-26.79,39.61-65.66,35.39-102.92"/>
  <path class="st7" d="M464.11,755.87c-4.22-25.03-8.45-50.67-3.98-75.66,4.47-24.99,19.43-49.64,43.18-58.62,10.2-3.86,21.4-4.64,31.48-8.8,23.49-9.68,36.71-39.06,28.36-63.06s-36.94-38.84-61.37-31.85c-10.53,3.01-19.75,9.35-28.5,15.93-46.58,35.02-85.65,79.98-113.84,130.98-7.54,13.65-14.98,28.45-28.34,36.48-9.34,5.62-20.58,7.21-31.48,7.32-64.53.62-124.9-53.6-131.19-117.83-.57-5.79-.82-11.86-3.74-16.89-1.92-3.3-4.86-5.89-7.99-8.08-24.42-17.08-60.56-12.25-82.23-32.71-27.37-25.84-13.47-71.06-19.98-108.14-5.62-32-29.26-60.2-59.79-71.33"/>
  <path class="st15" d="M1228.46,95.21c6.52,7.69,15.71,12.5,24.1,18.09,8.39,5.59,16.6,12.75,19.22,22.49,3.03,11.29-2.11,22.93-4.27,34.42-2.34,12.42-1.15,25.2.11,37.77,3.79,37.85,8.19,75.64,12.59,113.42,1.45,12.45,2.9,24.89,4.35,37.34,1.66,14.23,4.04,28.46,3.81,42.78-.08,4.81-.32,9.61-.72,14.41-.43,5.22-1.03,10.47-.4,15.67.3,2.49.89,4.95,1.15,7.44.26,2.46.2,4.93.17,7.4-.13,11.44.36,22.88,1.46,34.27.36,3.73.79,7.47,1.92,11.05.87,2.76,2.37,5.6,5.03,6.71,2.48,1.03,5.37.29,7.72-1.01-.5-2.02-1.37-4.41-3.41-4.77-.71-.13-1.46.03-2.17-.13-1.92-.43-2.54-2.8-2.81-4.75-.9-6.67-1.8-13.33-2.7-20-.23-1.72-.46-3.44-.44-5.17.03-2.1.42-4.18.74-6.25,1.34-8.7,1.34-17.62-.01-26.32-.62-4-.96-8.36-1.45-12.38-.56-4.53-1.11-9.08-1.11-13.64,0-3.95.43-7.9.85-11.83,1.46-13.8,2.66-28.39-3.2-40.97-2.34-5.01-1.28-11.36-1.73-16.88-.08-.96-.16-1.93-.5-2.83-.24-.64-.6-1.23-.8-1.89-.26-.9-.18-1.85-.07-2.78.82-6.61,3.37-13.21,2.05-19.74-.18-.91-.46-1.84-1.04-2.56-.68-.85-1.72-1.33-2.5-2.09-1.48-1.45-1.83-3.68-2.1-5.74-1.16-8.88-2.33-17.76-3.49-26.64-.5-3.83-1-7.74-.28-11.54.18-.93.42-1.91.12-2.81-.23-.67-.73-1.21-1.18-1.76-2.3-2.86-3.15-6.66-3.08-10.33s.99-7.26,1.9-10.81c4.5-17.48-4.23-36.76.37-54.21,1.09-4.12,2.56-8.16,3.12-12.38.5-3.76.27-7.58.71-11.35.43-3.78,1.53-7.58.93-11.34-.38-2.37-1.42-4.61-1.69-6.99-.29-2.55.33-5.12.31-7.69-.04-7.7-5.53-14.16-10.71-19.86-3.43-3.78-9.98-2.06-14.94-3.29-3.27-.81-6.38-2.23-9.14-4.16-3.16-2.22-6.22-5.24-10.08-5.26-1.85,0-5.48.25-6.73-1.11h.02Z"/>
  <path class="st15" d="M1221.88,82.91c1.05,2.47,3.36,4.23,5.85,5.22,2.7,1.08,8.95,2.16,5.88-2.14-2.16-3.02-8.48-3.66-11.73-3.08Z"/>
  <path class="st15" d="M1189.39,84.66c-10.32,2.82-21.1,3.96-31.78,3.35-2.15-.12-4.54-.44-5.88-2.13-1.85-2.32-.62-5.73.77-8.36,3.72-7.02,8.23-13.63,13.41-19.65.86-1,3.05-1.08,4.36-1.27,1.16-.17,2.67.05,2.97,1.18.21.78-.31,1.54-.8,2.18-3.74,4.91-7.48,9.83-11.23,14.74-1.51,1.98-3.1,4.24-2.82,6.71.06.54.23,1.09.63,1.45.56.51,1.41.51,2.16.46,6.06-.37,12.07-1.55,17.82-3.5,2.91,2.03,6.96,3.88,10.38,4.83h.01Z"/>
  <path class="st13" d="M804.76,657.07c5.95-7.85,13.69-14.71,16.99-24,6.37-17.95-5.94-36.67-17.57-51.75-28.41-36.82-56.82-73.64-85.23-110.46-13.34-17.29-27.46-38.49-20.8-59.29,4.61-14.39,17.97-23.88,30.51-32.31,3.75-2.52,7.78-5.13,12.29-5.19,3.45-.04,6.72,1.42,9.86,2.86,13.52,6.19,27.21,12.5,38.61,22.04,11.4,9.54,20.42,22.88,21.49,37.71.81,11.17-2.87,22.11-4.64,33.16-4.26,26.61,5.91,58.14,30.97,68.06,19.74,7.82,44.7,1.02,61.25,14.33,15.34,12.33,15.31,35.7,10.68,54.83-9.75,40.3-34.19,76.88-67.69,101.31-8.02,5.85-17.66,13.5-15.74,23.24,2.17,11.02,16.64,13.46,27.88,13.42,17.9-.07,35.8-.14,53.7-.2,16.07-.06,35.84,2.21,41.9,17.1-16.49,4.61-33.92,4.18-51.04,3.71-21.31-.58-42.62-1.16-63.93-1.75-14.05-.38-35.41,4.16-43.94-9.27-14.78-23.27-.61-77.67,14.44-97.53v-.02Z"/>
  <path class="st19" d="M807.38,506.06c-3.25,1.95-6.6,4.01-8.72,7.15-4.65,6.92-1.78,16.14.64,24.11,4.86,16.06,7.24,32.86,7.02,49.63-.04,3.46-.26,7.11-2.15,10.01-1.87,2.86-5.07,4.51-8.18,5.92-13.32,6-27.72,9.61-42.3,10.59-5.92.4-12.4.57-16.87,4.47-3.11,2.71-4.64,6.75-6.06,10.62-4.38,11.95-8.81,24.1-9.72,36.8s2.16,26.25,11.01,35.4c6.06,6.26,14.35,9.99,22.86,11.87,15.29,3.37,31.77.98,45.47-6.59,2.32-8.88-1.48-18.52-7.76-25.22-6.28-6.7-14.73-10.92-23.21-14.45-3.24-1.35-6.85-2.96-8.05-6.25-.96-2.63-.03-5.57,1.23-8.07,8.79-17.45,30.91-22.57,50.29-25.06,19.38-2.5,41.33-5.75,52.41-21.85,1.22-1.77,2.39-3.76,4.38-4.56,3.35-1.35,6.9,1.38,9.24,4.14,11.62,13.66,15.75,32.19,16.95,50.09s-.14,35.96,2.35,53.73c.54,3.88,1.71,8.34,5.31,9.9,3.35,1.46,7.2-.35,10.18-2.47,16.43-11.71,23.23-35.22,15.58-53.88-3.78-9.22-10.48-16.93-14.94-25.84-7.14-14.27-8.13-30.74-8.59-46.69-.32-10.85-.42-21.94,2.96-32.25,2.76-8.43,7.74-16.01,10.32-24.5s2.14-18.88-4.49-24.77c-5.15-2.34-11.14,1.47-14.33,6.14s-4.89,10.33-8.68,14.53c-9.33,10.34-30.08,11.25-31.3,25.12-.67,7.63,5.94,15.41,2.74,22.37-1.38,3.02-4.32,4.98-7.18,6.66-9.65,5.66-20.12,9.92-30.99,12.61.2-21.74,1.44-46.02,17.18-61.01,9.72-9.26,23.46-13.24,33.58-22.06,19.87-17.32,20.59-47.42,19.77-73.77-.24-7.61-4-18.1-11.36-16.13-2.73.73-4.65,3.17-6.03,5.64-7.6,13.64,1.42,28.46-8.37,40.29-12.9,15.59-44.73,27.14-62.18,37.64h-.01Z"/>
  <path class="st19" d="M1090.38,502.68c5.92-6.31,13.57-10.87,19.12-17.51,11.77-14.09,11.02-37.01-1.65-50.3-6.91-7.25-16.33-11.43-25.3-15.85-20.45-10.08-39.84-22.3-57.75-36.4-5.08-4-10.32-8.58-11.88-14.85-2.02-8.13,3.23-16.85,10.66-20.74s16.39-3.71,24.53-1.71c8.4-4.91,17.24-9.96,26.96-10.32s20.42,5.74,21.67,15.39c.14,1.1.14,2.29-.45,3.23-.91,1.45-2.82,1.8-4.51,2.02-9.69,1.25-19.39,2.49-29.08,3.74-4.08.52-8.52,1.22-11.32,4.24-5.36,5.78-.54,15.83,6.58,19.22s15.42,2.7,23.21,3.89c14.26,2.18,26.65,10.64,38.49,18.88,11.77,8.18,24.22,17.24,28.94,30.77,3.6,10.33,2.02,21.9-2.13,32.02-4.16,10.11-10.72,19.03-17.32,27.75-3.67,4.85-7.58,10.4-6.71,16.42.77,5.28,5.03,9.3,9.3,12.49,23.55,17.64,55.46,23.55,83.77,15.52,4.13-1.17,8.42-2.79,11.04-6.19,2.25-2.92,2.94-6.72,3.38-10.37,3.18-26.06-2.36-52.93,3.54-78.51,5.52-23.93,20.89-47.67,13.72-71.15-3.07-10.05-10.02-18.47-17.79-25.54-12.1-11-26.57-19.37-42.14-24.37-16.55-5.32-34.97-7.2-48.47-18.15-3.69-2.99-7.1-7.19-6.71-11.92.35-4.23,3.59-7.57,6.65-10.51,4.33-4.17,9.3-8.62,15.31-8.6s11.55,7.73,7.46,12.14c-1.96,2.11-5.42,2.75-6.63,5.37-1.3,2.8,1.11,6.22,4.1,7.03s6.14-.25,8.94-1.55c15.63-7.24,27.12-22.75,29.49-39.81,11.3,4.42,26.46,3.65,32.38,14.24,4.82,8.62-.21,19.68-7.43,26.42-11.55,10.79-28.83,15.05-44.07,10.86,20.98,11.81,48.33,10.67,66.86,26.05,10.17,8.45,16.3,20.99,19.2,33.89,3.17,14.09,2.8,28.96-1.08,42.87-2.69,9.64-7.02,18.78-9.52,28.47-4.1,15.89-3.13,32.59-2.14,48.96.88,14.44,1.75,28.88,2.63,43.32.26,4.23.84,9.06,4.34,11.45,2.83,1.93,7.3,2.06,8.49,5.27-30.17,7.34-61.44,11.67-92.29,8.22-25.18-2.82-49.47-10.72-73.55-18.59-19.07-6.23-26.32-20.68-10.86-37.19h.02Z"/>
  <path class="st17" d="M19.71-1.87c2.84,21.41,21.54,37.32,41.02,46.63,9.31,4.45,19.46,8.17,26.24,15.94,3.65,4.18,6.08,9.28,8.13,14.44,3.8,9.54,6.48,19.52,7.98,29.67,1.1,7.48,1.59,15.16,4.22,22.25s7.91,13.74,15.24,15.61c18.78,4.79,33.55,21.48,52.62,24.94,14.09,2.56,28.8,1.6,42.44-2.76,4.06-1.3,8.13-2.96,11.25-5.86s5.17-7.28,4.31-11.45c3.47-.2,6.7-2.13,9.08-4.66,5.41-5.76,10.41-11.9,14.96-18.37,3.05-4.35,6.01-8.95,10.4-11.94,2.9-1.97,6.27-3.11,9.59-4.23,5.33-1.8,10.79-3.62,16.41-3.55s11.55,2.39,14.46,7.21c11.4.65,22.39,7.5,27.37,17.77,2.14,4.42,3.25,9.25,4.55,13.98,3.59,13.02,8.81,25.52,14,37.98,2.22,5.32,6.89,10.31,12.27,12.38s11.23,2.48,16.98,2.87c8.34.57,16.68,1.14,25.02,1.7,11.42.78,23.13,1.63,33.53,6.42s19.34,14.46,19.88,25.89c.09,1.9-.06,3.83-.76,5.6-1.58,3.94-5.61,6.3-9.53,7.92-14.02,5.78-30.35,5.73-44.33-.13,6.11-1.99,12.6-2.83,19.02-2.47,4.37.25,8.87,1.03,13.04-.31,7.42-2.38,11.34-12.16,7.63-19.01-2.96-5.45-9.31-8.16-15.41-9.29-12.03-2.22-24.46.13-36.62-1.13-9.64-1-18.89-4.23-28.03-7.44-7.74-2.72-15.59-5.49-22.27-10.23-7.4-5.25-12.98-12.63-18.44-19.89-5.61-7.47-11.35-15.18-13.77-24.21-.72-2.7-1.14-5.5-2.22-8.08-2.73-6.58-9.26-10.81-15.92-13.33-8.65-3.27-17.96-4.34-27.18-4.92-1.37-.09-2.77-.16-4.09.22-4.07,1.18-5.73,6.01-6.26,10.21s-.73,8.91-3.77,11.85c-1.86,1.8-4.36,1.76-6.76,2.73-1,.4-2.03.83-2.77,1.6-.91.94-1.28,2.26-1.72,3.49-3.52,10.01-12.92,17.09-23.03,20.3s-20.95,3.1-31.55,2.54c-5.3-.28-10.62-.66-15.8-1.8-8.27-1.82-16-5.52-23.62-9.22-3.2-4.96-8.99-7.68-14.43-9.98s-11.18-3.88-16.44-6.57c-13.61-6.97-22.94-21.62-23.49-36.89-.27-7.45.84-15.65-.2-23.03s-3.67-14.73-8.69-20.23c-3.28-3.6-7.45-6.28-11.68-8.72-5.09-2.93-10.34-5.57-15.73-7.89-6.9-2.98-14.04-5.47-20.61-9.14s-12.63-8.7-15.97-15.44c.78-9.02-2.62-18.02-7.97-25.32-2.07,8.1-.63,16.63.81,24.87,1.47,8.37,2.94,16.76,5.28,24.93.95,3.32,2.06,6.63,2.51,10.05.37,2.77.31,5.58.25,8.38-.09,3.94-.17,7.88-.26,11.82-.02,1.12-.43,2.63-1.55,2.56.49,12.13-.17,23.71.5,35.84.63,11.52,3.06,22.94,7.16,33.72,7.81,20.54-.01,44.57.12,66.54.06,9.3.4,19.43,6.35,26.58.14,9.24,6.41,18.09,13.18,24.38s14.9,10.9,22.45,16.23c7.55,5.33,14.79,11.71,18.55,20.15s-.29,18.13.88,26.91,4.01,17.52,9.46,24.51c2.5,3.21,5.57,6.03,9.19,7.88,5.75,2.95,12.46,3.28,18.57,5.36,6.11,2.08,12.22,7.07,11.94,13.52-1.75,41.07,8.04,83.15,23.8,121.12,1.23,2.97,3.04,6.34,6.23,6.72,20.12,2.4,40.06,0,60.3-.99,8.5-.42,17.23-.81,25.3,1.87,13.47,4.47,22.87,16.72,29.19,29.42,5.28,10.61,9.69,21.62,9.41,33.47-.05,2.18-.18,4.4-.93,6.45-.97,2.63-2.88,4.79-4.93,6.71-10.03,9.41-24.22,14.22-37.9,12.85-1.01-.1-2.12-.28-2.8-1.04-.67-.75-.74-1.87-.62-2.87.51-4.33,4.1-8.11,8.39-8.84,2.92-.5,5.94.29,8.86-.24,6.01-1.1,9.63-7.31,11.35-13.18,4.27-14.54.9-32.14-11.25-41.2-10.07-7.52-23.63-7.85-36.19-7.62-10,.18-20.02.53-29.93,1.9-5.14.71-10.39,1.68-15.48.65-2.84-.58-5.51-1.76-8.16-2.94-4.87-2.16-9.74-4.33-14.61-6.49-3.04-1.35-6.14-2.74-8.53-5.05-5.55-5.34-5.89-13.97-5.86-21.67.13-36.78-11.52-73.78-19.73-109.63-2.55-11.15,2.18-23.97-4.59-33.2-2.85-3.88-7.03-6.54-11.1-9.11-7.82-4.93-15.66-9.94-22.35-16.32s-12.22-14.28-14.34-23.28c-10.05-8.78-21.45-17.71-30.24-27.76-13.81-15.79-22.33-36.14-23.88-57.06-2.35-31.68-2.37-63.98-5.19-95.63-1.65-18.51-.16-37.72-.02-56.31.04-5.63.08-11.29-.72-16.86C9.32,37.93,2.97,25.74,2.64,12.65c-.13-5,.11-8.34,3.71-11.81S14.94-3.35,19.71-1.87Z"/>
  <path class="st5" d="M678.19,9.44c11.13,5.55,20.98,13.33,30.51,21.3,26.26,21.97,51.46,46.79,65.29,78.11,13.84,31.32,14.27,70.48-6.58,97.65-11.57,15.07-28.33,25.1-44.54,35.03s-32.73,20.56-43.34,36.32-13.81,38.09-2.59,53.43"/>
  <path class="st5" d="M568.63,463.52c-5.34,20.99-11.31,41.82-17.91,62.44-4.29,13.41-9.03,27.06-17.98,37.93-15.14,18.36-40.84,25.94-64.44,22.9-23.6-3.03-45.17-15.47-63.04-31.18-17.81-15.66-32.84-34.91-53.4-46.74-20.55-11.83-49.79-13.77-65.57,3.94"/>
  <path class="st5" d="M218.25,541.47c-20.46,11.83-36.96,37.86-25.57,58.56,3.68,6.69,9.72,11.7,15.45,16.74,15.99,14.04,31.07,30.13,38.55,50.05,7.48,19.92,5.91,44.39-8.55,60-13.57,14.64-35.27,18.69-55.2,17.63-24.79-1.32-48.72-9.15-72.16-17.31-24.87-8.66-53.86-17.4-76.13-3.33-13.71,8.66-21.49,24.44-24.8,40.32"/>
  <path class="st15" d="M15.8,7.42c-3.85,18.2,3.75,36.63,6.34,55.05,2.17,15.46.81,31.31,3.6,46.68,4.18,22.97,17.57,45.37,12.51,68.16-1.45,6.53-4.4,13.2-2.58,19.64,2.06,7.28-3.15,14.95-2.32,22.47.91,8.32,7.18,14.97,13.59,20.35,8.94,7.49,18.84,13.83,29.39,18.82,5.42,2.56,11.07,4.81,15.8,8.49,7.32,5.69,11.74,14.24,15.94,22.51,4.8,9.45,12.71,17.71,15.45,27.95s3.69,20.85,5.58,31.28c2.47,13.62,6.56,26.95,12.15,39.62,10.97,24.86,15.46,52.72,25.64,77.91,2.49,6.17,4.6,12.58,8.34,18.08,9.56,14.05,27.73,19.35,44.66,20.9s34.39.4,50.48,5.87c3.32,1.13,6.68,2.63,8.89,5.34,2.26,2.78,3.03,6.45,3.73,9.96,1.32,6.64,2.63,13.29,3.95,19.93-6.07-6.51-8.84-14.74-14.33-21.74-7.99-10.2-21.81-13.81-34.74-14.72s-26.16.22-38.65-3.24c-20.31-5.62-35.8-22.83-44.5-42.02s-11.61-40.42-14.42-61.31c-1.01-7.47.92-15.89,1.45-23.41,1.05-14.83,1.94-30.53-4.86-43.75-5.67-11.02-6.23-25.02-11.27-36.34s-13.1-21.9-24.45-26.88c-14.3-6.28-32.09-3.05-44.96-11.9-7.32-5.03-12.99-12.96-17.31-20.72-2.19-3.94-4.12-8.04-5.46-12.34-5.18-16.61-.81-35.85,11.04-48.59.13-15.93.53-31.09.66-47.02.03-3.72.05-7.53-1.2-11.03-2.03-5.71-7.2-10.01-8.6-15.9-3.13-13.22-6.69-27.65-6.34-41.24.2-7.6,1.14-15.57-1.94-22.52-3.21-7.25-10.7-13.43-9.46-21.26.64-4.03.11-9.43-1.76-13.06l-.04-.02Z"/>
  <path class="st15" d="M253.2,546.52c-7.42,9.02-11.54,20.7-11.41,32.38,0,.94.05,1.9.42,2.76.66,1.55,2.23,2.5,3.74,3.25,2.07,1.02,4.22,1.88,6.43,2.55,2.46.75,5.2,1.26,7.53.19,1.17-.54,2.14-1.43,3.06-2.34,3.45-3.44,6.53-7.59,7.2-12.42s-1.74-10.33-6.36-11.86c.37,2.88.75,5.76,1.12,8.64.18,1.36.35,2.77-.09,4.07-.39,1.17-1.25,2.12-2.17,2.94-3.2,2.83-7.51,4.37-11.78,4.19-.43-.02-.87-.06-1.22-.3-.57-.39-.71-1.15-.8-1.83-.61-4.67-.99-9.46.09-14.04s3.85-8.97,8.1-10.98c4.25-2.01,10.02-1.02,12.61,2.91-1.06-1.61-.97-5.39-1.74-7.37-.83-2.14-1.98-5.04-3.79-6.56-3.63-3.05-8.56.91-10.94,3.81h0Z"/>
  <path class="st9" d="M412.08,361.75c-8.74,1.02-18.75,3.48-22.48,11.45-2.62,5.59-1.21,12.22,1.05,17.96,3.16,8.01,7.89,15.39,13.86,21.59,2.01,2.09,4.23,4.09,6.97,5.04,4.34,1.51,9.11.13,13.44-1.42,6.64-2.38,13.14-5.16,19.44-8.32,6.06-3.03,12.83-8.11,11.82-14.81-.34-2.23-1.54-4.22-2.48-6.27-4.11-8.98-1.75-16.91.28-25.79-12.86-3.12-28.79-.97-41.91.56h.01Z"/>
  <path class="st9" d="M1057.04,71.46c5.95-.63,12.75-2.15,15.29-7.06,1.78-3.45.82-7.54-.72-11.08-2.15-4.94-5.37-9.49-9.43-13.32-1.36-1.29-2.88-2.52-4.74-3.11-2.95-.93-6.2-.08-9.14.88-4.52,1.47-8.94,3.19-13.23,5.13-4.12,1.87-8.73,5-8.04,9.13.23,1.38,1.05,2.6,1.68,3.87,2.8,5.54,1.19,10.43-.19,15.91,8.75,1.93,19.58.6,28.51-.35h0Z"/>
  <path class="st9" d="M1254.74,604.05c15.45-1.9,33.13-6.48,39.73-21.32,4.63-10.41,2.14-22.75-1.86-33.44-5.58-14.91-13.95-28.66-24.5-40.21-3.55-3.88-7.48-7.62-12.31-9.39-22.23-8.17-37.26,23.54-62.64,22.12-2.44-.14-4.96-.36-7.25.48-2.54.93-4.47,3.07-5.87,5.39-5.9,9.71-4.44,23.25-12.39,31.36-5.33,5.44-13.82,7.1-18.64,12.99-6.6,8.05-3.05,21.17,5.24,27.46,23.09,17.5,74.1,7.8,100.49,4.56h0Z"/>
  <path class="st15" d="M29.88,57.32c12.02-.15,23.16,6.99,30.94,16.16s12.82,20.27,18.2,31.02c7.03,14.04,14.81,27.71,23.29,40.93,4.89,7.63,11.02,15.36,17.13,22.05,3.91,4.28,7.99,8.42,12.4,12.18,23.3,19.87,55.99,28.19,85.95,21.87,7.64-1.61,15.31-4.24,21.19-9.38,2.87-2.51,5.23-5.54,7.33-8.71,7.96-11.98,12.5-26.2,12.94-40.58.18-6.01,1.26-11.31,2.76-17.13,3.07-1.4,6.87-.09,9,2.52,2.13,2.61,2.97,6.02,3.71,9.31,3.39,15.05,5.75,30.47,11.6,44.75,1.88,4.6,4.29,9.26,8.38,12.09,2.54,1.76,5.56,2.69,8.54,3.52,11.9,3.33,24.07,5.61,36.22,7.88,10.73,2,18.1,12.75,26.67,19.5s18.35,12.93,29.24,13.51c4.29.23,8.56-.43,12.81-1.08,7.6-1.17,15.2-2.34,22.8-3.5,3.47-.53,7.37-1.34,9.23-4.32,2.11-3.37.35-8.08-2.82-10.48s-7.31-3.02-11.26-3.38c-7.99-.73-16.05-.72-24.04.04-1.03.1-2.42.93-1.81,1.77,2.91,2.47,7.2,1.96,11.01,1.86,5.6-.15,11.23.9,16.39,3.06,2.2.92,4.69,2.87,3.93,5.13-.57,1.7-2.65,2.29-4.43,2.55-7.91,1.19-16,1.18-23.91,0-2.1-.32-4.23-.73-6.09-1.75-3.28-1.78-5.32-5.15-7.9-7.84-9.04-9.41-23.85-10-35.09-16.62-3.26-1.92-6.25-4.37-9.76-5.8-2.75-1.12-5.71-1.58-8.61-2.23-7.17-1.63-14.04-4.55-20.18-8.58.61-3.96-.3-8.16-2.06-11.75s-4.29-6.76-6.92-9.78c-2.68-3.07-5.6-6.23-6.44-10.22-.62-2.94-.03-6.04-.71-8.97-.41-1.79-2.46-2.85-3.73-4.17-2.43-2.53-4.86-5.07-7.3-7.6-2.1-2.19-4.23-4.4-6.83-5.98-1.96-1.18-4.12-1.97-6.27-2.75-2.64-.96-5.33-1.64-8.05-2.37-2.39-.64-5.36-.01-7,1.84s-2.31,4.35-2.88,6.75c-.85,3.58-1.59,7.2-2.07,10.85-.41,3.15-.63,6.34-1.34,9.44-.78,3.39-2.12,6.62-3.47,9.83-1.82,4.34-3.63,8.69-5.45,13.03-.18.42-.48.92-.93.84s-.07-.98.17-.6c-13.93,2.27-27.1,11.17-40.65,15.09-1.65.48-3.94.62-4.59-.98-13,2.57-27.38-2.2-38.98-8.6s-21.83-14.98-32.91-22.26c-7.52-4.94-14.08-11.52-20.88-17.42-2.84-2.46-5.7-4.95-7.83-8.04-2.38-3.47-3.74-7.62-3.87-11.82-.46-15.16-10.91-28.84-12.19-43.95-.14-1.65-.28-3.39-1.22-4.75-1.49-2.15-4.43-2.62-7.04-2.89-4-.42-8.79-2.18-11.69-4.97-.75-.72-1.44-1.5-2.17-2.24-2.92-2.96-6.44-5.23-9.93-7.48-3-1.94-6.24-3.94-9.81-3.9-2.35-.03-4.69.34-7.02.68-.72.1-1.46.24-2.04.66-.63.46-.98,1.19-1.32,1.89-.37.77,0,1.53-.37,2.3l.03-.02Z"/>
  <path class="st10" d="M722.02,141.82c14.54-.35,29.15,2.19,42.72,7.43,3.9,1.5,7.83,3.32,10.58,6.47,5.05,5.79,5.1,14.91,10.65,20.22,4.94,4.72,12.62,4.87,19.4,3.97,4.82-.64,10.06-1.95,12.83-5.94,3.43-4.93,1.52-11.99-2.33-16.6s-9.26-7.59-13.92-11.38-8.87-9.06-8.68-15.06c.09-2.8.95-6.15-1.16-8-.96-.84-2.31-1.08-3.58-1.23-6.04-.72-12.46-.37-17.81-3.26-4.33-2.34-7.34-6.48-10.96-9.81-4.46-4.09-9.87-6.96-15.22-9.78-8.6-4.53-17.19-9.06-25.79-13.6-1.02,11.4-2.03,22.81-3.05,34.21-.18,2.01-.41,4.15-1.65,5.74-2.77,3.56-9.06,3.86-7.44,9.68s10.93,7.05,15.43,6.94h-.02Z"/>
  <path class="st10" d="M286.03,68.27c-7.1-.37-14.23,2.28-20.86,7.73-1.9,1.57-3.83,3.46-5.17,6.73-2.46,6.02-2.49,15.51-5.2,21.03-2.41,4.91-6.16,5.06-9.47,4.13-2.35-.66-4.91-2.03-6.26-6.17-1.68-5.13-.74-12.47,1.14-17.26s4.51-7.89,6.79-11.82c7.89-13.63,5.57-35.56,2.28-49.87-.39-1.69-.84-3.43-.33-5.1,1.42-4.66,9.8-6.32,15.68-4.47s9.86,5.92,13.94,9.6,9.13,7.33,15.48,7.76c2.48.17,5.02-.18,7.45.24,6.92,1.22,9.27,8.34,6.16,13.14-3.2,4.93-10.67,9.55-14.17,13.55-2.33,2.66,1.34,11.25-7.45,10.8v-.02Z"/>
  <path class="st10" d="M405.89,725.02c-6.36,4.88-7.77,13.39-17.89,18.01-4.12,1.88-9.3,1.81-12.89-.95-1.72-1.32-2.98-3.15-4.4-4.79-2.72-3.13-6.13-5.64-9.93-7.31-3.64-1.6-7.63-2.43-11.07-4.44s-6.35-5.72-5.74-9.66c.87-5.59,7.55-7.75,12.02-11.22,3.91-3.05,6.4-7.59,10.13-10.85,4.91-4.28,11.57-6,16.83-9.84,3.55-2.59,6.36-6.06,9.72-8.9,8.66-7.33,19.43-18.11,29.02-5.49,3.73,4.91,4.62,10.53,5.83,15.89s3.21,11.26,8.15,15.27c1.93,1.57,4.2,2.75,5.94,4.5,15.08,15.23-18.49,15.73-24.97,16.15-4.93.32-8.23,1.69-10.75,3.62h0Z"/>
  <path class="st0" d="M759.66,765.25c4.34-14.07,8.01-28.45,9.11-43.14,5.4-72.03-50.67-138.46-43.81-210.36.51-5.38,1.45-10.92,4.41-15.45,5.72-8.76,17.13-11.42,27.42-13.29,29.14-5.3,62.38-9.15,85.5,9.35,42.04,33.63,17.6,112.44,60.19,145.37,18.91,14.63,44.93,14.68,68.83,14.07"/>
  <path class="st3" d="M1006.76,640.76c19.47-43.07,61.68-75.04,108.41-82.13,7.96-1.21,16.26-1.71,23.89.85,5.91,1.98,11.07,5.68,16.59,8.58,17.47,9.17,38.09,10.09,56.56,17.04s36.25,24.44,32.1,43.74c-2.32,10.79-11.1,19.2-20.89,24.29s-20.71,7.49-31.27,10.72c-22.53,6.91-44.67,18.6-57.99,38.04-6.59,9.63-10.28,23.81-2.19,32.21,5.84,6.07,15.27,6.42,23.69,6.38,47.38-.25,94.76-.49,142.14-.74,10.54-.05,21.29-.08,31.35,3.06,10.07,3.14,19.53,10.02,23.1,19.94"/>
  <path class="st4" d="M713.01,757.83c11.03-36.91,22.18-74.95,18.49-113.3-3.57-37.05-20.86-71.98-22.48-109.16-.61-14.01,1.41-29.02,10.45-39.74,9.75-11.57,25.54-15.81,40.44-18.39,16.1-2.78,33.23-4.25,48.31,2.04,27.03,11.28,38.86,44.16,37.44,73.41s-12.77,57.01-18.55,85.71c-3.16,15.67-1.74,36.58,13.46,41.55,11.25,3.67,22.8-4.33,31.18-12.68,15.49-15.43,28.44-34.07,47.39-45,7.37-4.25,16.63-7.17,24.23-3.35,6.89,3.47,10.18,11.25,14.17,17.86,3.99,6.6,10.92,13.12,18.41,11.25"/>
  <path class="st5" d="M768.66,475.04c1.21-.82,3.82-2.02,5.25-1.69,16.53-22.73,12.34-53.87,18.11-81.38,6.97-33.23,30.25-62.62,60.99-77.02s68.23-13.46,98.21,2.46c1.4.74,3.27,3.11,4.38,4.23.56.57,1.29,1.04,2.03,1.32.06.02.15-.05.09-.06"/>
  <path class="st2" d="M417.8,976.38l1.82-1.82"/>
  <path class="st6" d="M994.11,349.3c9.99,7.07,18.29,16.26,27.9,23.84,21.26,16.77,49.85,25.13,76.2,18.92,13.24-3.12,25.41-9.65,38.3-13.99,19.5-6.56,40.3-7.99,60.82-9.38,4.67-.31,9.63-.57,13.75,1.65,5.69,3.07,8.14,10.05,8.36,16.51.69,19.88-14.69,37.46-14.87,57.35-.02,2.59.24,5.26,1.44,7.56,2.25,4.3,7.3,6.37,12.1,7.09,12.49,1.87,25.09-3.14,35.6-10.13s19.56-15.96,29.75-23.41c22.65-16.56,50.97-25.21,79.01-24.12"/>
  <path class="st5" d="M770.08,475.48c-1.03,13.34.59,26.77-.42,40.11s-5.18,27.26-15.37,35.93c-13.33,11.34-33.46,10.66-49.82,4.43s-30.5-17.09-46.1-25.01"/>
  <path class="st19" d="M705.32,737.73c-.42,2.64-.93,5.52.39,7.83,1.65,2.88,5.37,3.66,8.65,4.13,15.07,2.18,31.64,3.79,44.43-4.47,14.45-9.34,19.24-28.37,19.14-45.58-.09-17.2-3.83-34.49-1.27-51.5,2.46-16.37,10.56-31.3,19.14-45.45,3.24-5.34,6.73-10.81,11.99-14.2,5.35-3.45,11.92-4.35,18.27-4.75,15.24-.95,30.76.51,45.61-3.06,14.84-3.56,29.52-13.83,32.23-28.85,2.34-12.97-5.02-26.21-15.45-34.26s-23.48-11.82-36.32-14.77c-5.92-1.36-12.05-2.58-18.02-1.48-9.96,1.83-17.58,9.69-24.18,17.37-10.79,12.56-20.8,25.76-30.8,38.95-15.24,20.1-30.93,41.2-35.49,66-1.1,6-1.87,12.76-6.6,16.61-4.91,3.99-12.54,3-17.56-.84s-7.87-9.87-9.79-15.89c-5.7-17.87-4.59-37.82,3.03-54.95,8.58-19.26,24.86-34.71,31.13-54.84,4.47-14.36,3.29-30.41-3.24-43.96-2.26-4.69-5.23-9.19-9.5-12.16-4.22-2.93-9.4-4.16-14.52-4.67-10.88-1.08-22.34,1.03-31.26,7.36s-14.87,17.22-13.82,28.11c1.31,13.59,12.49,24.2,16.16,37.35,3.95,14.14-1.23,29-5.19,43.14s-6.41,30.47,1.93,42.55c3.82,5.53,9.48,9.48,14.09,14.37,4.61,4.89,8.32,11.59,6.71,18.12-.59,2.42-1.87,4.6-3.13,6.74-3.16,5.37-13.85,17.66-13.8,23.74.04,5,8.67,13.88,10.9,18.81,6.2,13.76,8.62,29.56,6.13,44.5h0Z"/>
</svg>