<?xml version="1.0" encoding="UTF-8"?>
<svg id="Layer_1" xmlns="http://www.w3.org/2000/svg" version="1.1" viewBox="0 0 1366 768">
  <!-- Generator: Adobe Illustrator 30.0.0, SVG Export Plug-In . SVG Version: 2.1.1 Build 123)  -->
  <defs>
    <style>
      .st0 {
        fill: none;
      }

      .st1 {
        fill: #f7ebc5;
      }

      .st1, .st2, .st3, .st4, .st5 {
        stroke: #000;
        stroke-miterlimit: 10;
      }

      .st6 {
        fill: #e3ecef;
      }

      .st7 {
        fill: #bdbcc0;
      }

      .st8 {
        fill: #321b09;
      }

      .st2, .st9 {
        fill: #f0ecef;
      }

      .st10 {
        fill: #e4e4de;
      }

      .st3, .st11 {
        fill: #2a1a0d;
      }

      .st4 {
        fill: #ccc3cc;
      }

      .st5 {
        fill: #ccc;
      }

      .st12 {
        fill: #b3b3b3;
      }

      .st13 {
        fill: #ebdbb3;
      }

      .st14 {
        fill: #e3d3df;
      }

      .st15 {
        fill: #e5e6e7;
      }

      .st16 {
        fill: #a0a5a9;
      }

      .st17 {
        fill: #c6cfcb;
        opacity: .5;
      }
    </style>
  </defs>
  <rect class="st1" x=".13" y=".19" width="1366.26" height="767.39"/>
  <path class="st2" d="M423.72,142.59c-26.33,14.37-52.47,30.51-71.47,53.73-8.64,10.56-15.65,22.4-24.67,32.64-8.98,10.18-19.81,18.61-28.65,28.91-18.19,21.2-26.84,49.04-31.16,76.64-8.66,55.22-1.55,112.83,20.26,164.29,22.84,53.88,60.74,99.81,99.38,143.76,11.35,12.91,22.98,25.87,37.29,35.39,43.27,28.78,100.31,20.53,151.43,11.18,28.79-5.27,57.57-10.54,86.36-15.8,19.05-3.49,39.31-7.58,53.16-21.12,5.03-4.92,8.96-10.89,14.2-15.59,6.71-6.02,15.17-9.64,23.37-13.39,49.07-22.44,94.29-53.25,133.13-90.7,6.63-6.39,13.19-13.14,17.22-21.42,4.12-8.48,5.34-18.04,6.22-27.43,3.94-42.03,2.24-84.35.53-126.53-1.04-25.6-2.22-51.87-12.42-75.37-17.66-40.69-58.52-65.45-88.23-98.38-20.78-23.04-36.94-51.04-62.74-68.27-28.74-19.19-65.11-22.1-99.66-22.4-81.38-.7-151.5,10.58-223.54,49.87Z"/>
  <path class="st3" d="M956.82,486.67c.09-1.19.12-2.38.06-3.59-.89-18.13-19.72-32.96-16.87-50.89,2.05-12.88,14.95-22.34,15.85-35.35.42-6.06-1.89-11.96-2.57-18-1.27-11.25,3.11-22.48,2.45-33.77-.78-13.3-8.36-25.11-15.7-36.23-20.61-31.21-41.21-62.42-61.82-93.63-5.49-8.32-11.22-16.88-19.6-22.28-5.37-3.46-11.63-5.49-16.66-9.43-13.05-10.22-13.82-29.2-18.9-44.98-9.68-30.09-37.24-50.96-65.75-64.61-28.51-13.65-59.47-22.19-86.58-38.44-5.9-3.54-11.86-7.52-18.69-8.32-5.47-.64-10.94.85-16.25,2.32-21.6,5.99-43.2,11.98-64.8,17.97-10,2.77-20.78,5.53-30.55,2.04-7.84-2.8-15.46-9.53-23.33-6.84-6.99,2.39-11.02,11.66-18.4,11.46-4.33-.12-7.69-3.58-11.3-5.95-17.18-11.3-38.04,1.73-53.49,17.04.26-.08.51-.15.75-.21-2.33,2.61-4.69,5.2-7.07,7.78,3.97,1.86,7.42,4.52,10.5,7.71-3.84-1.43-7.99-2.16-12.18-3.06-.33-.67-.58-1.36-.72-2.08-.49.53-.98,1.06-1.48,1.58-1.77-.42-3.53-.9-5.26-1.51-7.23-2.54-17.26,2.6-16.25,10.2l9.5,4c-12.21,12.7-24.65,25.22-36.81,37.91-21.53,22.48-43.71,45.43-71.79,58.85-9.06,4.33-18.48,7.77-26.81,13.48-4.53,3.1-17.03,7.22-18.89,11.66-1.85,4.44-.84,9.49-1.14,14.29-.54,8.66-5.3,16.38-8.96,24.25-9.75,20.96-12.06,44.49-14.24,67.5-3.54,37.5-7.08,75-10.63,112.51-.48,5.05-.97,10.18-2.85,14.89-5.4,13.56.92,30.59,6.93,43.36,23.3,49.5,72.17,85.23,87.92,137.63,1.66,5.51,2.97,11.25,6.07,16.1,12.12,18.95,34.64,16.85,52.57,27.67,11.83,7.14,22.75,15.84,35.14,21.96,2.72,1.34,5.58,2.61,7.59,4.88,3.91,4.4,3.45,11.02,4.86,16.74,2.31,9.43,10.08,16.77,18.86,20.93s18.56,5.58,28.18,6.85c10.74,1.42,21.5,2.72,32.27,3.89,10.51,1.14,21.44,2.12,31.4-1.43,3.85-1.37,7.47-3.39,11.44-4.37,10.25-2.53,21.54.57,32.04-.6,10.49-1.17,20.01-4.71,29.95-8.17,33.9-11.81,67.79-23.61,101.69-35.42,7.36-2.56,14.83-5.19,21.12-9.79,12.67-9.28,18.59-25.02,28.6-37.12,27.33-33.06,77.59-32.71,115.67-52.46,34.48-17.89,57.61-51.72,76.35-85.75,3.04-5.52,6.05-11.31,7.6-17.35.27-1.95.64-3.88.99-5.8ZM499.79,126.71c-1.67.72-3.36,1.38-5.07,1.99,0-.51-.08-1.02-.25-1.55-.9-2.79-3.91-4.22-6.62-5.33-6.3-2.6-12.66-5.21-19.35-6.48-1.79-.34-3.63-.59-5.25-1.43-1.17-.61-2.17-1.51-3.05-2.49-.58-.65-1.11-1.34-1.6-2.06l41.19,17.35ZM456.16,108.33c6.07,10.85,12.36,20.69,21.91,24.34-4.63.6-9.31.79-13.97.57-4.61-.22-9.83-1.21-12.26-5.14-1.16-1.88-1.48-4.13-1.92-6.29-1.42-6.93-4.33-13.31-7.87-19.43l14.1,5.94ZM868.63,441.22c2.39,10.55,11.8,17.85,17.21,27.22,11.39,19.71,2.88,46.03-13.3,62.05-16.18,16.02-38.25,24.27-59.44,32.6-26.66,10.48-53.1,21.83-77.58,36.69-31.22,18.95-58.99,43.45-91.4,60.28-24.23,12.58-50.49,20.55-76.97,26.82-12.36,2.92-26.37,7.74-39.07,8.33-11.69.54-21-9.02-33.61-8.24-10.93.68-21.45,7.95-32.08,5.33-3.74-.92-7.08-3.01-10.27-5.18-9.66-6.56-18.61-14.1-27.54-21.62-2.48-2.09-4.96-4.18-7.44-6.27-5.31-4.48-10.66-8.98-15.14-14.29-10.7-12.68-17.28-30.56-26.18-44.83-20.21-32.4-40.43-64.81-60.64-97.21-9.42-15.1-18.93-30.39-24.41-47.31-5.15-15.92-6.58-32.79-7.04-49.51-.98-35.79,2.46-72.18,15.18-105.64,6.44-16.93,15.16-32.89,23.85-48.78,5.39-9.85,10.93-19.91,19.25-27.46,8.64-7.85,19.64-12.44,30.15-17.52,22.52-10.9,43.63-24.69,62.7-40.89,7.46-6.34,15.58-18.53,24.21-22.79,8.49-4.19,19.23-1.8,28.35-5.95,1.87-.85,3.8-2.13,5.21-3.67,10-2.53,18.71-10.35,28.96-12.96,10.41-2.66,21.31.29,31.94,1.82,40.37,5.84,80.67-8.75,121.35-11.78s89.24,11.97,100.79,51.09c3.99,13.51,3.44,29.39,13.2,39.54,5.48,5.71,13.26,8.44,20.35,11.95,26.48,13.1,44.82,38.13,60.48,63.18,22.34,35.72,41.48,81.96,20.05,118.22-8.98,15.19-25.03,29.56-21.13,46.77Z"/>
  <path class="st3" d="M427.04,72.49c2.13-2.44,4.43-4.91,6.87-7.32-3.62,1.13-8.91,4.8-8.82,9.22,0,.32.05.63.11.93.8-.86,1.6-1.71,2.39-2.57-.18-.09-.37-.18-.55-.26Z"/>
  <path class="st11" d="M397.96,723.88c-.43.96-.78,1.96-1.02,3.02.34-1.01.68-2.01,1.02-3.02Z"/>
  <path class="st11" d="M669.74,26.15c-.51-2.6-.56-5.29-.03-8-.58.21-1.16.45-1.73.69,1,2.31,1.54,4.83,1.53,7.35.08-.01.15-.02.23-.03Z"/>
  <path class="st11" d="M680.99,42.71c1.85-.21,3.69-.4,5.51-.5,2.57-.15,5.28.02,7.91.52,3.53-4.27,7.06-8.54,10.59-12.81-3.99,2.12-8.36,4.31-12.82,3.58-4.46-.73-8.32-5.96-5.97-9.82-5.49.82-10.99,1.64-16.48,2.47,1.29,6.59,5.6,12.55,11.25,16.56Z"/>
  <path class="st11" d="M696.44,43.19c-.67-.18-1.34-.33-2.03-.46-.59.72-1.19,1.44-1.78,2.16,1.27-.57,2.54-1.13,3.81-1.7Z"/>
  <path class="st11" d="M648.26,28.3c3.67-1.89,7.27-3.91,10.78-6.09-1.8,2.9-3.59,5.79-5.39,8.69,3.46-5.3,8.51-9.55,14.33-12.05-.52-1.2-1.16-2.35-1.92-3.42-6.14,1.22-12.27,2.44-18.41,3.66-.49,3.04-.25,6.21.61,9.21Z"/>
  <path class="st11" d="M970.88,359.13c-9.5,1.76-19,3.51-28.5,5.27,8.76-4.99,17.51-9.98,26.27-14.96-4.33-.41-8.65-.81-12.98-1.22,2.83-4.03,5.66-8.07,8.5-12.1-7.28.49-14.56.98-21.84,1.48,3.89-2.56,7.77-5.12,11.66-7.68-4.86,3.11-10.91-4.15-9.09-9.63,1.82-5.47,7.59-8.43,12.84-10.83-5.81-1.55-12.03-1.58-17.85-.07,2.52-8.37,7.27-16.07,13.62-22.08-4.83-.13-9.65-.25-14.47-.38,3.49-.97,2.77-6.8-.49-8.39-3.25-1.59-7.12-.36-10.52.88,2.18-3.45,4.36-6.91,6.55-10.36-6.14.8-12.28,1.59-18.41,2.39,3.01-4.21,6.03-8.43,9.04-12.64-5.11.42-10.23.84-15.34,1.26,3.08-5.39,6.16-10.79,9.24-16.18-6.03,1.2-12.05,2.41-18.08,3.61,2.83-5.71,5.67-11.42,8.5-17.14-10.22,2.19-20.44,4.39-30.66,6.58,4.38-4.94,8.76-9.89,13.15-14.83l-13.46,2.76c9.94-10.56,15.32-25.27,14.54-39.75-6.02,1.51-12.04,3.01-18.06,4.52,1.09-4.39,2.17-8.78,3.26-13.17-4.47-.51-9.06.2-13.17,2.04,5.34-6.5,10.68-13.01,16.02-19.51-11.2,5.72-22.39,11.43-33.59,17.15,3.03-6.39,6.06-12.77,9.09-19.16-4.65,3.09-9.78-6.78-4.58-8.81-7.93-.95-16.07-.13-23.64,2.39,2.39-5.55,4.79-11.09,7.18-16.64-5.5.99-11.01,1.98-16.51,2.97.23-6.86.47-13.73.7-20.59l-27.72-.93c12.51-6.6,7.4-29.94-6.72-30.71,2.71-4.19,5.41-8.38,8.12-12.57-3.98,1.42-7.96,2.85-11.94,4.27.33.06.65.12.98.19-4.06,7.28-8.8,14.17-14.13,20.58-3.27.98-6.63,1.63-10.02,1.92,2.38-4.49,2.35-9.86.57-14.59-1.59.57-3.18,1.14-4.76,1.71-.34-2.92-.24-5.89.27-8.79-2.15-2.18-4.82-3.81-7.84-4.54-12.84-3.13-31.53,5.57-36.61-6.63-1.16-2.78-.97-5.86-1.12-8.89-2.29.32-4.58.64-6.87.96.97-3.53,1.94-7.05,2.91-10.58-.36-.35-.74-.68-1.14-.99-7.61,2.8-16.11.77-22.75-3.95-7.02.79-14.08,1.85-20.6-.57-6.03-2.24-10.37-7.69-12.12-13.85-7,3.6-14.28,6.68-21.76,9.17,3.15-2.93,6.57-6.49,6.23-10.79-.14-1.74-1.38-3.19-2.9-4.05,5.94-1.18,11.88-2.36,17.82-3.55.33-2.07,1-4.09,2.04-5.96-11.14-.75-22.45,1.05-32.8,5.23-.6-3.16.33-6.55,2.36-9.04-11.21,12.01-23.35,23.14-36.3,33.24,2.02-4.5,4.04-9,6.06-13.5-2.57,1.96-5.48,4.03-8.69,3.72-3.22-.31-5.89-4.56-3.63-6.87-4.97,3.26-9.93,6.53-14.9,9.79,1.51-1.97-2.14-6.38-5.48-5.65-3.87.84-7.25,4.22-11.15,3.55-2.51-.44-2.58-3.96-1.61-5.62-2.97.81-5.42,3.61-7.49,6.11-2.59,3.13-6.3,6.43-10.18,5.24-2.79-.85-2.81-5.15-1.27-6.81-10.23,2-19.02,10.5-21.05,20.77.32-6.03-2.08-12.15-6.41-16.36-.84,8.3-1.67,16.6-2.51,24.9-2.97-5.31-6.73-10.99-12.64-12.42-5.66-1.38-12.55,4.4-10.45,9.53-2.4-4.98-5.22-10.16-10.17-12.53-5.18-2.48-13.06.5-12.96,6.24-3.77-1.93-7.54-3.85-11.31-5.78-2.33,8.05-4.65,16.1-6.98,24.15-7.18-4.22-16.68,7.13-11.26,13.46-3.31-.84-6.62-1.69-9.94-2.53-4.41,3.92-8.82,7.85-13.23,11.77.33.21.61.47.84.75-5.64-.57-11.27-1.23-16.87-1.76,3.98,9.49,5.69,19.92,4.95,30.18-3.51-2.13-7.01-4.25-10.52-6.38-.07,4.66-.14,9.32-.21,13.99-3.49-2.82-7.73-4.7-12.16-5.39-2.97,4.75-4.25,10.54-3.56,16.1,0-3.57-5.53-4.7-8.16-2.28-2.63,2.42-3.01,6.37-3.22,9.94-7.65-9.16-25.86,2.21-20.99,13.11-3.85-1.62-7.7-3.24-11.55-4.86-.65,4.75-1.31,9.51-1.96,14.26-4.15-5.11-12.48-6.11-17.73-2.14-5.25,3.97-6.54,12.26-2.75,17.64-5.1-1.15-10.69-2.25-15.35.12-4.66,2.37-6.73,9.86-2.39,12.77-12.81-4.34-28.37,2.37-34.01,14.67,5.21,3.09,11.28,4.73,17.34,4.7-3.55,3.07-4.25,8.93-1.52,12.75-9.37-1.98-19.1-2.26-28.57-.81,2.72,8.86,10.26,16.08,19.23,18.4-5.84-1.01-12.43-1.85-17.17,1.7-4.74,3.55-4.02,13.17,1.89,13.54-8.15,2.9-12,12.81-10.84,21.38,1.17,8.57,6.12,16.09,10.95,23.26-8.69,3.33-16.62,8.63-23.01,15.39,6.11,1.08,12.22,2.15,18.33,3.23-6.14,6.87-12.27,13.73-18.41,20.6,3.71-.28,7.42-.56,11.13-.83-4.96,4.79-8.79,10.74-11.1,17.24,3.57.61,7.14,1.22,10.71,1.82-6.44,8.09-12.88,16.18-19.32,24.27,4.66,1.26,9.85.38,13.84-2.33-2.68,7.08-5.37,14.15-8.05,21.23,3.65.85,7.3,1.71,10.94,2.56-.64,10.85-4.27,21.5-10.39,30.47,10.68,6.49,11.3,24.42,1.11,31.63,4.54-1.3,9.08-2.6,13.63-3.9-3.63,9.03-8.62,17.51-14.75,25.08,4.71.76,9.43,1.53,14.14,2.29.47,7.04-.15,14.14-1.84,20.99,4.56,1.12,9.12,2.25,13.69,3.37-1.66,9.07-3.32,18.14-4.98,27.21,7.61-5.72,19.69-4.13,25.56,3.36,5.87,7.49,4.52,19.6-2.86,25.62,6.5-.04,13.01-.09,19.51-.13-2.05,9.29-6.93,17.94-13.82,24.49,8.3-3.39,16.6-6.77,24.9-10.16-2.27,9.71-6.69,18.9-12.86,26.73,6.2-.95,12.4-1.9,18.6-2.85-.79,6.7-2.81,13.26-5.94,19.23,8.67-1.81,17.33-3.63,26-5.44,2.33,3.63,3.12,8.23,2.11,12.43,8.23-5.35,17.67-8.83,27.4-10.09l-2.82,26.26c5.98.81,12.18-.05,17.72-2.46-3.46,6.6-6.93,13.2-10.39,19.8,5.69-3.15,12.7,3.72,12.29,10.21-.42,6.49-5.26,11.72-9.82,16.35,8.4-2.65,16.8-5.29,25.2-7.94-2.59,5.11-5.18,10.22-7.77,15.33,5.87-4.79,12.85-8.22,20.23-9.93-.03,4.76-.05,9.51-.08,14.27,7.54-1.77,15.08-3.53,22.62-5.3-1.62,4.8-3.24,9.61-4.87,14.41,4.59-10.2,19.42-14.94,28.71-8.24,6.66,4.8,9.5,13.25,14.87,19.46,5.36,6.21,16.7,9.22,20.97,2.21,2.5,16.62,25.69,25.69,38.81,15.19,3.29-2.56,6.59-5.12,9.88-7.68-.68,3.72-1.37,7.44-2.05,11.15,10.12-3.33,20.25-6.65,30.37-9.98.92,3.03,1.84,6.05,2.76,9.08,11.96-5.13,23.93-10.27,35.89-15.4,14.35-.76,28.7-1.52,43.05-2.28,5.11-.27,11.49-4.68,11.67-8.24,1.78,2.26,4.1,4.08,6.75,5.2-.05-3.59-.1-7.17-.15-10.76,20.91,2.1,41.81,4.2,62.72,6.31,3.22.32,6.68.6,9.47-1.04,6.63-3.9,3.48-12.29-2.1-18.7,3.03,1.46,6.52,1.96,9.8,1.2,1.23-4.23.73-8.94-1.35-12.81,7.16,1.26,13.81-7.61,10.58-14.13,3.83,6.1,14.01,4.32,18.24-1.51s4.22-13.61,4.05-20.8l15.26,7.16c2.99-8.67,4.31-17.91,3.87-27.06,6.33,5.09,17.58-2,15.73-9.91,4.1,1.07,8.2,2.14,12.3,3.2.64-4.2,1.27-8.4,1.91-12.6,4.91,3.47,10.18,7.07,16.19,7.38s12.67-4.24,12.23-10.24c5.23,3.74,11.39,6.19,17.77,7.05,1.88-6.91,3.75-13.82,5.63-20.73,3.19,8.42,13.42,13.44,22.03,10.8,8.61-2.64,14.27-12.54,12.18-21.3,3.7,11.25,11.07,21.26,20.71,28.14,1.65-12.68-.02-25.76-4.63-37.68.97-.52,2.07-.74,3.13-.37,3.94,1.38,6.12,5.75,9.88,7.56,6.22,3.01,13.82-2.71,15.4-9.43.32-1.34.46-2.68.49-4.03-6.49-4.81-9.28-14.43-8.13-22.79,1.4-10.16,6.95-19.18,11.05-28.58.31-.72.61-1.44.91-2.17.64,1.61,1.34,3.19,2.05,4.77,0,0,0,0,0-.01.04-.61.29-1.23.67-1.77-.71-1.44-1.43-2.86-2.21-4.27.48-1.2.93-2.42,1.37-3.63,4.19,4.59,11.32,6.84,16.71,4.73,1.78-1.37,3.93-2.42,5.98-2.98-1.02-2.48-3.12-4.47-4.1-6.99-.03.14-.07.28-.1.42-3.99-4.72-8.47-9-13.39-12.72,1.32-5.55,2.44-11.15,3.52-16.75,2.77,2.76,6.11,4.94,9.81,6.23-2.26-4.21-5.12-8.07-8.45-11.5,1.62.34,3.25.62,4.89.79-1.37-1.69-2.88-3.28-4.49-4.74,1.09-5.7,2.17-11.4,3.26-17.1.22.17.44.33.67.49-.03-.14-.08-.27-.1-.41-.42-2.48.08-4.62,1.17-6.43-.18,0-.35.02-.53.03,1.18-6.21,2.37-12.41,3.55-18.62-2.94-1.84-5.87-3.67-8.81-5.51-1.34-6.55,5.05-12.56,11.7-13.47.02-.22.03-.45.05-.67-4.56-1.41-9.12-2.82-13.68-4.23l13.53-6.58c-.28-2.47-.76-4.89-1.48-7.25,0,0-.02,0-.02,0,0,0,.01-.01.02-.02-.6-1.98-1.36-3.92-2.33-5.8,3.13-6.21,6.25-12.42,9.38-18.62-.32.03-.63.07-.95.1.46-.4.93-.73,1.4-1,2.33-4.62,4.66-9.24,6.98-13.86ZM412.26,95.6c-.59-.02-1.18-.05-1.78-.08-.45-1.43-.96-2.88-1.54-4.36,1.34,1.26,2.32,2.92,3.31,4.43ZM389.1,95.89c1.29,2.49,2.94,4.48,4.85,6.05-3,.32-5.98-3.14-4.85-6.05ZM899.19,590.01c.47.78.98,1.53,1.54,2.25-1.28-.33-1.69-1.23-1.54-2.25ZM906.89,448.94c-2.26,22.15-5.31,44.66-14.88,64.76-15.9,33.41-47.59,56.01-77.97,77.12-33.44,23.24-67.01,46.55-103.28,65.07-35.19,17.97-72.64,31.27-110.84,41.36-57.64,15.23-121.16,22.7-175.17-2.56-28.43-13.3-52.68-35.36-68.61-62.4-24.95-42.37-31.39-98.05-70.78-127.48-7.09-5.3-15.16-9.63-20.54-16.67-6-7.85-7.84-18-9.51-27.73-3.68-21.42-7.36-43.04-6.47-64.75,1.42-34.42,14.23-67.22,26.87-99.27,13.71-34.75,28.28-70.78,55.9-95.94,28.7-26.14,85.6-49.57,81.24-93.61,9.62-.54,20.22-3.95,28.97-7.63,100.03-42.18,217.8-40.15,316.32,5.45,12,5.56,24.22,12.15,31.61,23.12,8.79,13.05,9.27,30.03,16.25,44.13,8.82,17.8,26.74,28.86,41.52,42.15,31.2,28.06,49.65,68.26,57.57,109.47,7.92,41.21,6.06,83.67,1.8,125.42Z"/>
  <path class="st11" d="M705.35,45.99l-.46,1.66c1.55,1.49,2.74,3.32,3.37,5.51.38,1.33.52,2.72.59,4.11,9.29-1.29,18.58-2.58,27.86-3.87-1.78,5.38-2.21,11.21-1.23,16.8,7.94-1.67,15.87-3.33,23.81-5-2.47,3.64-4.12,7.81-4.87,12.14,1.97,1.99,3.5,4.44,4.5,7.09,7.54-2.7,15.07-5.4,22.61-8.09-3.94-.75-7.88-1.49-11.82-2.24,2.06-6.9,4.12-13.79,6.18-20.69-9.48.46-18.97.91-28.45,1.37,3.28-4.82,4.9-10.75,4.51-16.57-12.78,3.44-25.56,6.88-38.34,10.32,2.26-5.34,4.52-10.68,6.77-16.01-7.98,3.56-15.96,7.11-23.94,10.67,2.72.73,5.25,1.87,7.3,3.47.54-.2,1.07-.42,1.6-.67Z"/>
  <path class="st11" d="M955.64,493.92c.14-1.36.35-2.71.59-4.06-1.21-2.29-2.63-4.47-4.23-6.51,1.02,3.66,2.23,7.27,3.62,10.81,0-.08,0-.16.02-.24Z"/>
  <path class="st4" d="M1258.67,41.25c1.85.84,4.04.52,5.96-.15s3.73-1.67,5.7-2.19c4.25-1.12,8.74.08,12.91,1.46.73.24,1.51.53,1.89,1.18.23.38.28.83.33,1.27.49,4.54.66,9.11.5,13.67"/>
  <path class="st11" d="M957.43,483.04c-1.86.04-3.72-.01-5.57-.2,1.7,1.13,3.37,2.31,5.02,3.52.2-1.1.39-2.21.55-3.32Z"/>
  <path class="st11" d="M433.45,96.03c-3.57,2.21-7.08,4.84-9.04,8.56-2.04,3.86-2.16,8.4-2.23,12.77-.05,3.54-.03,7.32,1.94,10.26,2.37,3.53,6.88,4.85,11.05,5.67,10.42,2.06,21.08,2.64,31.71,2.61,6.31-.02,12.71-.27,18.72-2.21,15.81-5.1,26.11-22.77,23.28-39.04-1.4-8.05-3.13-15.46-12.14-15.25-10.42.24-21.31,2.07-31.47,4.32-11.15,2.47-22.07,6.28-31.81,12.32Z"/>
  <path class="st5" d="M1241.37,41.91c1.67-2.76,5.31-3.87,8.54-3.49s6.19,1.95,9.05,3.5c6.82,3.68,13.65,7.37,20.47,11.05,4.54,2.45,9.26,5.07,12.13,9.32s3.14,10.68-.81,13.99"/>
  <path class="st4" d="M1208.95,49.94c3.31-5.97,9.83-10.07,16.71-10.5,5.05-.32,10.03,1.21,14.76,2.98,17.4,6.54,33.35,16.82,46.42,29.9,7.13,7.14,13.8,16.43,12.22,26.33"/>
  <path class="st5" d="M1161.92,92.93c5.68-11.65,9.34-23.56,20.05-31.51,9.44-7.01,21.08-11.55,32.96-11.77,32.86-.62,56.27,28.22,79.47,46.55,2.1,1.66,4.25,3.33,5.85,5.47,4.09,5.48,3.85,12.96,2.63,19.66-1.23,6.76-3.13,13.74-6.31,19.87"/>
  <path class="st4" d="M1144.5,135.22c-4.79-16.54,3.98-31.69,13.16-44.62,2.31-3.26,4.76-6.54,8.06-8.82,5.74-3.97,13.15-4.37,19.96-6,4.12-.98,8.11-2.46,12.23-3.39,12-2.72,24.52-.83,36.69,1.07,4.38.69,8.82,1.39,12.89,3.16,4,1.74,7.48,4.45,10.88,7.16,12.01,9.56,23.93,19.71,32.01,32.69,8.41,13.51,13.22,31.17,10.34,46.99-2.44,13.4-9.88,25.86-20.56,34.47"/>
  <path class="st11" d="M567.92,32.99c10.81,4.56,24.89-3.29,26.69-14.88.46,4.85,1.73,9.62,3.75,14.05,3.54-4.1,5.99-9.13,7.05-14.44,1.09,6,10.16,8.5,14.17,3.9.24,3.19,1.38,6.3,3.26,8.88,5.64-5.64,11.87-10.7,18.54-15.07.76,1.72,1.53,3.44,2.29,5.17,8.33-.87,16.42-3.97,23.21-8.88.46,4.84.19,9.74-.81,14.5,5.7-3.07,11.41-6.13,17.11-9.2.23,4.7-.94,9.46-3.31,13.53,4.91-2.62,9.82-5.24,14.73-7.86.38,1.71.76,3.42,1.14,5.13,4.32-2.14,8.64-4.29,12.95-6.43-1.24,5.42-2.48,10.85-3.72,16.27,10.04-5.35,20.08-10.71,30.11-16.06-1.15,4.86-3.99,9.3-7.91,12.39,3.27.82,6.78,1.15,9.61,2.99s4.61,5.93,2.6,8.64c5.01-.38,10.02-.77,15.03-1.15.83,3.07,1.05,6.31.65,9.47,5.03-2.75,10.07-5.5,15.1-8.24.85,2.59,1.12,5.37.77,8.07,3.23-1.57,6.45-3.14,9.68-4.71-.07,7.48-1.54,14.95-4.32,21.9,5.91-1.77,11.83-3.54,17.74-5.31.84,4.86.59,9.91-.75,14.67,1.38-.23,2.76-.45,4.14-.68.15,9.43-1.65,18.89-5.27,27.6-.41.98-.88,2-1.77,2.57-1.09.7-2.5.54-3.78.34-39.39-6.07-77.02-20.13-114.51-33.63-9.75-3.51-19.59-7.01-29.84-8.6-11.96-1.86-24.15-1.08-36.26-1.22-14.13-.17-28.24-1.61-42.11-4.3-3.04-.59-5.63-1.49-7.26-4.24,3.07-2.18,5.4-3.95,7.16-7.33.76-1.45,4.41-17.72,4.13-17.85Z"/>
  <path class="st5" d="M1139.66,206.21c-4.86-2.07-8.19-6.8-9.61-11.83-1.42-5.04-1.17-10.38-.53-15.57,2.26-18.32,9.3-36.04,20.25-50.99,3.86-5.27,8.3-10.29,13.98-13.61,6.6-3.86,14.4-5.15,22.05-5.71,7.35-.53,14.95-.42,21.8,2.28,5.79,2.28,10.79,6.3,16.73,8.18,2.86.91,5.87,1.3,8.78,2.06,7.02,1.84,13.25,5.8,19.35,9.71,5.3,3.4,10.61,6.8,15.79,10.38,5.02,3.48,10.04,7.27,13.28,12.41,2.7,4.29,4.02,9.31,4.51,14.34,1.18,12.07-2.33,24.41-9.08,34.55s-16.62,18.09-27.72,23.31"/>
  <path class="st4" d="M1140.27,202.48c-2.2-6.15-1.81-12.91-.66-19.33,2.46-13.71,8.45-27,18.25-37.01,9.8-10.01,23.59-16.5,37.7-16.29,9.06.14,17.91,2.95,26.01,6.96,7.91,3.92,16.6,8.72,22.57,15.28,6.43,7.08,10.17,16.15,16.9,23.01,3.3,3.36,7.27,6.11,10.02,9.91,7.44,10.27-2.62,22.04-9.35,29.8-8.34,9.61-18.81,17.48-30.64,22.41-18.74,7.82-40.84,8.03-59.28-.46-7.76-3.57-14.01-8.77-18.96-15.63-4.3-5.95-10.07-11.7-12.56-18.65Z"/>
  <path class="st2" d="M1167.77,149.4c-6.66,7.18-13.52,14.69-16.43,24-4.56,14.61,1.53,30.26,8.55,43.9,2.51,4.87,5.3,9.85,9.81,13,6.98,4.89,16.41,4.33,24.81,2.67,17.54-3.45,34.05-10.67,50.39-17.84,7.13-3.13,14.95-6.96,17.59-14.21,2.76-7.58-1.3-15.86-5.98-22.46-10.57-14.93-28.57-32.97-47.09-37.74-6.5-1.67-11.06.69-17.38,1.54-10.24,1.37-16.52-1.21-24.26,7.14Z"/>
  <path class="st15" d="M604.18,268.7c-19.54-.54-40-13.45-57.33-4.39-7,3.66-11.86,10.33-17.91,15.4-12.07,10.12-28.56,13.69-40.75,23.67-16.62,13.61-22.21,36.48-24.16,57.88-1.94,21.39-1.37,43.58-9.56,63.44-2.74,6.66-6.5,13.16-6.84,20.35-.44,9.23,4.79,17.65,9.83,25.4,11.54,17.76,23.08,35.51,34.62,53.27,3.23,4.97,6.61,10.09,11.58,13.33,6.44,4.19,14.55,4.6,22.23,4.79,43.86,1.07,87.79-.95,131.37-6.02,13.16-1.53,27.61-4.06,35.93-14.36,9.15-11.34,7.51-27.91,13.38-41.25,4.15-9.44,11.83-16.77,18.67-24.49,14.72-16.64,26.17-36.16,33.49-57.13,3.71-10.62,6.12-23.21-.28-32.46-2.89-4.18-7.26-7.1-11.7-9.57-13.83-7.66-29.96-12.23-40.65-23.89-11.17-12.18-14.29-29.94-24.62-42.85-5.54-6.93-12.93-12.15-20.52-16.75-21.41-12.98-34.41-3.74-56.76-4.36Z"/>
  <path class="st0" d="M346.83,221.19c8.73,2.79,17.5,6.83,23.14,14.05,5.26,6.72,7.27,15.52,12.41,22.34,3.59,4.76,8.52,8.31,13.37,11.78,9.14,6.54,18.28,13.08,27.42,19.62,11.44,8.18,23.21,16.72,30.33,28.85"/>
  <path class="st0" d="M591.84,348.33v.52"/>
  <path class="st6" d="M1179.27,169.17c-1.52,1.08-2.99,2.35-3.81,4.01-.99,2.02-.92,4.38-.82,6.63.3,6.81.6,13.61.9,20.42.14,3.24.32,6.61,1.94,9.43,2.69,4.71,8.74,6.61,14.21,6.39s10.72-2.11,16.1-3.13c7.02-1.33,14.53-1.27,20.78-4.7,4.22-2.31,7.55-6.16,9.21-10.63.71-1.92,1.12-4.06.45-5.99-.63-1.82-2.11-3.21-3.54-4.52-4.9-4.49-9.84-8.95-14.71-13.47-3.85-3.58-5.87-6.79-11.09-8.55-9.64-3.24-21.37-1.99-29.62,4.12Z"/>
  <path class="st14" d="M1225.17,82.41c5.56,1.08,10.79,3.39,15.97,5.68,4.28,1.89,8.56,3.79,12.84,5.68,3.44,1.52,6.91,3.06,9.98,5.25,3.66,2.61,6.64,6.05,9.58,9.46,3.01,3.49,6.03,6.99,9.04,10.48,2.03,2.35,4.08,4.73,5.55,7.47,1.23,2.29,2.03,4.78,2.82,7.26,2.23,6.99,4.47,13.99,6.7,20.98,2.01-4.15,1.01-9.06-.03-13.56-1.34-5.82-2.73-11.75-5.79-16.88-1.78-2.99-4.09-5.62-6.39-8.22-8.63-9.74-17.84-19.55-29.75-24.79-3.45-1.52-7.08-2.63-10.47-4.29-3.26-1.59-6.26-3.67-9.58-5.14-4.28-1.89-8.95-2.7-13.57-3.49-6.47-1.11-13-2.22-19.55-1.85-7.58.44-14.78,2.89-21.76,5.71-4.43,1.79-11.43,2.83-11.12,9.02,18.99.12,35.95-12.57,55.54-8.77Z"/>
  <path class="st14" d="M1246.19,50.26c3.59,1.66,6.8,4.05,9.95,6.44,8,6.06,15.91,12.28,23.01,19.38,4.17,4.18,8.11,8.69,13.07,11.89.21-2.82-1.17-5.56-3.06-7.66s-4.28-3.68-6.57-5.34c-8.57-6.22-16.06-13.87-24.89-19.71-7.7-5.09-16.35-8.72-25.36-10.67-.86-.19-4.73-1.55-4.9.32-.12,1.27,3.79,1.37,4.79,1.55,4.74.89,9.55,1.76,13.96,3.8Z"/>
  <path class="st14" d="M1271.56,41.19c-.79-.12-1.6-.22-2.4-.12-1.65.21-3.16,1.36-3.8,2.9,2.17.51,4.34-.87,6.57-.83,1.57.03,3.02.75,4.48,1.31,1.19.46,2.77.99,4.05.58s1.41-1.35.28-1.98-3.13-.64-4.38-.91c-1.59-.35-3.18-.69-4.79-.94Z"/>
  <path class="st10" d="M476.86,152.31s-.04,0-.06,0c-5.89-2.67-12.99-.97-18.41,2.54s-9.57,8.63-13.88,13.45c-14.58,16.33-31.95,30.13-51.07,40.8-16.56,9.24-34.91,16.5-47.6,30.59-6.08,6.75-10.55,14.76-14.97,22.69-10.22,18.35-20.5,36.82-27.28,56.7-8.54,25.03-11.3,51.6-13.61,77.94-2.21,25.18-3.81,51.79,7.29,74.51,15.41,31.53,52.59,49.72,63.08,83.21,4.21,13.45,5.15,30.47,17.69,36.91,11.45,23.64,26.84,45.64,44.7,64.89,9.13,9.83,19.48,19.26,32.31,23.18,20.36,6.22,42.39-2.6,63.5.14,8.68,1.13,17.19,4.21,25.93,3.75,6.94-.36,13.55-2.93,20.01-5.46,25.9-10.15,51.87-20.34,76.34-33.57,22.88-12.38,44.33-27.38,63.81-44.62,31.48-27.87,75.31-38.22,113.01-56.82,12.39-6.11,24.97-12.35,35.12-21.72,10.15-9.37,17.72-22.48,17.23-36.28-.14-3.96-.96-7.95-2.87-11.42-.96-1.76-2.2-3.38-2.92-5.24-.58-1.5-.82-3.11-1.05-4.7-1.3-8.98-2.59-17.95-3.89-26.93-.63-4.37-1.26-8.77-1.06-13.18.55-11.89,7.05-22.58,13.36-32.68,3.18-5.09,3.33-10.98,5.07-16.73,8.16-27.03,1.3-58.07-17.47-79.16-3.67-4.12-7.77-7.9-10.91-12.44-4.88-7.05-7.26-15.65-12.53-22.42-5.05-6.48-12.34-10.77-19.53-14.75-11.58-6.42-23.46-12.52-33.65-20.97s-18.73-19.61-21.27-32.6c-4.08-20.86-10.36-44.41-30.67-50.68-6.7-2.07-13.77-2.55-20.77-3.02-25-1.67-50-3.34-75.03-4.55-7.34-.36-14.73-.67-22.01.32-7.58,1.03-14.89,3.45-22.35,5.17-14.57,3.38-29.76,4.09-44.58,2.09-15.32-2.06-31.73-6.82-45.57.06-3.81,1.89-7.16,4.58-10.87,6.66-2.98,1.66-6.6,3.5-10.04,3.88-2.55.28-2.54.46-2.86-2.18-.19-1.59.2-3.46,1.32-4.65.67-.71,1.55-1.16,2.42-1.6,5.51-2.78,11.03-5.56,16.54-8.35,6.62-3.34,13.5-6.75,20.9-7,6.16-.21,12.15,1.79,18.2,2.93,6.18,1.16,12.52,1.44,18.78.81,8.54-.86,16.92,1.23,25.21-1.03s16.29-5.57,24.71-7.23c5.11-1.01,10.31-1.39,15.5-1.78,6.67-.5,13.34-.99,20.01-1.49,25.89-1.92,52.31,4.52,78.23,3.05,14.93-.85,28.72,9.56,36.8,22.14,1.93,3,3.51,6.2,5.08,9.4,2.92,5.92,5.84,11.83,8.76,17.75,2.87,5.82,5.76,11.7,7.21,18.02.59,2.59.94,5.26,1.89,7.75,1.43,3.77,4.13,6.9,6.91,9.83,3.13,3.3,6.67,6.59,11.13,7.48,2.95.59,5.35,3.88,7.99,5.33,4.19,2.29,8.37,4.58,12.46,7.04,15.64,9.43,30.03,21.77,38.71,37.83,4.88,9.03,10.45,17.96,16.24,26.43,10.09,14.76,16.97,31.7,20.03,49.31,1.15,6.66,1.77,13.44,1.23,20.18-.67,8.42-3.1,16.58-5.56,24.65-1.76,5.79-3.65,11.76-7.66,16.3-1.66,1.88-3.7,4.24-4.86,6.46-1.74,3.33-5.13,7.1-6.7,10.52-2.12,4.61-2.8,9.74-3.46,14.77-.59,4.54-1.18,9.22-.04,13.65,2.4,9.36,11.53,15.06,17.93,22.29.66.74,1.3,1.53,1.62,2.47.39,1.17.24,2.44.24,3.68-.02,7.17,5.14,14.29,2.7,21.04-3.63,10.04-10.01,18.86-17.51,26.46-5.36,5.44-10.76,10.91-17.04,15.26-3.47,2.4-7.18,4.44-10.88,6.47-2.99,1.64-5.99,3.28-8.98,4.92-10.75,5.89-21.53,11.8-32.84,16.54-8.04,3.37-16.32,6.13-24.42,9.36-17.74,7.07-34.59,16.39-50.02,27.65s-31.51,21.01-46.99,31.82c-7.54,5.27-15.3,10.22-23.11,15.08-13.68,8.51-27.74,16.85-43.28,21.1-8.42,2.3-16.62,4.18-24.95,6.77-4.24,1.32-8.48,2.64-12.73,3.96-15.46,4.81-31.18,9.67-47.37,9.95-3.81.07-7.65-.13-11.33-1.1-3.51-.93-6.8-2.55-10.28-3.55-15.85-4.53-33.81,4.19-48.92-2.4-9.3-4.06-16.95-11.2-25.21-17.1-.93-.67-1.87-1.34-2.62-2.21-.94-1.09-1.52-2.43-2.31-3.64-1.98-3.02-5.13-5.02-7.99-7.22-6.06-4.65-11.13-10.48-15.7-16.6-5.19-6.95-9.8-14.31-14.4-21.67-3.54-5.66-7.08-11.33-10.63-16.99-13.1-20.94-26.26-42.01-35.71-64.83-1.17-2.83-3.24-4.66-5.28-6.96-22.44-25.3-33.44-58.52-42.88-91-.9-3.09-1.8-6.27-1.59-9.48.31-4.86-2.91-9.19-4.26-13.88-1.08-3.72-2.15-7.45-2.85-11.26-1.5-8.17-1.25-16.55-.81-24.85,1.3-24.57,4.4-49.81,16.41-71.28,5.62-10.04,8.78-20.86,13.38-31.4,4.18-9.6,8.38-19.23,13.83-28.18s12.2-17.24,20.74-23.3c2.29-1.62,4.69-3.08,7.09-4.53,1.92-1.16,3.84-2.33,5.76-3.49,6.92-4.19,13.83-8.38,20.75-12.57"/>
  <path class="st12" d="M1237.95,527.66c-.42-.03-.84-.04-1.24-.02-7.14.31-10.22,5.69-15.5,8.79-9.58,5.63-21.05,8.13-30.05,14.46-10.72,7.54-20.71,15.41-32.94,21.54-3.61,1.81-7.39,3.5-10.45,5.85-6.46,4.95-8.94,12.16-13.24,18.39-3.01,4.36-6.11,3.13-10.07,5.07-4.43,2.17-7.39,5.47-9.84,9.12-5.11,7.59-6.87,16.42-8.34,24.81-.69,3.97-1.35,8.16.69,11.84,2.37,4.29,7.9,6.94,13.31,8.95,24.27,9.03,62.57,16.18,87.83,8.22,17.52-5.52,35.54-10.08,53.85-13.7,6.51-1.29,15.36-1.5,20.8-4.61,6.24-3.57,11.37-9.36,18.01-13.17,10.65-6.11,20.6-14.33,22.26-24.56,1.25-7.73-2.42-15.6-.8-23.29,1.67-7.95,15.11-13.4,13.7-20.66-1.57-8.02-15.6-17.84-22.88-22.87-9.37-6.47-19.77-5.01-31.44-7.55-29-6.3-51.53-7.01-72.48,13-8.43,8.05-13.83,17.72-18.88,27.34-4.88,9.29-10.55,19.51-22.27,23.65-7.72,2.73-16.6,2.21-24.94,3.4-12.08,1.73-23.53,7.59-28.61,16.32s-2.55,20.21,7.18,26.06c6.42,3.86,14.82,4.94,22.83,5.89,18.59,2.22,37.19,4.43,55.88,6.14,6.08.56,12.65.98,17.91-1.45,6.38-2.94,8.81-9.07,13.12-13.77,12.94-14.08,40.37-13.57,58.02-24.08.92-.55,1.84-1.15,2.31-1.97.9-1.56-.03-3.35-.74-4.97-4.23-9.65-.17-20.42,6.4-29.25,5.41-7.27,12.82-14.81,11.05-23.11-1.95-9.13-14.07-14.5-25.22-17.67-9.27-2.64-19.06-3.77-28.31-6.28-4.93-1.33-11.39-5.5-16.89-5.88Z"/>
  <path class="st16" d="M1243.84,588.43c-7.4-.55-14.83-.77-22.43-.03-19.02,1.85-37.22,7.26-50.39,15.79-1.62,1.05-3.18,2.15-4.18,3.45-1.33,1.73-1.57,3.72-3.04,5.41-1.96,2.26-5.78,3.66-9.43,4.96-15.07,5.36-30.14,10.71-45.21,16.07-1.72,3.75,4.01,7.12,9.17,9.46,16.97,7.69,37.23,15.4,57.99,12.67,13.67-1.8,24.54-7.8,38.01-9.81s31.56-.63,46.39-1.5c4.23-.25,8.62-.52,12.2-1.56,3.57-1.03,5.9-2.69,8.11-4.3,3.27-2.38,6.55-4.76,9.82-7.14,2.67-1.94,5.36-3.9,6.87-6.07,1.92-2.76,1.82-5.7,2.57-8.57,1.76-6.8,11.19-10.24,14.23-15.9,2.96-5.51-10.28-9.29-19.58-10.08-4.44-.38-8.96-.21-13.45-.16-12.87.12-25.22-1.75-37.65-2.69Z"/>
  <path class="st7" d="M1150.94,584.05c-3.3,9.2-7.53,19.4-16.6,23.03-4.49,1.8-9.88,1.81-13.45,5.08-1.68,1.53-2.73,3.62-3.74,5.65-1.91,3.82-3.82,7.64-5.73,11.46,12.03-5.35,24.06-10.71,36.09-16.06,4.59-2.04,9.23-4.11,13.2-7.19,5.38-4.15,9.43-10.05,15.43-13.24,3.53-1.88,7.51-2.69,11.43-3.48,21.24-4.28,43.2-8.56,64.4-4.08,19.55,4.13,40.07.16,59.65,4.09,1.41.28,3,.54,4.17-.28,1.69-1.18,1.44-3.68,1.71-5.72.92-6.89,9.26-10.89,10.37-17.75.63-3.91-1.36-7.9-4.28-10.58s-6.65-4.28-10.37-5.68c-16.13-6.08-33.34-9.31-50.58-9.49-7.81-.08-16.22.3-22.69-4.08-1.34-.9-2.76-2.05-4.36-1.8-1.32.21-2.28,1.31-3.27,2.22-2.97,2.73-6.95,4-10.75,5.35-20.82,7.42-39.67,19.39-58.31,31.27-5.09,3.24-10.31,5.61-12.34,11.28Z"/>
  <path class="st9" d="M1298.79,551.64c4.77,1.04,9.83,2.43,12.99,6.15,4.96,5.84,3.12,14.94-.95,21.43s-10.01,11.73-13.47,18.57c-5.72,11.32-4.35,26.33-13.57,35.04-.58.55-1.25,1.23-1.07,2,.21.89,1.35,1.13,2.27,1.18,3.7.22,8.06.15,10.25-2.84,1.22-1.65,1.43-3.83,1.45-5.88.08-7.44-1.68-15.35,1.61-22.03,2.32-4.71,6.78-7.95,9.94-12.13,4.61-6.08,6.39-14.02,11.44-19.74,1.81-2.05,4.01-3.77,5.54-6.04s2.25-5.39.82-7.72c-.98-1.59-2.74-2.49-4.25-3.6-3.75-2.76-6.13-7.09-9.9-9.82-4.9-3.55-11.4-3.9-17.44-3.48s-12.16,1.49-18.09.29c-8.08-1.64-15.38-8.16-23.83-7.95-3.94.1-13.5,4.74-9.18,9.84,2.22,2.63,8.64,1.34,11.65,1.41,4.91.13,9.81.41,14.7.84,9.78.87,19.5,2.36,29.08,4.46Z"/>
  <path class="st16" d="M1209.62,557.57c-14.83-.89-27.92,8.95-39.49,18.27-4.09,3.3-8.24,6.65-11.32,10.91s-5.02,9.61-4.12,14.79c3.87-4.52,7.74-9.03,11.61-13.55,3.22-3.76,6.77-7.72,11.58-8.88,9.09-2.19,17.92,6.55,27.17,5.13,4.99-.77,9.09-4.38,13.94-5.8,3.72-1.09,7.69-.82,11.55-1.18s7.97-1.58,10.24-4.72c5.33-7.38-2.63-8.81-7.57-9.56-8-1.21-15.45-4.92-23.58-5.41Z"/>
  <path class="st8" d="M495.96,68.79c2.43,2.94,4.31,6.32,5.54,9.93,4.34-2.08,8.36-4.84,11.85-8.15,0,2.64,3.27,4.67,5.64,3.5.13,1.75.26,3.5.4,5.25.89-2.23,1.89-4.6,3.9-5.91s5.34-.81,6.03,1.49c6.91-4.7,13.81-9.4,20.72-14.09.7,2.09,1.4,4.17,2.1,6.26,4.83-5.46,10.53-10.15,16.83-13.82,1.05,6.06.65,12.36-1.16,18.23,9.25-9.68,19.43-18.46,30.37-26.19.77,1.53,1.04,3.3.77,4.99,2.85-2.32,6.09-4.17,9.54-5.44.79,2.29,1.03,4.77.7,7.17,4.12-2.5,8.49-4.57,13.02-6.17.5,2.41,1,4.82,1.5,7.23,4.37-4.73,9.25-8.98,14.54-12.65,1.13,3.35,1.51,6.96,1.09,10.47,3.32-4,7.34-7.42,11.83-10.04.26,2.67,1.15,5.27,2.56,7.54,5.66-2.75,11.32-5.51,16.99-8.26-.59,3.45-1.17,7.07-.05,10.39s4.53,6.15,7.93,5.35c1.65-.39,3.46-1.53,4.86-.58,1.04.7,1.16,2.16,1.18,3.42.05,4.13.11,8.26.16,12.39,5.97-2.39,11.54-5.77,16.41-9.96-.22,2.39,3.55,2.85,5.55,1.52s3.84-3.54,6.22-3.24c2.97.38,3.93,4.25,3.6,7.23s-1.11,6.37.8,8.67c5.82-3.17,11.64-6.34,17.46-9.5-.66,6.74.2,13.62,2.51,19.99.75,1.53-.71,3.4-2.39,3.72s-3.36-.4-4.91-1.11c-1.99-.9-3.97-1.8-5.96-2.7-4.01-1.82-8.16-3.67-12.56-3.82s-9.18,1.81-11.04,5.8c-6.91-3.59-13.84-7.14-20.79-10.65-3.27-1.65-7.08-4.28-6.51-7.89-3.11,2.51-8.35,4.75-10.44,1.34-4.71,4.15-9.65,8.03-14.8,11.61-2.62-4.83-5.23-9.67-7.85-14.5-6.85,3.56-13.71,7.12-20.56,10.68-.44-2.52-.89-5.04-1.33-7.55-4.23,3.75-8.46,7.51-12.69,11.26-.49-2.84-.99-5.67-1.48-8.51-5.16,4.88-10.83,9.22-16.88,12.94-1.2-1.74-2.41-3.48-3.61-5.22-6.29,3.85-12.58,7.71-18.86,11.56,1.12-4.85-6.74-6.65-10.94-3.98s-7.57,7.42-12.55,7.63c-.38-4.56-.76-9.12-1.14-13.68-22.4.99-44.11,12.43-57.58,30.35-.78-6.4-2.96-12.62-6.34-18.1-1.67.29-3.34.59-5,.88-.91.16-11.05-16.03-12.06-17.6,12.11-2.04,9.34,7.93,17.32,11.26s15.92-14.69,19.59-20.73Z"/>
  <path class="st8" d="M247.59,286.13c3.79.44,7.49,1.57,10.87,3.33,1.69-4.51,2.68-9.28,2.91-14.08,1.83,1.91,5.59,1.11,6.49-1.38,1.31,1.17,2.62,2.34,3.92,3.52-.9-2.22-1.83-4.63-1.28-6.97s3.29-4.28,5.38-3.1c1.73-8.17,3.46-16.34,5.19-24.51,1.95,1.02,3.9,2.04,5.84,3.06-.3-7.28.57-14.61,2.57-21.62,4.95,3.64,9.02,8.47,11.78,13.96-.03-13.39,1.24-26.78,3.78-39.92,1.61.57,3.03,1.66,4,3.07.45-3.65,1.51-7.22,3.12-10.53,2.16,1.11,4.05,2.73,5.47,4.69,1.24-4.65,2.96-9.17,5.12-13.47,2.03,1.39,4.06,2.79,6.09,4.18-.13-6.44.46-12.89,1.74-19.19,3.14,1.63,5.91,3.98,8.03,6.8-.38-5.18.16-10.43,1.58-15.43,2.04,1.74,4.48,3.01,7.07,3.67,2.18-5.91,4.36-11.82,6.53-17.72,1.97,2.9,4.06,5.91,7.16,7.53s7.52,1.3,9.43-1.64c.92-1.42,1.44-3.5,3.1-3.79,1.24-.22,2.34.75,3.22,1.65,2.9,2.94,5.8,5.89,8.7,8.83,2.65-5.86,4.33-12.15,4.95-18.55,1.5,1.88,4.53-.4,5.05-2.75s.31-5.21,2.24-6.65c2.4-1.79,5.78.35,7.6,2.72s3.61,5.37,6.58,5.7c2.01-6.32,4.01-12.63,6.02-18.95,4.19,5.32,9.58,9.69,15.65,12.68,1.6.58,1.84,2.95.85,4.34s-2.7,2.03-4.31,2.6c-2.06.73-4.11,1.45-6.17,2.18-4.15,1.47-8.42,3-11.71,5.94s-5.37,7.66-3.94,11.83c-7.47,2.2-14.93,4.44-22.37,6.71-3.5,1.07-8.07,1.82-10.16-1.19-.5,3.97-2.73,9.21-6.6,8.19-.53,6.25-1.41,12.47-2.64,18.63-5.24-1.68-10.47-3.35-15.71-5.03-2.48,7.32-4.96,14.63-7.44,21.95-2.06-1.51-4.13-3.02-6.19-4.53-.45,5.64-.9,11.27-1.36,16.91-2.32-1.71-4.64-3.41-6.96-5.12-.35,7.09-1.43,14.15-3.22,21.03-2.07-.42-4.15-.84-6.22-1.27-1.87,7.13-3.74,14.27-5.61,21.4-2.55-4.28-9.47-.13-10.65,4.71s-.33,10.6-3.77,14.19c-3.43-3.03-6.86-6.05-10.3-9.08-15.48,16.22-23.22,39.51-20.53,61.77-4.99-4.08-10.87-7.06-17.11-8.67-1,1.37-2,2.73-3,4.1-.55.75-19.08-3.91-20.89-4.35,7.32-9.86,12.23-.74,20.29-3.87s1.32-21.62-.22-28.52Z"/>
  <path class="st0" d="M261.87,347.33c-7.53-2.07-16.19.93-20.81,7.23"/>
  <path class="st0" d="M242.76,369.22h1.01"/>
  <path class="st8" d="M240.85,345.38c-.78,1.29-1.45,2.95-.67,4.24s3.45.66,2.97-.77c-2.59.89-4.84,2.74-6.22,5.11,2.59.02,5.17.04,7.76.06-5.97,2.37-11.31,6.34-15.29,11.38,4.58.43,9.15.85,13.73,1.28-2.38,6.06-5.67,11.76-9.72,16.86,4.17,9.12,1.67,20.83-5.85,27.45,2.63-.06,5.26-.11,7.9-.17-1.96,4.23-3.91,8.46-5.87,12.69l9.25-4.64c-1.57,5.73-3.73,11.3-6.43,16.6,1.31-1.43,3.13-2.38,5.05-2.63.5,4.71-.16,9.54-1.9,13.94.51-1.76,2.29-3.07,4.12-3.03-.45,6.92-2.29,13.75-5.38,19.96,1.61-3.24,3.87-6.16,6.61-8.52-1.02,6.86-3.47,13.51-7.15,19.39l4.82-5.25c.06,6.31-1.45,12.63-4.34,18.23,9.56-3.17,20.04-3.5,29.78-.94l-5.39,6.07c4.39.66,8.68,2,12.67,3.94-3.39,5.12-8.75,8.89-14.71,10.33,3.19,2.52,2.79,8.28-.71,10.34,3.23-.47,6.47-.95,9.7-1.42-5.36,8.5-10.71,17-16.07,25.49,7.39-3.54,14.77-7.07,22.16-10.61-2.16,3.08-4.31,6.16-6.47,9.24,3.84-3.95,9.2-6.39,14.71-6.67-2.51,8.45-6.57,16.43-11.92,23.43,5.03-4.65,11.15-8.13,17.73-10.06.49,6.65-2.75,13.46-8.22,17.27,4.55-4.51,10.43-7.65,16.7-8.94-2.92,7.84-6.35,15.49-10.26,22.89,4.88-2.66,10.13-4.65,15.55-5.9,1.68,4.86-1.1,10.81-5.91,12.64,4.56-1.09,9.13-2.18,13.69-3.27,1.29-.31,2.79-.57,3.81.27,1.22,1,1,2.88.94,4.46-.16,4.47,1.94,8.7,2.65,13.12s-.71,9.94-5.01,11.2c1.78-2.47,4.88-3.93,7.92-3.72-.12,5.28-1.33,10.53-3.53,15.34,2.91-5.26,7.45-9.61,12.84-12.29.6,3.96.52,8.01-.22,11.95,1.44-2.27,3.68-4.02,6.23-4.87,1.28,4.91,1.2,10.16-.22,15.03,2.91-3.68,6.42-6.88,10.36-9.43.91,6.64.5,13.45-1.18,19.93,1.89-.85,3.25-2.79,3.41-4.86,1.71,3.44,5.69,4.99,9.33,6.24,5.58,1.92,11.16,3.84,16.74,5.76,1.87,7.32-.49,15.56-5.94,20.78.81,3.35,1.62,6.7,2.42,10.06.94-2.23,1.88-4.46,2.82-6.69,1.41,5.33,8.3,6.41,13.77,7.13s12.27,4.23,11,9.59c2.26-1.32,4.52-2.64,6.78-3.97.09,2.23.18,4.46.27,6.69,1.39-1.6,2.77-3.21,4.16-4.81.96,3.04.61,6.48-.94,9.26-1.63-.26-.16-3.25,1.33-2.53s1.38,3,.38,4.31c2.14-1.24,4.28-2.48,6.41-3.72.35,3.27.69,6.55,1.04,9.82,1.35-3.29,4.57-5.73,8.1-6.14-1.82-13.34-8.91-25.89-19.39-34.35-2.36,4.2-4.72,8.39-7.07,12.59,1.84-7.03,2.46-14.38,1.82-21.63-11.95-.44-21.93-12.98-19.67-24.72-2.62-.2-5.08-1.29-7.43-2.47-11.11-5.57-21.13-13.32-29.3-22.68,4.71-3.07,10.15-5.02,15.74-5.64-8.14-3.63-17.01-5.64-25.92-5.85-2.82-1.93-5.64-3.85-8.46-5.78-1.31-7.48-2.61-14.97-3.92-22.45l-8.99-1.56,7.96-5.48c-4.11.35-8.29-.14-12.2-1.44.89-3.38,3.7-6.19,7.09-7.07-5.36,1.83-9.1-5.27-10.31-10.8-1.07-4.92-2.15-9.85-3.22-14.77-4.2-1.09-8.4-2.17-12.6-3.26,1.23-3.98,5.08-7.01,9.24-7.28-4.99.94-10.33-.17-14.53-3.01,2.8-3.12,6.45-5.47,10.45-6.73-5.42-1-11.52-2.58-14.12-7.44-3.88-7.24,2.45-17.33-2.34-24-4.9-6.83-15.97-3.3-23.54-6.95,4.95-1.13,9.9-2.25,14.85-3.38-5.05-1.14-9.89-3.16-14.26-5.93,1.18-1.49,1.88-3.35,1.97-5.25-2.58-1.45-5.52-2.27-8.47-2.35,2.92-5.59,5.84-11.17,8.76-16.76-2.16-1.05-4.32-2.1-6.49-3.15,7.89-2.63,15.77-5.26,23.66-7.89-5.25-1.93-10.5-3.86-15.75-5.78,3-1.7,6.01-3.41,9.01-5.11-3.88-3.03-7.75-6.07-11.63-9.1,4,2.1,6.39-4.87,5.29-9.25s-.85-11.22,3.66-10.93c-3.04.97-5.64-3.22-4.56-6.23s4.14-4.75,6.96-6.24c-4.41-1.08-8.33-4.06-10.53-8.03,5.16-2.76,7.53-9.77,5.1-15.09,6.41-2.63,7.59-11.12.16-13.02-6.57-1.68-16.16,7.53-19.08,12.35Z"/>
  <path class="st17" d="M503.08,312.93c-7.71,2.53-12.65,10.37-14.24,18.32s-.48,16.15.27,24.23c2.29,24.73.59,51.19-13.22,71.83-1.67,2.5-3.54,4.96-4.33,7.86,2.82.27,5.64.53,8.47.8,3.36-15.77,7.41-31.41,13.4-46.39,2.32-5.81,4.86-11.62,5.79-17.81.77-5.1.41-10.31-.23-15.43-.8-6.4-2.03-12.75-3.69-18.98-.76-2.88-1.63-5.83-1.22-8.78.93-6.67,7.7-10.66,13.73-13.67-1.51-1.56-2.68-2.66-4.74-1.98Z"/>
  <path class="st17" d="M726.73,360.16c5,1.56,10.65,2.49,14.08,6.46,5.24,6.06,2.42,15.49,4.69,23.17,2.08.41,3.77-1.99,3.68-4.11s-1.27-4-2.02-5.98c-2.41-6.33-.99-14.77-6.48-18.73-2.04-1.47-4.62-1.91-7.06-2.52-16.52-4.11-29.24-17.04-40.16-30.1-1.89-2.26-4.19-4.86-7.13-5.28-1.84,5.49,12.46,18.07,16.25,21.75,6.9,6.7,14.89,12.44,24.16,15.34Z"/>
  <path class="st8" d="M446.93,729.42c1.24-4.64,2.47-9.29,3.71-13.93.5,4.85,2.11,9.58,4.69,13.72.66,1.06,1.48,2.16,2.69,2.48,2.49.67,4.38-2.19,5.37-4.58,3.69-8.85,7.38-17.7,11.07-26.55,1.68,9.56,6,18.63,12.35,25.97.16-2.66.33-5.31.49-7.97-1.01,7.1-.38,14.42,1.84,21.24.86-1.73,1.71-3.47,2.57-5.2,6.25,1.12,12.8,2.22,18.86.33s11.39-7.79,10.35-14.05c4.16,3.43,10.66,3.63,15.02.47.77,3.26,1.54,6.53,2.31,9.79.44-2.99.87-5.98,1.31-8.97,1.27,4.84,9.17,5.89,11.66,1.55,6.23-1.23,12.45-2.45,18.68-3.68,3.74-.74,7.77-1.64,10.23-4.56s1.86-8.46-1.83-9.38c7.86,4.76,15.72,9.51,23.59,14.27.26-4.14-.46-8.34-2.08-12.15,3.47,4.29,7.76,7.91,12.57,10.6,1.74-7.4-.3-15.59-5.31-21.31,4.07,9.02,11.28,16.58,20.09,21.08.63-6.47-.64-13.11-3.59-18.9,2.05,4.86,5.99,8.9,10.8,11.07,2.46-4.54,3.28-9.94,2.29-15,2.87,3.9,6.74,7.07,11.14,9.11.8-3.23.34-6.76-1.28-9.67,2.27,1.72,4.54,3.43,6.8,5.15.9-6.58-.01-13.39-2.6-19.5.98,6.09,8.52,10.3,14.02,7.5s6.17-11.99.91-15.2c2.35,5.08,5.94,9.58,10.36,13.01.15-2.51-.39-5.07-1.54-7.3.19,7.52,3.23,14.93,8.37,20.41.2-6.51-.64-13.06-2.49-19.31,3.11,7.04,7.33,13.6,12.46,19.34,1.1-3.19.46-6.92-1.63-9.56,1.43,1.64,3.34,2.84,5.43,3.42.62-3.21,1.24-6.43,1.86-9.64.73,1.79,2.21,3.26,4.01,3.98.77-9.72-1.29-19.65-5.87-28.26l4.04,3.22.1-14.76c1.23,4.87,4.52,9.18,8.9,11.65.96-4.58,1.3-9.29,1-13.96,1.96,7.79,12.58,8.62,20.57,7.75,3.72-.4,7.64-.88,10.67-3.09s4.69-6.76,2.5-9.81c4.25,3.27,8.49,6.54,12.74,9.8,1.46-6.89-.93-14.47-6.08-19.28.77,2.29,2.39,4.29,4.47,5.52,1.01-4.73,1.04-9.66.09-14.4.66,4.2,6.84,5.45,10.17,2.81s4.17-7.37,3.97-11.61c5.02-.77,9.34,7.56,13.58,4.76,1.17-.77,1.72-2.19,2.15-3.53,1.5-4.72,2.34-9.64,2.49-14.59,2.45,3.08,5.4,5.76,8.7,7.9,1.65-3.98,2.23-8.4,1.66-12.67,2.74,1.69,5.48,3.38,8.23,5.08,1.93-5.18,3.87-10.37,5.8-15.55,2.3,5.11,5.92,9.63,10.4,12.99,1.45-1.56,2.9-3.11,4.35-4.67-.07,3.26,5.15,3.19,7.66,1.11s5.34-5.15,8.37-3.95c.03-3.72.05-7.43.08-11.15-.49,1.86-.04,3.94,1.16,5.43.43-4.14.86-8.27,1.29-12.41,2.27,3.74,4.99,7.81,9.26,8.73s9.26-4.18,6.57-7.63c-7.92-.66-15.67-3.24-22.4-7.45-.92,3.88-1.85,7.76-2.77,11.63-3.82-1.2-7.63-2.39-11.45-3.59-.44,2.64-.87,5.29-1.31,7.93-4.51-2.43-9.48-4-14.57-4.6-.64,2.68-1.29,5.37-1.93,8.05-3.78-.44-7.5-1.34-11.07-2.67.18,2.96-.23,5.96-1.19,8.77-2.77-1.02-5.73-1.54-8.69-1.5-.05,3.02-.1,6.05-.15,9.07-4.66-1.52-9.65-3.05-14.37-1.74s-8.61,6.74-6.45,11.13c-4.47-2.76-11.21-.46-13.06,4.45-.56,1.5-.76,3.2-1.81,4.4-3.28,3.74-9.3-1.28-14.2-.46-6.43,1.08-6.51,10.26-4.89,16.57-1.9-.45-3.81-.89-5.71-1.34,0,2.28-.02,4.56-.03,6.84-6.96-.25-13.94,0-20.87.72-.34,2.36-.69,4.72-1.03,7.08-5.07-2.18-10.47-3.59-15.96-4.16-2.66,12.58.47,26.26,8.32,36.43-6.8-.63-13.6-1.25-20.4-1.88-3.48-1.74-4.72-5.97-6.61-9.37s-6.26-6.48-9.41-4.19c-.04,2.62-.07,5.24-.11,7.85-4.32-.91-8.74,3.81-7.54,8.05-4.92-1.8-10.9,3.06-10.14,8.25-3.92-2.54-9.38-2.4-13.17.32-2.73-1.51-5.81-2.36-8.93-2.46-.29,2.41-.58,4.82-.87,7.23-4.63-1.69-10.36.75-12.35,5.25-.86-5.4-5.97-9.79-11.43-9.82-5.93-.04-11.73,4.39-17.36,2.54-.41,1.85-.83,3.71-1.24,5.56-5.4.53-11.06,1.15-15.54,4.22s-7.18,9.45-4.38,14.1c-.51-3.3-6.23-3.78-7.28-.61-1.09-.99-2.17-1.97-3.26-2.96.52,1.78-1.9,2.98-3.74,2.89-3.91-.2-7.53-2.53-11.44-2.41s-7.67,5.34-4.57,7.73c-4.89-1.19-9.78-2.38-14.68-3.58.15,1.34.22,2.91-.8,3.79s-3.13-.41-2.3-1.47c-1.07,3.36-1.43,6.94-1.03,10.44-1.38-.81-2.75-1.62-4.13-2.43-.63,2.87-1.27,5.74-1.9,8.61-.37-4-.73-8-1.1-12.01-1.63,8.23-2.23,16.67-1.78,25.05,2.19-10.4.04-21.65-5.82-30.52.2,1.52-.08,3.1-.8,4.46-.05-4.94-.1-9.87-.15-14.81-.5,3.34-1.49,6.6-2.92,9.65-.09-6.19-3.55-12.24-8.85-15.44-.98.98-1.96,1.95-2.93,2.93-1.04-2.03-2.07-4.06-3.11-6.09-1.22,3.79-5.47,6.32-9.39,5.59-1.98,4.21-3.97,8.43-5.95,12.64-1.27-2.32-2.55-4.64-3.82-6.96-2.47.96-4.44,3.12-5.17,5.67-.61-1.84-1.22-3.68-1.83-5.52-4.01.2-8.03.33-12.01.75,4.2,6.54,5.07,14.13,11.27,19.8Z"/>
  <path class="st8" d="M889.78,587.34c-1.78-10.39-6.56-20.24-13.62-28.07,5.77,5.38,13.48,8.64,21.36,9.03.94-6.69-3.59-13.72-10.06-15.64,4.34,5.29,10.07,9.44,16.45,11.92-3.3-9.07-8.77-17.34-15.84-23.91,9.25,1.9,18.77,2.46,28.17,1.64-.6-4.72-3.84-9.01-8.22-10.86,5.55-2.76,14.13,1.51,17.51-3.69,2.96-4.56-2.33-9.92-6.96-12.78,4.74,1.95,9.77,3.21,14.87,3.73-2.71-7.65-7.04-14.73-12.63-20.61,5.04,1.18,10.09,2.35,15.13,3.53-.5-8.77-4.5-17.29-10.94-23.27.11,2.52.22,5.05.33,7.57.05-2.97.09-5.94.14-8.91-6.32-4.11-12.63-8.22-18.95-12.33,5.09,2.1,11.63-.61,13.74-5.7s-.61-11.63-5.7-13.74c7.51,1.81,15.01,3.62,22.52,5.43-8.76-6.95-20.42-10.1-31.48-8.5,4.16,4.64,10.62,7.11,16.82,6.42.82-.09,1.72-.29,2.19-.96.94-1.34-.56-3.03-1.94-3.91-5.53-3.54-11.71-6.06-18.15-7.38,7.11.88,14.38.48,21.35-1.17-7.64-3.94-16.13-6.25-24.72-6.71,6.79-.83,13.52-2.23,20.08-4.18-2.78-4.99-7.73-8.73-13.3-10.03,1.35-11.14,10.84-20.77,21.96-22.27-3.61-.37-7.23-.75-10.84-1.12,6.44-.01,12.8-3.1,16.79-8.15-4.96-.99-9.92-1.98-14.88-2.98,7.15-.21,14.27-1.3,21.16-3.24,1.06-.3,2.22-.7,2.74-1.68.98-1.85-1.06-3.83-2.89-4.86-7.12-4.05-14.9-6.93-22.94-8.48,8.16.38,16.39-1.08,23.92-4.22,1.25-.52,2.66-1.34,2.76-2.69.09-1.26-1.04-2.24-2.09-2.94-5.71-3.82-12.55-5.94-19.42-6.04-2.77-8.56-5.54-17.13-8.31-25.69,2.86,2.16,7.31-1.72,6.32-5.17s-5.43-4.95-8.83-3.83c2.43.92,5.4.17,7.12-1.78-.91-2.24-1.82-4.47-2.73-6.71,2.27-.79,4.72-1.05,7.11-.75-1.72.43-3.14,1.86-3.57,3.58,5.88,6.21,12.31,11.91,19.19,17-7.15.12-14.26,2.14-20.4,5.8,3.5,1.49,7.28,2.3,11.08,2.39-1.6,1.52-3.21,3.04-4.81,4.57,3.81,1.28,7.61,2.56,11.42,3.85-9.21,2.27-18.19,5.44-26.77,9.46,7.95,1.97,16.46,1.59,24.2-1.08-7.38,3.41-15.25,7.26-19.15,14.39-2.57,4.69-3.06,10.21-4.85,15.26s-5.69,10.09-11.03,10.3c2.08.88,4.16,1.76,6.24,2.65-2.7-1.13-4.41,3.34-3.17,5.99s3.76,5.02,3.36,7.92c-.33,2.36-2.49,3.95-4.02,5.79s-2.28,5.03-.26,6.3c-2.73.74-5.14,2.58-6.57,5.02,1.26,1.28,2.53,2.56,3.79,3.84-4.86,7.32-.68,18.83,7.74,21.32-3.51-.05-7,1.84-8.86,4.81,2.65,1.99,5.66,3.5,8.84,4.43-2.7,5.08-2.07,11.75,1.55,16.23-2.45.09-4.9.18-7.36.27,1.51,4.22,4.77,7.77,8.85,9.63,5.76.15,11.45,2.32,15.85,6.04-1.92-1.27-4.81-.7-6.12,1.19s-.8,4.8,1.07,6.14c-7.35,2.39-12.15,10.83-10.44,18.36-1.99-2.82-6.56.53-6.9,3.96s1.01,7.18-.64,10.2c-2.23,4.08-8.05,3.93-12.64,3.21.14,2.28.27,4.55.41,6.83-1.86-1.67-5.02-1.6-6.81.15s-1.93,4.91-.3,6.8c-1.87.1-3.74.19-5.61.29-.79,2.75.01,5.89,2.01,7.93-3.94-.6-7.78,3.58-6.87,7.45-4.44.98-8.96,1.83-13.33,3.04,10.38,6.73,19.96,16.62,29.81,24.39Z"/>
  <path class="st13" d="M438.61,736.6c-4.5-.66-8.96,1.01-13.33,2.25s-9.33,2-13.26-.29c-2.52-1.46-4.31-4.03-6.94-5.28-3.53-1.68-8.16-.81-11.05-3.45-1.77-1.62-2.78-4.47-5.17-4.77-2.43-.3-4.58,2.45-6.96,1.86-1.78-.44-2.62-2.49-4.15-3.49-1.32-.86-3.17-.81-4.44.11-2.2-.98-4.97-1.53-7.37-1.46s-4.95,1.55-5.42,3.9c-8.21-8.21-17.05-15.79-26.43-22.64-.93-.68-2.03-1.38-3.15-1.1-.81.2-1.4.88-1.91,1.53-4.71,5.98-7.8,13.23-8.86,20.77-.21,1.48-.3,3.11.56,4.33,1,1.41,2.95,1.8,4.17,3.02,1.77,1.79,1.46,4.77.47,7.08s-2.54,4.42-2.96,6.9c-.95,5.6,5.76,10.87,10.98,8.62,3.13-1.35,5.25-4.63,8.54-5.49,4.37-1.13,8.39,2.38,12.45,4.32,8.05,3.86,17.78,1.68,26.25,4.49,5.21,1.73,9.68,5.27,14.93,6.87,4.07,1.25,8.4,1.27,12.66,1.29,40.78.14,81.55.28,122.33.42,7.64.03,15.28.05,22.92.08,16.03.06,32.05.11,48.08.17,40.99.15,81.56-9.44,122.51-11.25,10.38-.46,20.76-.79,31.14-.75,22.8.1,46.6,1.86,67.43-7.41,7.36-3.28,16.38.61,24.44.52,4.57-.05,9.18-.1,13.64.88,5.89,1.29,11.27,4.31,17.09,5.89,6.82,1.85,14.19,1.63,20.9-.62,9.23-3.1,20.27-3.37,27.59-9.79,5.55-4.86,11.24-9.93,14.38-16.6,1.02-2.18,1.78-4.52,3.29-6.39,3.48-4.32,9.79-4.86,14.59-7.64,7.79-4.51,11.22-14.72,19.42-18.42,6.9-3.12,16.99-1.78,20.15-8.66.74-1.62.91-3.45.83-5.23-.52-11.88-12.95-21.77-24.65-19.61-16.04-15.26-39-22.88-60.87-26.26-10.64-1.65-22.08-1.91-30.98-7.97-2.28-1.55-4.44-3.5-7.15-3.99-2.73-.49-5.47.6-8.09,1.5-8.88,3.05-18.43,4.1-27.75,3.06-3.77-.42-7.91-1.1-11.11.94-2.09,1.33-3.37,3.59-5.12,5.33-4.65,4.63-11.86,5.08-18.34,6.13-6.48,1.04-13.82,3.89-15.52,10.23-.77,2.86-.81,6.8-3.68,7.55s-6.4,5.09-7.77,7.7c-2.22,4.25-4.7,8.64-8.78,11.14s-10.25,2.25-12.85-1.77c-2.27,8.42-5.62,18.05-13.86,20.9-2.73.94-5.78,1.01-8.27,2.47-4.29,2.51-7.33,9-12.08,7.51,1.12,2.6,2.26,5.29,2.24,8.12s-1.56,5.85-4.26,6.7c2.17,3.62,1.14,8.46-1.37,11.85s-6.22,5.65-9.84,7.82c-3.08,1.85-7.63,3.46-9.76.57-17.47-1.85-34.71-4.49-51.95-7.83-.9,2.5-1.81,5-2.71,7.51-.31.85-.66,1.76-1.39,2.29-1.08.78-2.57.47-3.88.2-9.16-1.88-19.03.05-26.82,5.22-10.76,7.15-26.54-1.08-38.9-4.87-.7-.22-1.34-.42-2.07-.42-9.39,4.52-19.46,8.7-28.92,13.08-.63.29-1.33.59-1.99.4-1.78-.5-1.15-3.16-1.76-4.9-.56-1.61-2.4-2.46-4.1-2.44s-3.3.74-4.87,1.4c-7.3,3.1-14.91,5.46-22.68,7.02.41-3.01.82-6.03,1.23-9.04-1.36,2.35-2.9,4.6-4.63,6.7-7.46,1.59-15.2,2.39-22.77,3.26-1.59.18-3.6.14-4.31-1.3-5.56-1.36-10.62-5.03-13.52-9.97-.34-.58-.66-1.19-1.18-1.62-.79-.66-1.87-.8-2.89-.91-2.79.18-5.6-.29-8.29-1.05-2.82-.79-5.8-2.44-6.47-5.29-2.32.41-3.93-.31-5.62-1.96Z"/>
  <path class="st13" d="M1307.48,169.82c4.48-12.11,3.16-25.45,2.95-38.36-.02-1.08-.01-2.21.51-3.16,1.19-2.13,4.54-2.07,6.37-.44s2.47,4.17,2.88,6.58c2.87,16.94-1.49,34.58,2.05,51.4,1.33,6.31,3.75,12.37,4.85,18.73,2.71,15.6-3.28,32.43-15.23,42.82-2.26,1.96-4.76,3.73-7.59,4.71-6.64,2.3-13.86,0-20.83-.96-19.13-2.62-38.11,5.23-57.41,6.01-1.79.07-3.79,0-5.04-1.28-3.08-3.16,1.87-7.71,5.94-9.41,34.23-14.33,67.38-41.05,80.54-76.63Z"/>
  <path class="st13" d="M1319.57,634.77c-.85,2.5-1.76,5.08-3.58,6.99-2.32,2.44-5.74,3.41-8.96,4.38-10.4,3.14-20.47,7.34-30.02,12.52-5.88,3.19-11.6,6.76-17.82,9.21-21.75,8.54-47.19,2.48-68.86,11.22.81,4.86,6.3,7.62,11.23,7.66s9.66-1.81,14.54-2.48c6.96-.96,14,.48,20.88,1.91,14.24,2.96,28.47,5.93,42.71,8.89,5.31,1.11,10.72,2.22,16.12,1.71,14.33-1.34,25.02-13.38,33.82-24.77,10.85-14.05,21.73-32.13,14.74-48.44-3.74-8.73-11.08-16.06-8.49-26.07-9.58,3.44-13.28,28.4-16.32,37.28Z"/>
</svg>