<?xml version="1.0" encoding="UTF-8"?>
<svg id="Layer_1" xmlns="http://www.w3.org/2000/svg" xmlns:xlink="http://www.w3.org/1999/xlink" version="1.1" viewBox="0 0 160 160">
  <!-- Generator: Adobe Illustrator 30.0.0, SVG Export Plug-In . SVG Version: 2.1.1 Build 123)  -->
  <defs>
    <style>
      .st0 {
        opacity: .1;
        stroke: #fff;
        stroke-width: 2.4px;
      }

      .st0, .st1, .st2, .st3 {
        stroke-miterlimit: 10;
      }

      .st0, .st2 {
        fill: #fff;
      }

      .st4 {
        fill: #40272d;
      }

      .st1 {
        fill: #f2f2f2;
      }

      .st1, .st2 {
        stroke: #40272d;
      }

      .st5 {
        fill: url(#radial-gradient);
      }

      .st6 {
        fill: url(#radial-gradient1);
      }

      .st7 {
        fill: url(#radial-gradient3);
      }

      .st8 {
        fill: url(#radial-gradient2);
      }

      .st9 {
        fill: url(#radial-gradient4);
      }

      .st3 {
        stroke: #000;
      }
    </style>
    <radialGradient id="radial-gradient" cx="79.98" cy="80" fx="79.98" fy="80" r="79.51" gradientUnits="userSpaceOnUse">
      <stop offset=".24" stop-color="#fff"/>
      <stop offset=".25" stop-color="#f9f4f5"/>
      <stop offset=".32" stop-color="#debbc4"/>
      <stop offset=".4" stop-color="#c68999"/>
      <stop offset=".48" stop-color="#b25f75"/>
      <stop offset=".56" stop-color="#a23c57"/>
      <stop offset=".64" stop-color="#952240"/>
      <stop offset=".72" stop-color="#8c0f30"/>
      <stop offset=".8" stop-color="#860326"/>
      <stop offset=".89" stop-color="#850023"/>
    </radialGradient>
    <radialGradient id="radial-gradient1" cx="220.45" cy="41.09" fx="220.45" fy="41.09" r="17.76" xlink:href="#radial-gradient"/>
    <radialGradient id="radial-gradient2" cx="251.18" cy="38.31" fx="251.18" fy="38.31" r="19.42" xlink:href="#radial-gradient"/>
    <radialGradient id="radial-gradient3" cx="257.4" cy="132.4" fx="257.4" fy="132.4" r="49.99" gradientUnits="userSpaceOnUse">
      <stop offset="0" stop-color="#fff"/>
      <stop offset=".02" stop-color="#f9f4f5"/>
      <stop offset=".12" stop-color="#debbc4"/>
      <stop offset=".22" stop-color="#c68999"/>
      <stop offset=".32" stop-color="#b25f75"/>
      <stop offset=".43" stop-color="#a23c57"/>
      <stop offset=".54" stop-color="#952240"/>
      <stop offset=".64" stop-color="#8c0f30"/>
      <stop offset=".75" stop-color="#860326"/>
      <stop offset=".87" stop-color="#850023"/>
    </radialGradient>
    <radialGradient id="radial-gradient4" cx="309.61" cy="125.35" fx="309.61" fy="125.35" r="47.42" xlink:href="#radial-gradient"/>
  </defs>
  <g>
    <rect class="st3" x="-.04" y="114.03" width="125.04" height="45.97"/>
    <rect class="st3" width="91.23" height="45.97"/>
    <rect x="-.95" y="37.98" width="46.65" height="118.91"/>
    <rect x="114.03" y="41.09" width="45.97" height="118.91"/>
    <rect class="st3" x="86.46" width="73.07" height="45.97"/>
    <path class="st2" d="M-10.44,38.39"/>
    <path class="st2" d="M-11.71,114.97"/>
    <g>
      <path class="st5" d="M79.73,159.5c-35.69,0-63.05-26.07-73.37-50.29C4.62,105.14.01,94.32.5,80.02c.6-17.81,8.74-37.41,21.76-52.41C32.99,15.24,51.72.5,80,.5c43.84,0,79.5,35.66,79.5,79.5,0,21.45-8.75,41.61-24.64,56.78-15.06,14.37-35.05,22.65-54.86,22.72h-.27Z"/>
      <path class="st4" d="M80,1c43.56,0,79,35.44,79,79,0,21.31-8.7,41.34-24.49,56.41-14.96,14.28-34.83,22.51-54.51,22.59h-.27c-15.83,0-31.38-5.26-44.97-15.22-12.3-9.01-22.23-21.36-27.94-34.77-1.72-4.04-6.3-14.79-5.82-28.98.6-17.7,8.69-37.18,21.64-52.1C33.3,15.65,51.9,1,80,1M80,0C30.54,0,1.15,46.07,0,80c-.48,14.13,3.98,24.91,5.9,29.41,11.23,26.36,39.54,50.59,73.83,50.59.09,0,.18,0,.27,0,40.53-.15,80-34.15,80-80S124.18,0,80,0h0Z"/>
    </g>
    <g>
      <path d="M80,111c-15.97,0-28.96-13.91-28.96-31s12.99-31,28.96-31,28.96,13.91,28.96,31-12.99,31-28.96,31Z"/>
      <path class="st4" d="M80,50c15.42,0,27.96,13.46,27.96,30s-12.54,30-27.96,30-27.96-13.46-27.96-30,12.54-30,27.96-30M80,48c-16.55,0-29.96,14.33-29.96,32s13.41,32,29.96,32,29.96-14.33,29.96-32-13.41-32-29.96-32h0Z"/>
    </g>
    <path class="st1" d="M44.7,9.39c3.7,3.11,10.04,9.27,14.57,19.04,4.8,10.36,5.22,19.7,5.1,24.6,2.41-1.24,4.9-2.49,7.51-3.25,2.53-.74,2.35-1.06,2.67-3.69.27-2.17.47-4.35.62-6.54.3-4.37.36-8.75.19-13.12-.18-4.51-.61-9.05-1.89-13.37s-3.46-8.46-6.75-11.56c-2.43.83-5.03,1.14-7.51,1.78-.93.24-3.97.95-7.37,2.48-.59.27-.51.25-4.72,2.42-1.72.89-3.14,1.62-4.09,2.11"/>
    <path class="st1" d="M3.64,61.29c5.12-.74,13.3-1.28,22.9,1,11.99,2.84,20.31,8.66,24.62,12.17.45-2.91,1.33-5.75,2.59-8.4.68-1.44,1.31-3,1.08-4.58-.99-6.85-7.92-15.74-15.19-20.2-9.1-5.57-18.36-5.99-23.35-5.79-1.67,2.68-3,4.95-3.95,6.6,0,0-5.31,9.19-7.3,14.38-.08.22-.28.81-.59,1.51-.05.1-.13.29-.22.55-.06.17-.15.45-.26.88-.18.75-.29,1.52-.33,1.88Z"/>
    <path class="st1" d="M16.46,126.49c2.54-3.87,8.26-11.45,18.45-17.01,10.64-5.81,20.56-6.34,25.2-6.3-1.37-1.43-2.46-2.75-3.27-3.83-1.58-2.09-2.48-3.68-2.72-4.1-.39-.69-.63-1.2-.75-1.43-.55-1.14-.91-2.14-1.15-2.88-5.41-2.75-11.17-4.68-17.09-6-2.29-.51-5.89-1.21-9.63-1.21-10.37,0-18.84,5.69-23.82,9.96.38,1.97.73,3.63,1.02,4.91.62,2.78,1.06,4.43,1.58,6.01.26.79.48,1.36.68,1.87.34.83.63,1.44,1.33,2.85.76,1.52,1.14,2.28,1.51,2.99,1.37,2.61,3.23,6.16,6.05,10.44.6.92,1.48,2.21,2.59,3.74Z"/>
    <path class="st1" d="M82.78,159.66c5.21-15.46,4.93-33-1.13-48.15-4.14.15-8.4-.46-12.28-1.92-3.93.81-6.94,3.93-9.5,7.02-8,9.68-14.42,21.42-14.43,33.97,1.53,1.27,3.45,2.18,5.28,2.94,10.26,4.25,21.35,6.88,32.43,6.19.03-.33.06-.66.09-.98"/>
    <path class="st1" d="M126.84,143.5c-.27-3.43-.56-6.92-1.84-10.1-.9-2.22-2.25-4.23-3.59-6.22-3.22-4.77-6.49-9.59-10.77-13.44s-9.75-6.69-15.5-6.69c1.44-.88,2.73-1.98,4.04-3.04.29-.24.58-.47.85-.72.57-.53,1.06-1.15,1.55-1.76,1-1.25,2-2.51,2.8-3.89,7.06-.63,14.53.57,20.91,3.67,2.64,1.28,5.13,2.86,7.61,4.44,5.93,3.8,12.06,7.96,15.21,14.25-1.15,2.99-3.18,5.64-5.25,8.09-.82.97-1.63,1.93-2.45,2.9-1.29,1.52-2.58,3.05-4.02,4.43-.68.65-1.39,1.27-2.11,1.89-2.41,2.09-5.02,4.1-7.43,6.19Z"/>
    <path class="st1" d="M156.38,58.71c2.84,9.52,3.77,19.6,2.74,29.48-.17,1.58-.33,3.4-.97,4.86-2.4-3.24-5.55-5.93-9.12-7.81-2.05-1.07-4.22-1.88-6.42-2.58-5.41-1.71-11.05-2.76-16.72-2.72s-11.37,1.18-16.46,3.69c.11-3.58.35-7.27-.4-10.77-.3-1.39-.73-2.75-1.34-4.03,9.67-6.9,21.17-11.34,32.94-13.05,4.98-.72,11.14.95,15.77,2.93Z"/>
    <path class="st1" d="M139.28,27.44c-5.5-.46-11.07.84-16.02,3.28s-9.31,5.97-13.06,10.02c-.67.73-1.33,1.47-1.96,2.23-3.48,4.24-6.12,9.16-7.71,14.4-2.41-3.51-6.42-6.31-10.56-7.27-1.02-.23-1.38-.38-2.35-.77-.36-3.28.09-6.9.74-10.13,1.52-7.56,3.31-15.25,7.39-21.8,1.18-1.89,2.54-3.66,4.06-5.29.7-.75,1.43-1.47,2.25-2.08,2.59-1.95,5.9-2.75,9.14-2.82,2.06-.04,3.74,1.73,5.59,2.62,1.46.71,2.92,1.41,4.31,2.25,1.06.64,2.07,1.35,3.08,2.07,5.41,3.85,10.96,8.1,15.1,13.29Z"/>
    <path class="st0" d="M189.12,81.18h.21"/>
  </g>
  <g>
    <path class="st6" d="M220.92,62.65c-.5,0-1-.02-1.5-.05-1.29-.08-2.79-.25-4.17-.81-3.52-1.45-5.51-5.08-7.4-8.99-.18-.38-.32-.68-.29-.97.02-.27.21-.55.41-.84,1.27-1.81,2.76-3.46,4.43-4.91.88-.85,1.34-.98,1.54-.98.04,0,.08,0,.12.02.42.15.41,1.48.4,2.65-.01,2.17-.03,4.87,1.77,6.63,1.03,1.01,2.55,1.58,4.18,1.58.69,0,1.38-.11,1.99-.32,2.29-.78,3.34-2.8,3.96-4.01,1.32-2.56,1.32-5,1.31-6.04,0-3.69.11-8.17.4-15l.04-1.06-.85.65c-2.63,2-5.48,3.76-8.45,5.21-3.35,1.63-6.65,2.82-7.86,2.82,0,0-.04,0-.06,0,.18-.27.62-.74,1.01-1.16,1.25-1.35,3.35-3.6,5.13-7.15.19-.37.27-.55.33-.69.06-.13.1-.22.21-.41,1.23-2.15,2.81-2.95,5.43-4.28.87-.44,1.86-.94,2.96-1.56,1.6-.9,2.79-1.69,3.66-2.27,1.07-.71,1.78-1.18,2.21-1.18.09,0,.18.02.27.07.36.2.66,1.57.92,4.19.37,3.67.32,5.58.32,5.6-.09,3.12-.07,5.35-.06,7.32.02,3.3.04,5.9-.42,10.85-.16,1.73-.36,3.56-.86,5.32-.72,2.5-2.04,4.8-3.84,6.67-1.19,1.23-2.42,2.09-3.66,2.55-.99.37-2.16.55-3.56.55Z"/>
    <path class="st4" d="M231.82,20.02c.1.14.39.81.7,3.82.37,3.63.32,5.51.32,5.53-.09,3.12-.07,5.36-.06,7.34.02,3.28.04,5.87-.42,10.8-.16,1.7-.35,3.51-.85,5.23-.69,2.42-1.98,4.65-3.72,6.46-1.13,1.18-2.3,1.99-3.47,2.43-.95.35-2.03.52-3.39.52-.44,0-.92-.02-1.46-.05-1.25-.08-2.7-.24-4.01-.78-3.36-1.38-5.3-4.93-7.14-8.75-.11-.23-.26-.54-.25-.71.01-.16.21-.44.32-.6,1.25-1.77,2.71-3.39,4.35-4.82l.02-.02.02-.02c.57-.55.91-.73,1.07-.79.13.39.12,1.43.12,2.14-.01,2.14-.03,5.08,1.92,6.99,1.12,1.1,2.77,1.73,4.53,1.73.76,0,1.48-.12,2.15-.34,2.48-.84,3.63-3.06,4.24-4.25,1.38-2.67,1.37-5.19,1.37-6.29,0-3.66.11-8.13.39-14.95l.09-2.13-1.69,1.29c-2.61,1.99-5.42,3.72-8.37,5.16-2.43,1.18-4.88,2.15-6.43,2.56.03-.04.07-.07.1-.11,1.27-1.37,3.4-3.66,5.21-7.26.19-.38.28-.57.34-.71.05-.12.09-.19.19-.37,1.15-2.02,2.68-2.8,5.22-4.09.88-.44,1.87-.95,2.98-1.57,1.61-.91,2.81-1.7,3.69-2.28.85-.56,1.66-1.1,1.94-1.1h0M231.82,19.03c-1.01,0-2.4,1.42-6.12,3.51-4.35,2.45-6.84,2.99-8.57,6.04-.24.42-.17.37-.55,1.13-2.93,5.86-6.69,8.05-6.24,8.82.08.14.3.21.61.21,1.46,0,5.11-1.42,8.08-2.87,3.79-1.85,6.66-3.84,8.54-5.26-.26,6.12-.4,10.96-.4,15,0,1.01.02,3.36-1.26,5.83-.59,1.14-1.57,3.05-3.68,3.77-.57.19-1.19.29-1.83.29-1.39,0-2.84-.47-3.83-1.44-2.91-2.85-.63-8.76-2.34-9.39-.09-.03-.18-.05-.29-.05-.4,0-.99.25-1.86,1.1-1.7,1.48-3.21,3.16-4.51,5-.23.33-.46.68-.5,1.08-.04.43.15.84.34,1.23,1.78,3.69,3.87,7.68,7.66,9.24,1.37.56,2.85.75,4.33.85.51.03,1.02.06,1.53.06,1.28,0,2.55-.14,3.74-.58,1.48-.55,2.76-1.54,3.85-2.67,1.85-1.93,3.23-4.31,3.96-6.88.5-1.76.71-3.59.88-5.42.74-7.98.25-9.95.48-18.2,0,0,.05-1.91-.33-5.66-.39-3.86-.79-4.36-1.18-4.57-.17-.09-.33-.14-.51-.14h0Z"/>
  </g>
  <g>
    <path class="st8" d="M249.77,60.81c-1.57,0-3.19-.28-4.7-.59-3.11-.63-6.52-1.62-8.24-4.2-1.43-2.15-1.35-4.96-1.03-6.94.2-1.22.52-2.46.83-3.65.31-1.21.64-2.45.84-3.72.73-4.46,0-8.94-.72-13.27-.1-.61-.28-1.35-.48-2.14-.62-2.49-1.46-5.89-.14-7.4,1.74-1.98,7.1-2.93,10.29-3.09.27-.01.53-.02.8-.02,8.31,0,16.42,6.45,18.85,15,2.31,8.14-.25,17.89-6.54,24.85-2.53,2.8-5.01,4.42-7.58,4.95-.69.14-1.4.21-2.19.21Z"/>
    <path class="st4" d="M247.23,16.3c8.1,0,15.99,6.29,18.37,14.64,2.27,7.98-.25,17.55-6.43,24.38-2.46,2.72-4.85,4.29-7.31,4.79-.65.13-1.34.2-2.09.2-1.52,0-3.11-.28-4.6-.58-3.01-.61-6.3-1.56-7.92-3.99-1.34-2.02-1.26-4.69-.95-6.58.19-1.2.5-2.37.82-3.6.32-1.22.64-2.48.85-3.76.74-4.54,0-9.06-.72-13.43-.1-.63-.29-1.38-.49-2.18-.59-2.38-1.4-5.64-.25-6.95,1.62-1.85,6.96-2.77,9.94-2.92.26-.01.52-.02.77-.02M247.23,15.3c-.27,0-.55,0-.82.02-2.8.14-8.66,1-10.64,3.26-1.93,2.21.08,7.37.5,9.95.71,4.34,1.43,8.77.72,13.1-.41,2.49-1.27,4.88-1.67,7.36s-.29,5.2,1.11,7.29c1.83,2.74,5.32,3.76,8.55,4.42,1.58.32,3.2.6,4.8.6.77,0,1.53-.06,2.29-.22,3.11-.64,5.72-2.74,7.85-5.1,6.11-6.76,9.14-16.56,6.65-25.33-2.42-8.5-10.54-15.37-19.33-15.36h0Z"/>
  </g>
  <g>
    <path d="M247.53,50.7c-.67,0-1.2-.18-1.57-.53-.83-.78-1.21-2.1-1.14-3.93.05-1.3.26-2.58.62-3.83.17-.58.32-.99.43-1.31l.05-.14c.82-2.26,2.05-5.68,1.17-8.99-.15-.56-.29-.86-.44-1.17-.17-.35-.36-.74-.65-1.69-.61-1.98-.94-3.08-.54-3.83.62-1.16,2.65-1.29,3.5-1.29.18,0,.31,0,.37,0,2.93.12,5.11,2.18,6.09,3.91.38.67.57,1.5.96,3.14.68,2.91,1.22,5.21.66,7.85-.28,1.31-.89,3-1.14,3.67-.11.28-.39,1.04-.7,1.72-.58,1.28-1.56,3.42-3.31,4.73-1.06.8-2.88,1.66-4.36,1.66h0Z"/>
    <path class="st4" d="M248.97,24.51c.17,0,.29,0,.35,0,2.73.11,4.76,2.04,5.67,3.66.34.61.53,1.41.9,3.01.67,2.85,1.2,5.1.66,7.63-.27,1.29-.88,2.95-1.13,3.61-.09.25-.38,1.01-.68,1.68-.6,1.32-1.51,3.3-3.16,4.54-1,.75-2.7,1.56-4.06,1.56-.54,0-.95-.13-1.23-.39-.72-.67-1.05-1.87-.98-3.54.05-1.25.25-2.5.6-3.71.17-.57.31-.97.43-1.28l.05-.14c.84-2.32,2.1-5.83,1.18-9.29-.16-.61-.31-.92-.47-1.26-.16-.33-.34-.71-.62-1.61-.61-1.99-.87-2.9-.57-3.45.4-.75,1.84-1.02,3.06-1.02M248.97,23.51c-.95,0-3.19.15-3.94,1.55-.5.94-.15,2.08.5,4.21.56,1.83.79,1.72,1.08,2.83.84,3.16-.34,6.45-1.15,8.7-.13.36-.3.8-.49,1.48-.37,1.28-.59,2.61-.64,3.95-.06,1.55.17,3.25,1.29,4.31.5.47,1.17.66,1.91.66,1.59,0,3.5-.89,4.66-1.76,1.85-1.39,2.86-3.58,3.47-4.92.32-.69.61-1.47.71-1.74.11-.3.85-2.25,1.17-3.75.59-2.75.03-5.12-.66-8.07-.4-1.69-.59-2.54-1.01-3.27-1.2-2.14-3.63-4.05-6.5-4.17-.07,0-.21,0-.4,0h0Z"/>
  </g>
  <g>
    <g>
      <path class="st7" d="M228.03,176.95c-6.6,0-12.72-2.71-16.69-4.98-1.92-1.1-4.09-2.49-5.65-4.47-1.93-2.46-2.96-5.87-3.15-10.42-.5-12.2,4.43-23.93,9.52-34.89.79-1.7,1.55-3.18,2.86-4.03.74-.49,1.67-.74,2.67-.74.88,0,1.8.2,2.65.57,2.5,1.09,5.03,3.34,7.25,5.32l.91.8c.28.25.53.48.58.73.06.36-.31.78-.71,1.17-7.05,6.72-11.41,14.86-12.28,22.9-.59,5.48.97,10.08,4.19,12.29,1.66,1.14,3.81,1.72,6.39,1.72h0c.34,0,.69,0,1.03-.03,4.95-.28,9.04-2.46,10.95-5.83,1-1.77,1.38-3.79,1.75-5.73l.03-.17c1.48-7.83,3.51-15.94,8.32-22.24,4.14-5.42,10.32-9.44,17.42-11.31,3.12-.82,6.42-1.24,9.81-1.24,3.69,0,7.46.49,11.19,1.46l.91.24-.31-.89c-.98-2.78-3.4-4.59-5.74-6.33l-.28-.21c-6.01-4.49-11.5-9.68-16.33-15.42,4.17-3.01,8.76-5.34,13.65-6.94.63-.21,1.25-.39,1.87-.39h.16c2.17.13,3.3,2.49,4.39,4.77.2.41.39.81.58,1.2,1.56,3.04,4.09,5.42,6.54,7.71l.53.5c5.45,5.13,10.62,10.67,15.37,16.47,2.32,2.84,4.38,5.9,3.75,9.11-.54,2.77-3.01,4.66-5.15,5.5-2.44.96-5.09,1.09-8.05,1.16-2.37.05-4.78.08-7.16.08-4.25,0-8.56-.09-12.81-.26-1.33-.05-2.99-.12-4.58-.12-4.18,0-9.49.41-13.47,3.58-3.92,3.13-5.64,8.15-7.15,12.59-1.87,5.5-3.65,10.42-6.42,14.88-2.21,3.56-6.03,8.27-11.73,10.53-2.34.93-4.9,1.4-7.62,1.4Z"/>
      <path d="M280.84,88.34s.09,0,.13,0c1.88.11,2.94,2.33,3.97,4.48.2.41.39.82.59,1.21,1.59,3.12,4.16,5.52,6.64,7.85l.54.5c5.44,5.12,10.59,10.64,15.32,16.42,2.24,2.74,4.24,5.69,3.65,8.7-.5,2.57-2.83,4.33-4.84,5.12-2.36.93-4.97,1.06-7.88,1.12-2.37.05-4.78.08-7.15.08-4.24,0-8.54-.09-12.78-.26-1.34-.05-3-.12-4.6-.12-4.26,0-9.68.42-13.78,3.69-4.04,3.22-5.78,8.32-7.31,12.82-1.86,5.47-3.63,10.36-6.37,14.78-2.17,3.49-5.92,8.12-11.49,10.33-2.28.91-4.78,1.36-7.44,1.36-6.5,0-12.53-2.68-16.44-4.92-1.88-1.08-4-2.43-5.5-4.34-1.86-2.37-2.86-5.69-3.04-10.14-.5-12.09,4.41-23.75,9.48-34.66.76-1.63,1.48-3.04,2.68-3.83.66-.43,1.49-.66,2.4-.66.82,0,1.66.18,2.45.52,2.43,1.06,4.92,3.28,7.12,5.24.31.28.61.55.91.81.1.08.39.34.41.44,0,.04-.03.21-.57.72-7.13,6.81-11.55,15.05-12.43,23.21-.61,5.67,1.03,10.44,4.41,12.76,1.74,1.2,3.99,1.8,6.67,1.8.35,0,.7-.01,1.05-.03,5.12-.29,9.37-2.56,11.36-6.09,1.04-1.85,1.43-3.9,1.81-5.89l.03-.16c1.47-7.76,3.48-15.81,8.23-22.03,4.07-5.33,10.16-9.29,17.15-11.13,3.07-.81,6.33-1.22,9.68-1.22,3.65,0,7.37.49,11.06,1.44l1.82.47-.62-1.77c-1.03-2.93-3.62-4.86-5.91-6.57l-.28-.21c-5.84-4.36-11.18-9.38-15.89-14.93,4.01-2.83,8.4-5.03,13.07-6.56.59-.19,1.17-.37,1.71-.37M280.84,87.34c-.69,0-1.36.2-2.02.42-5.09,1.66-9.91,4.15-14.22,7.33,4.93,5.94,10.57,11.29,16.75,15.91,2.33,1.74,4.88,3.56,5.85,6.31-3.69-.96-7.51-1.47-11.32-1.47-3.35,0-6.7.4-9.94,1.26-6.93,1.83-13.35,5.8-17.69,11.49-4.89,6.41-6.92,14.52-8.41,22.45-.37,1.98-.74,4-1.73,5.75-2.04,3.61-6.4,5.35-10.55,5.58-.33.02-.66.03-1,.03-2.16,0-4.34-.42-6.11-1.63-3.6-2.47-4.45-7.48-3.98-11.82.94-8.68,5.81-16.57,12.13-22.59.46-.44.97-.99.86-1.62-.07-.42-.42-.74-.74-1.02-2.4-2.11-5.35-4.93-8.29-6.21-.89-.39-1.88-.61-2.85-.61-1.05,0-2.07.25-2.95.82-1.48.96-2.3,2.64-3.04,4.24-5.16,11.12-10.08,22.88-9.57,35.13.16,3.79.91,7.73,3.26,10.71,1.53,1.95,3.64,3.36,5.79,4.59,5.14,2.95,11.11,5.05,16.94,5.05,2.66,0,5.29-.44,7.81-1.43,5.07-2.01,9.09-6.1,11.97-10.73s4.71-9.82,6.47-14.98c1.55-4.54,3.23-9.37,6.99-12.36,3.64-2.9,8.4-3.47,13.16-3.47,1.53,0,3.07.06,4.56.12,4.27.17,8.55.26,12.82.26,2.39,0,4.78-.03,7.17-.08,2.79-.06,5.63-.17,8.23-1.19,2.59-1.02,4.92-3.13,5.45-5.86.68-3.48-1.61-6.78-3.86-9.53-4.77-5.83-9.92-11.35-15.41-16.52-2.6-2.45-5.34-4.89-6.97-8.08-1.32-2.58-2.5-6.07-5.4-6.24-.06,0-.13,0-.19,0h0Z"/>
    </g>
    <g>
      <path class="st9" d="M278.14,172.19c-2.51,0-4.55-.2-6.42-.62-6.35-1.43-9.94-5.42-10.11-11.23-.18-6.3,1.99-11.95,5.97-15.52,3.35-3,8.17-4.81,14.34-5.37,2.84-.26,5.75-.26,8.57-.26,2.39,0,4.87,0,7.31-.16,6.53-.42,11.5-2.01,15.21-4.84,4.72-3.61,7.01-9.57,5.58-14.49-1.22-4.19-4.58-7.07-8.52-10.14l-4.82-3.76c-1.83-1.42-3.72-2.9-5.61-4.3-2.59-1.92-6.07-4.83-6.48-8.04-.18-1.43.25-2.76,1.32-4.09,1.49-1.84,3.6-3.11,5.46-4.15,6.44-3.61,12.27-5.71,17.83-6.42,1.42-.18,2.87-.27,4.32-.27,6.5,0,13.09,1.87,18.55,5.27,6.8,4.23,11.98,10.73,14.59,18.3,1.66,4.82,2.42,10.4,2.38,17.55-.04,6.29-.63,11.85-1.8,17-1.16,5.1-2.75,8.86-4.99,11.86-2.12,2.83-4.9,5.05-7.8,7.27-7.01,5.35-14.7,10.63-23.41,13.06-5.76,1.6-11.84,1.92-17.72,2.23l-18.67.98c-1.65.09-3.35.17-5.07.17Z"/>
      <path d="M322.09,79.01h0c6.41,0,12.9,1.84,18.29,5.19,6.7,4.17,11.81,10.58,14.38,18.04,1.64,4.77,2.39,10.29,2.35,17.38-.04,6.25-.62,11.78-1.79,16.89-1.15,5.03-2.71,8.73-4.9,11.67-2.08,2.78-4.83,4.98-7.7,7.17-6.97,5.32-14.61,10.57-23.24,12.97-5.7,1.59-11.76,1.9-17.61,2.21l-9.11.48-9.56.5c-1.64.09-3.34.17-5.04.17-2.47,0-4.48-.19-6.31-.6-4.32-.97-9.51-3.63-9.72-10.76-.18-6.15,1.94-11.66,5.8-15.13,3.27-2.93,7.99-4.7,14.05-5.25,2.82-.26,5.72-.26,8.53-.26,2.4,0,4.89,0,7.34-.16,6.63-.43,11.69-2.05,15.48-4.94,4.88-3.73,7.25-9.91,5.75-15.02-1.37-4.69-5.6-7.99-8.7-10.4l-2.41-1.88-2.41-1.88c-1.83-1.43-3.72-2.9-5.62-4.31-2.51-1.86-5.9-4.69-6.28-7.71-.16-1.28.23-2.5,1.22-3.71,1.43-1.77,3.49-3.01,5.31-4.03,6.38-3.58,12.15-5.66,17.65-6.36,1.4-.18,2.83-.27,4.25-.27M322.09,78.01c-1.46,0-2.93.09-4.38.28-6.37.81-12.41,3.34-18.01,6.48-2.06,1.16-4.12,2.44-5.6,4.28-4.1,5.08,1.25,9.89,5.25,12.85,1.89,1.4,3.75,2.85,5.6,4.29,1.61,1.25,3.22,2.51,4.82,3.76,3.46,2.7,7.12,5.67,8.35,9.89,1.49,5.09-1.19,10.73-5.4,13.95s-9.65,4.4-14.94,4.74c-5.29.34-10.61-.06-15.89.42-5.28.48-10.68,1.96-14.63,5.5-4.43,3.98-6.3,10.08-6.13,15.9.18,6.42,4.26,10.3,10.5,11.71,2.14.48,4.33.63,6.53.63,1.7,0,3.4-.09,5.09-.18,6.22-.33,12.45-.65,18.67-.98,5.99-.31,12.04-.64,17.83-2.24,8.72-2.43,16.38-7.65,23.58-13.14,2.87-2.19,5.73-4.47,7.9-7.37,2.63-3.52,4.1-7.77,5.08-12.05,1.28-5.6,1.78-11.36,1.81-17.11.03-5.99-.45-12.05-2.4-17.71-2.63-7.63-7.95-14.3-14.8-18.56-5.61-3.49-12.21-5.34-18.81-5.34h0Z"/>
    </g>
    <path class="st3" d="M333.74,117.21c2.48,7.72-4.42,15.99-8.23,20.55-2.21,2.65-4.75,5.6-9.1,7.88-4.02,2.1-8.62,2.69-13.12,3.26-3.55.45-7.1.89-10.66,1.34-2.52.32-5.49.96-6.46,3.31-.93,2.25.71,4.91,2.93,5.91,2.22,1,4.78.77,7.18.4,15.63-2.41,30.42-9.97,41.51-21.24,2.46-2.5,4.78-5.23,6.2-8.44,2.87-6.5,1.68-13.98.45-20.98-.71-4.02-1.45-8.12-3.4-11.71-3.79-6.96-12.29-11.02-20.08-9.57-4.11.76-8.35,3.51-8.84,7.65-.51,4.35,4.1,8.04,5.18,8.9,3.66,2.91,5.76,1.95,9.77,4.7,1.13.78,5.23,3.58,6.66,8.05Z"/>
  </g>
</svg>